SplineFontDB: 1.0
FontName: DejaVuSansCondensed-Oblique
FullName: DejaVu Sans Condensed Oblique
FamilyName: DejaVu Sans Condensed
Weight: Book
Copyright: Copyright (c) 2003 by Bitstream, Inc. All Rights Reserved.\nDejaVu changes are in public domain\n
Version: 1.11
ItalicAngle: -11
UnderlinePosition: -213
UnderlineWidth: 143
Ascent: 1556
Descent: 492
Order2: 1
NeedsXUIDChange: 1
FSType: 4
PfmFamily: 17
TTFWeight: 400
TTFWidth: 5
Panose: 2 11 6 6 3 3 4 11 2 4
LineGap: 410
VLineGap: 0
OS2TypoAscent: 1556
OS2TypoDescent: -492
OS2TypoLinegap: 0
OS2WinAscent: 1901
OS2WinAOffset: 0
OS2WinDescent: 483
OS2WinDOffset: 0
HheadAscent: 1901
HheadAOffset: 0
HheadDescent: -483
HheadDOffset: 0
ScriptLang: 2
 1 latn 1 dflt 
 1 DFLT 1 dflt 
TtfTable: prep 1036
\,q1Gs0;P*YU'CT1'=\F"0E%8XE+jTX>0mYrWB/H"/ub4W$MPDQ34#\"/YhrV#CIk3Wl,U"/.IP
TV#-dTU#\P9gJrT;ZiUH".^,.S<a8H$3Qar".9c(R!f(']*"Au"-cMG"dFE;PPtZIO[fS<I05U%
"-AQ_"d&]cNuJ1]rWA/Z"-!3]MuEg9M&lhXrW@uu",J]7L].C/('B3g"+pLSJc5b%rW@ZL"+L4O
I7kjiI:NG-rW@KZ"+#7)"a^.MH$ETuH+O0(J-:+@,mAO!"*d'6G9m?7rW@;/"*A&UEt/:mE?td/
A-6gj&d<8$")nkTDbWM$Du'QR5l^fcD>jWRrW?pO");O2"_qQMBhK`UBfZ?0:(%5=(^"D_%L$K#
"(i#FARkmR9gJqnQ31Xr"(G[I"_.H5@136G?Ps#TA-61F&-ZDY"'uN@>m^[=>7Ca@rW?@6"'SDb
"^72o=]c.;=XXAS%Kff/"'/F6"]kU)<E*6-<P&?5J-8hM,m@7R"&qMg;^DNDrW?"o/d5,O"&LTP
:JM9$:D<n+$Nj*r,m@"/"&)?6"\emt91fd"9-j[4&HbW("%Yoo"\AUp7hGhmrW>Ug"%<+j6UH2)
6iI0SI02e7"$l\b5PbIGq?&i<63TLN"$=R+3]9;.3`?,@r]kE)3.1lf2F7R*">'d863B+E"#TuZ
1HGUnq?&D["#'WU/cGi'rW=YR/HmXZ""Fia.0C+b.3epC*Wmc:%L"4j"""K[,ln>V,r,QJ$lB-n
I01\t3X$c-"!S-j"X:P\+Ti8Z+WCM+*t&5p%g*ras1gmg"<S!R*XMoi5Qi)=!uqJ*"WWg1)jURE
)'oG)A-3\d&d9.!!uMXQ(D\;#(I8-=,m+n]!u1_:'D_eD&K(`brW<`7&-WX`!tbG6&,lY@"Zces
Q3.R)(^1@s!t5PG"Ul4M$Od+ErW<E03X#eT!sSi="U=r."U$C\"Zc_g!tYV=/HZ(d!s/K1"TfMC
!=Ao05Qh',!s,n4A;-!D.k<,#.k<,#.k<,#.k<,#.k<,#.k<,#.k<,#.k<,#.k<,#.k<,#.k<,#
.k<,#.k<,#.k<,#.k<,#.k<,#.k<,#.k<,#.k<,#.k<,#.k<,#.k<,#.k<,#.k<+M.k<,#.k<,#
.k<,#.k<,#.k<,#.k<,#.k<,#.k<,#.k<,#.k<,#.k<,#.k<,#.k<,#.k<,#.k<,#.k<,#.k<,#

StartChar: .notdef
Encoding: 0 -1 0
Width: 1167
Flags: HW
Fore
153.2 -362 m 1,0,-1
 153.2 1444 l 1,1,-1
 1074.8 1444 l 1,2,-1
 1074.8 -362 l 1,3,-1
 153.2 -362 l 1,0,-1
256.7 -248 m 1,4,-1
 972.2 -248 l 1,5,-1
 972.2 1329 l 1,6,-1
 256.7 1329 l 1,7,-1
 256.7 -248 l 1,4,-1
EndSplineSet
EndChar
StartChar: exclam
Encoding: 33 33 4
Width: 779
Flags: HW
Fore
448.55 1493 m 1,0,-1
 630.35 1493 l 1,1,-1
 516.05 838 l 1,2,-1
 435.05 481 l 1,3,-1
 289.25 481 l 1,4,-1
 334.25 838 l 1,5,-1
 448.55 1493 l 1,0,-1
232.55 254 m 1,6,-1
 415.25 254 l 1,7,-1
 371.15 0 l 1,8,-1
 186.65 0 l 1,9,-1
 232.55 254 l 1,6,-1
EndSplineSet
EndChar
StartChar: quotedbl
Encoding: 34 34 5
Width: 894
Flags: HW
Fore
377.4 1493 m 1,0,-1
 377.4 938 l 1,1,-1
 224.4 938 l 1,2,-1
 224.4 1493 l 1,3,-1
 377.4 1493 l 1,0,-1
717.6 1493 m 1,4,-1
 717.6 938 l 1,5,-1
 564.6 938 l 1,6,-1
 564.6 1493 l 1,7,-1
 717.6 1493 l 1,4,-1
EndSplineSet
EndChar
StartChar: numbersign
Encoding: 35 35 6
Width: 1630
Flags: HW
Fore
893.6 1470 m 1,0,-1
 800 1055 l 1,1,-1
 1062.8 1055 l 1,2,-1
 1157.3 1470 l 1,3,-1
 1301.3 1470 l 1,4,-1
 1208.6 1055 l 1,5,-1
 1511 1055 l 1,6,-1
 1475.9 901 l 1,7,-1
 1173.5 901 l 1,8,-1
 1099.7 567 l 1,9,-1
 1405.7 567 l 1,10,-1
 1373.3 414 l 1,11,-1
 1064.6 414 l 1,12,-1
 971 0 l 1,13,-1
 827 0 l 1,14,-1
 919.7 414 l 1,15,-1
 656 414 l 1,16,-1
 563.3 0 l 1,17,-1
 418.4 0 l 1,18,-1
 512 414 l 1,19,-1
 215 414 l 1,20,-1
 248.3 567 l 1,21,-1
 545.3 567 l 1,22,-1
 620.9 901 l 1,23,-1
 318.5 901 l 1,24,-1
 353.6 1055 l 1,25,-1
 656 1055 l 1,26,-1
 747.8 1470 l 1,27,-1
 893.6 1470 l 1,0,-1
1028.6 901 m 1,28,-1
 766.7 901 l 1,29,-1
 691.1 567 l 1,30,-1
 954.8 567 l 1,31,-1
 1028.6 901 l 1,28,-1
EndSplineSet
EndChar
StartChar: dollar
Encoding: 36 36 7
Width: 1234
Flags: HW
Fore
601.75 145 m 1,0,1
 726.85 151 726.85 151 799.75 215.5 c 128,-1,2
 872.65 280 872.65 280 872.65 383 c 0,3,4
 872.65 467 872.65 467 826.75 513 c 128,-1,5
 780.85 559 780.85 559 677.35 578 c 1,6,-1
 601.75 145 l 1,0,1
691.75 1180 m 1,7,8
 572.95 1166 572.95 1166 505.45 1102 c 128,-1,9
 437.95 1038 437.95 1038 437.95 938 c 0,10,11
 437.95 868 437.95 868 480.7 828.5 c 128,-1,12
 523.45 789 523.45 789 620.65 770 c 1,13,-1
 691.75 1180 l 1,7,8
1112.05 1262 m 1,14,-1
 1081.45 1081 l 1,15,16
 1004.05 1127 1004.05 1127 928.9 1152 c 128,-1,17
 853.75 1177 853.75 1177 782.65 1179 c 1,18,-1
 707.05 752 l 1,19,20
 872.65 723 872.65 723 959.5 637 c 128,-1,21
 1046.35 551 1046.35 551 1046.35 416 c 0,22,23
 1046.35 241 1046.35 241 917.65 126.5 c 128,-1,24
 788.95 12 788.95 12 575.65 0 c 1,25,-1
 522.55 -301 l 1,26,-1
 432.55 -301 l 1,27,-1
 485.65 0 l 1,28,29
 381.25 3 381.25 3 289.45 26.5 c 128,-1,30
 197.65 50 197.65 50 122.95 92 c 1,31,-1
 153.55 276 l 1,32,33
 236.35 214 236.35 214 326.35 180 c 128,-1,34
 416.35 146 416.35 146 511.75 142 c 1,35,-1
 590.95 598 l 1,36,37
 420.85 634 420.85 634 343.45 708.5 c 128,-1,38
 266.05 783 266.05 783 266.05 909 c 0,39,40
 266.05 1075 266.05 1075 389.8 1190 c 128,-1,41
 513.55 1305 513.55 1305 716.05 1323 c 1,42,-1
 758.35 1556 l 1,43,-1
 848.35 1556 l 1,44,-1
 808.75 1323 l 1,45,46
 889.75 1320 889.75 1320 966.7 1304.5 c 128,-1,47
 1043.65 1289 1043.65 1289 1112.05 1262 c 1,14,-1
EndSplineSet
EndChar
StartChar: percent
Encoding: 37 37 8
Width: 1848
Flags: HW
Fore
530.15 707 m 0,0,1
 407.75 707 407.75 707 336.2 795.5 c 128,-1,2
 264.65 884 264.65 884 264.65 1036 c 0,3,4
 264.65 1252 264.65 1252 369.05 1386 c 128,-1,5
 473.45 1520 473.45 1520 640.85 1520 c 0,6,7
 763.25 1520 763.25 1520 834.8 1430.5 c 128,-1,8
 906.35 1341 906.35 1341 906.35 1188 c 0,9,10
 906.35 974 906.35 974 801.95 840.5 c 128,-1,11
 697.55 707 697.55 707 530.15 707 c 0,0,1
762.35 1182 m 0,12,13
 762.35 1287 762.35 1287 727.25 1340 c 128,-1,14
 692.15 1393 692.15 1393 622.85 1393 c 0,15,16
 522.05 1393 522.05 1393 465.35 1296 c 128,-1,17
 408.65 1199 408.65 1199 408.65 1026 c 0,18,19
 408.65 934 408.65 934 445.1 884 c 128,-1,20
 481.55 834 481.55 834 549.05 834 c 0,21,22
 645.35 834 645.35 834 703.85 929 c 128,-1,23
 762.35 1024 762.35 1024 762.35 1182 c 0,12,13
1536.35 446 m 0,24,25
 1536.35 553 1536.35 553 1502.15 606 c 128,-1,26
 1467.95 659 1467.95 659 1398.65 659 c 0,27,28
 1298.75 659 1298.75 659 1241.6 561.5 c 128,-1,29
 1184.45 464 1184.45 464 1184.45 291 c 0,30,31
 1184.45 198 1184.45 198 1220.9 148 c 128,-1,32
 1257.35 98 1257.35 98 1324.85 98 c 0,33,34
 1421.15 98 1421.15 98 1478.75 193 c 128,-1,35
 1536.35 288 1536.35 288 1536.35 446 c 0,24,25
1305.95 -29 m 0,36,37
 1183.55 -29 1183.55 -29 1112.45 60 c 128,-1,38
 1041.35 149 1041.35 149 1041.35 301 c 0,39,40
 1041.35 517 1041.35 517 1145.3 650.5 c 128,-1,41
 1249.25 784 1249.25 784 1416.65 784 c 0,42,43
 1539.05 784 1539.05 784 1609.7 696 c 128,-1,44
 1680.35 608 1680.35 608 1680.35 455 c 0,45,46
 1680.35 240 1680.35 240 1576.4 105.5 c 128,-1,47
 1472.45 -29 1472.45 -29 1305.95 -29 c 0,36,37
1611.95 1520 m 1,48,-1
 501.35 -29 l 1,49,-1
 357.35 -29 l 1,50,-1
 1468.85 1520 l 1,51,-1
 1611.95 1520 l 1,48,-1
EndSplineSet
EndChar
StartChar: ampersand
Encoding: 38 38 9
Width: 1517
Flags: HW
Fore
950.45 260 m 1,0,-1
 567.05 803 l 1,1,2
 458.15 715 458.15 715 401.9 616 c 128,-1,3
 345.65 517 345.65 517 345.65 414 c 0,4,5
 345.65 287 345.65 287 422.6 210 c 128,-1,6
 499.55 133 499.55 133 627.35 133 c 0,7,8
 711.95 133 711.95 133 794.3 165.5 c 128,-1,9
 876.65 198 876.65 198 950.45 260 c 1,0,-1
1436.45 801 m 1,10,11
 1395.95 642 1395.95 642 1329.8 510 c 128,-1,12
 1263.65 378 1263.65 378 1170.95 270 c 1,13,-1
 1359.05 0 l 1,14,-1
 1132.25 0 l 1,15,-1
 1036.85 139 l 1,16,17
 941.45 56 941.45 56 831.65 13.5 c 128,-1,18
 721.85 -29 721.85 -29 602.15 -29 c 0,19,20
 403.25 -29 403.25 -29 284.9 80 c 128,-1,21
 166.55 189 166.55 189 166.55 369 c 0,22,23
 166.55 523 166.55 523 249.8 660 c 128,-1,24
 333.05 797 333.05 797 496.85 913 c 1,25,26
 468.95 959 468.95 959 455.9 1006.5 c 128,-1,27
 442.85 1054 442.85 1054 442.85 1108 c 0,28,29
 442.85 1176 442.85 1176 463.55 1237 c 128,-1,30
 484.25 1298 484.25 1298 522.95 1348 c 0,31,32
 585.05 1430 585.05 1430 678.65 1475 c 128,-1,33
 772.25 1520 772.25 1520 880.25 1520 c 0,34,35
 950.45 1520 950.45 1520 1021.55 1502 c 128,-1,36
 1092.65 1484 1092.65 1484 1165.55 1448 c 1,37,-1
 1134.05 1266 l 1,38,39
 1066.55 1313 1066.55 1313 999.5 1337.5 c 128,-1,40
 932.45 1362 932.45 1362 869.45 1362 c 0,41,42
 757.85 1362 757.85 1362 688.1 1297.5 c 128,-1,43
 618.35 1233 618.35 1233 618.35 1133 c 0,44,45
 618.35 1089 618.35 1089 635.45 1046 c 128,-1,46
 652.55 1003 652.55 1003 714.65 915 c 2,47,-1
 1080.95 395 l 1,48,49
 1148.45 474 1148.45 474 1196.15 576.5 c 128,-1,50
 1243.85 679 1243.85 679 1269.05 801 c 1,51,-1
 1436.45 801 l 1,10,11
EndSplineSet
EndChar
StartChar: quotesingle
Encoding: 39 39 10
Width: 534
Flags: HW
Fore
358.5 1493 m 1,0,-1
 358.5 938 l 1,1,-1
 205.5 938 l 1,2,-1
 205.5 1493 l 1,3,-1
 358.5 1493 l 1,0,-1
EndSplineSet
EndChar
StartChar: parenleft
Encoding: 40 40 11
Width: 770
Flags: HW
Fore
838.2 1554 m 1,0,1
 599.7 1223 599.7 1223 482.25 925.5 c 128,-1,2
 364.8 628 364.8 628 364.8 352 c 0,3,4
 364.8 194 364.8 194 399 38.5 c 128,-1,5
 433.2 -117 433.2 -117 501.6 -270 c 1,6,-1
 357.6 -270 l 1,7,8
 274.8 -98 274.8 -98 234.3 64.5 c 128,-1,9
 193.8 227 193.8 227 193.8 383 c 0,10,11
 193.8 680 193.8 680 317.55 971.5 c 128,-1,12
 441.3 1263 441.3 1263 691.5 1554 c 1,13,-1
 838.2 1554 l 1,0,1
EndSplineSet
EndChar
StartChar: parenright
Encoding: 41 41 12
Width: 742
Flags: HW
Fore
-91.1504 -270 m 1,0,1
 148.25 61 148.25 61 265.25 358.5 c 128,-1,2
 382.25 656 382.25 656 382.25 932 c 0,3,4
 382.25 1090 382.25 1090 348.5 1245.5 c 128,-1,5
 314.75 1401 314.75 1401 246.35 1554 c 1,6,-1
 390.35 1554 l 1,7,8
 473.15 1381 473.15 1381 513.65 1220 c 128,-1,9
 554.15 1059 554.15 1059 554.15 903 c 0,10,11
 554.15 605 554.15 605 429.5 311.5 c 128,-1,12
 304.85 18 304.85 18 56.4502 -270 c 1,13,-1
 -91.1504 -270 l 1,0,1
EndSplineSet
EndChar
StartChar: asterisk
Encoding: 42 42 13
Width: 972
Flags: HW
Fore
917.9 1247 m 1,0,-1
 594.8 1053 l 1,1,-1
 917.9 858 l 1,2,-1
 865.7 760 l 1,3,-1
 563.3 963 l 1,4,-1
 563.3 586 l 1,5,-1
 460.7 586 l 1,6,-1
 460.7 963 l 1,7,-1
 158.3 760 l 1,8,-1
 106.1 858 l 1,9,-1
 429.2 1053 l 1,10,-1
 106.1 1247 l 1,11,-1
 158.3 1346 l 1,12,-1
 460.7 1143 l 1,13,-1
 460.7 1520 l 1,14,-1
 563.3 1520 l 1,15,-1
 563.3 1143 l 1,16,-1
 865.7 1346 l 1,17,-1
 917.9 1247 l 1,0,-1
EndSplineSet
EndChar
StartChar: plus
Encoding: 43 43 14
Width: 1630
Flags: HW
Fore
933.6 1284 m 1,0,-1
 933.6 727 l 1,1,-1
 1434.9 727 l 1,2,-1
 1434.9 557 l 1,3,-1
 933.6 557 l 1,4,-1
 933.6 0 l 1,5,-1
 782.4 0 l 1,6,-1
 782.4 557 l 1,7,-1
 281.1 557 l 1,8,-1
 281.1 727 l 1,9,-1
 782.4 727 l 1,10,-1
 782.4 1284 l 1,11,-1
 933.6 1284 l 1,0,-1
EndSplineSet
EndChar
StartChar: comma
Encoding: 44 44 15
Width: 605
Flags: HW
Fore
185.65 254 m 1,0,-1
 375.55 254 l 1,1,-1
 345.85 82 l 1,2,-1
 141.55 -238 l 1,3,-1
 25.4502 -238 l 1,4,-1
 155.05 82 l 1,5,-1
 185.65 254 l 1,0,-1
EndSplineSet
EndChar
StartChar: hyphen
Encoding: 45 45 16
Width: 702
Flags: HW
Fore
150.3 643 m 1,0,-1
 635.4 643 l 1,1,-1
 607.5 479 l 1,2,-1
 120.6 479 l 1,3,-1
 150.3 643 l 1,0,-1
EndSplineSet
KernsSLIF: 356 -149 0 0 221 -149 0 0 376 -149 0 0 89 -149 0 0 88 -73 0 0 87 -36 0 0 86 -83 0 0 84 -149 0 0
EndChar
StartChar: period
Encoding: 46 46 17
Width: 610
Flags: HW
Fore
176.1 254 m 1,0,-1
 366 254 l 1,1,-1
 321.9 0 l 1,2,-1
 132 0 l 1,3,-1
 176.1 254 l 1,0,-1
EndSplineSet
EndChar
StartChar: slash
Encoding: 47 47 18
Width: 657
Flags: HW
Fore
662.6 1493 m 1,0,-1
 822.8 1493 l 1,1,-1
 60.5 -190 l 1,2,-1
 -98.7998 -190 l 1,3,-1
 662.6 1493 l 1,0,-1
EndSplineSet
EndChar
StartChar: zero
Encoding: 48 48 19
Width: 1237
Flags: HW
Fore
768.9 1520 m 0,0,1
 951.6 1520 951.6 1520 1048.35 1385 c 128,-1,2
 1145.1 1250 1145.1 1250 1145.1 997 c 0,3,4
 1145.1 805 1145.1 805 1099.65 615.5 c 128,-1,5
 1054.2 426 1054.2 426 972.3 276 c 1,6,7
 888.6 126 888.6 126 775.65 48.5 c 128,-1,8
 662.7 -29 662.7 -29 525.9 -29 c 0,9,10
 349.5 -29 349.5 -29 253.2 107 c 128,-1,11
 156.9 243 156.9 243 156.9 494 c 0,12,13
 156.9 684 156.9 684 203.25 874.5 c 128,-1,14
 249.6 1065 249.6 1065 332.4 1214 c 0,15,16
 415.2 1364 415.2 1364 526.35 1442 c 128,-1,17
 637.5 1520 637.5 1520 768.9 1520 c 0,0,1
758.1 1360 m 0,18,19
 689.7 1360 689.7 1360 628.05 1319.5 c 128,-1,20
 566.4 1279 566.4 1279 516.9 1200 c 0,21,22
 434.1 1068 434.1 1068 385.05 870.5 c 128,-1,23
 336 673 336 673 336 465 c 0,24,25
 336 300 336 300 388.65 215.5 c 128,-1,26
 441.3 131 441.3 131 543.9 131 c 0,27,28
 615.9 131 615.9 131 677.1 171.5 c 128,-1,29
 738.3 212 738.3 212 787.8 291 c 0,30,31
 869.7 422 869.7 422 917.85 619.5 c 128,-1,32
 966 817 966 817 966 1026 c 0,33,34
 966 1191 966 1191 913.35 1275.5 c 128,-1,35
 860.7 1360 860.7 1360 758.1 1360 c 0,18,19
EndSplineSet
EndChar
StartChar: one
Encoding: 49 49 20
Width: 1227
Flags: HW
Fore
174.35 170 m 1,0,-1
 471.35 170 l 1,1,-1
 672.05 1319 l 1,2,-1
 336.35 1247 l 1,3,-1
 367.85 1421 l 1,4,-1
 701.75 1493 l 1,5,-1
 884.45 1493 l 1,6,-1
 652.25 170 l 1,7,-1
 948.35 170 l 1,8,-1
 919.55 0 l 1,9,-1
 144.65 0 l 1,10,-1
 174.35 170 l 1,0,-1
EndSplineSet
EndChar
StartChar: two
Encoding: 50 50 21
Width: 1231
Flags: HW
Fore
908.8 721 m 2,0,-1
 328.3 168 l 1,1,-1
 970 168 l 1,2,-1
 938.5 0 l 1,3,-1
 66.4004 0 l 1,4,-1
 96.0996 170 l 1,5,-1
 702.7 748 l 1,6,7
 824.2 865 824.2 865 875.05 953.5 c 128,-1,8
 925.9 1042 925.9 1042 925.9 1135 c 0,9,10
 925.9 1232 925.9 1232 864.7 1293 c 128,-1,11
 803.5 1354 803.5 1354 704.5 1354 c 0,12,13
 619 1354 619 1354 514.6 1320 c 128,-1,14
 410.2 1286 410.2 1286 291.4 1221 c 1,15,-1
 324.7 1421 l 1,16,17
 436.3 1470 436.3 1470 538 1495 c 128,-1,18
 639.7 1520 639.7 1520 726.1 1520 c 0,19,20
 902.5 1520 902.5 1520 1010.05 1416 c 128,-1,21
 1117.6 1312 1117.6 1312 1117.6 1143 c 0,22,23
 1117.6 1029 1117.6 1029 1066.3 925.5 c 128,-1,24
 1015 822 1015 822 908.8 721 c 2,0,-1
EndSplineSet
EndChar
StartChar: three
Encoding: 51 51 22
Width: 1231
Flags: HW
Fore
350.35 1456 m 1,0,1
 449.35 1488 449.35 1488 542.5 1504 c 128,-1,2
 635.65 1520 635.65 1520 725.65 1520 c 0,3,4
 903.85 1520 903.85 1520 1008.25 1432 c 128,-1,5
 1112.65 1344 1112.65 1344 1112.65 1196 c 0,6,7
 1112.65 1051 1112.65 1051 1030.3 947 c 128,-1,8
 947.95 843 947.95 843 803.05 805 c 1,9,10
 916.45 769 916.45 769 969.55 693 c 128,-1,11
 1022.65 617 1022.65 617 1022.65 492 c 0,12,13
 1022.65 372 1022.65 372 970.9 267 c 128,-1,14
 919.15 162 919.15 162 821.95 86 c 0,15,16
 748.15 28 748.15 28 645.55 -0.5 c 128,-1,17
 542.95 -29 542.95 -29 408.85 -29 c 0,18,19
 324.25 -29 324.25 -29 237.85 -10.5 c 128,-1,20
 151.45 8 151.45 8 62.3496 45 c 1,21,-1
 95.6504 236 l 1,22,23
 180.25 184 180.25 184 266.2 158.5 c 128,-1,24
 352.15 133 352.15 133 442.15 133 c 0,25,26
 619.45 133 619.45 133 729.7 234.5 c 128,-1,27
 839.95 336 839.95 336 839.95 498 c 0,28,29
 839.95 602 839.95 602 769.75 658.5 c 128,-1,30
 699.55 715 699.55 715 569.05 715 c 2,31,-1
 412.45 715 l 1,32,-1
 440.35 879 l 1,33,-1
 605.95 879 l 2,34,35
 755.35 879 755.35 879 841.3 955 c 128,-1,36
 927.25 1031 927.25 1031 927.25 1161 c 0,37,38
 927.25 1255 927.25 1255 864.25 1306.5 c 128,-1,39
 801.25 1358 801.25 1358 686.95 1358 c 0,40,41
 600.55 1358 600.55 1358 510.1 1337.5 c 128,-1,42
 419.65 1317 419.65 1317 322.45 1276 c 1,43,-1
 350.35 1456 l 1,0,1
EndSplineSet
EndChar
StartChar: four
Encoding: 52 52 23
Width: 1232
Flags: HW
Fore
852.6 1493 m 1,0,-1
 1081.2 1493 l 1,1,-1
 909.3 520 l 1,2,-1
 1101 520 l 1,3,-1
 1071.3 352 l 1,4,-1
 879.6 352 l 1,5,-1
 819.3 0 l 1,6,-1
 638.4 0 l 1,7,-1
 699.6 352 l 1,8,-1
 93 352 l 1,9,-1
 128.1 547 l 1,10,-1
 852.6 1493 l 1,0,-1
868.8 1317 m 1,11,-1
 269.4 520 l 1,12,-1
 728.4 520 l 1,13,-1
 868.8 1317 l 1,11,-1
EndSplineSet
EndChar
StartChar: five
Encoding: 53 53 24
Width: 1234
Flags: HW
Fore
1132.55 1493 m 1,0,-1
 1104.65 1325 l 1,1,-1
 548.45 1325 l 1,2,-1
 483.65 956 l 1,3,4
 525.05 971 525.05 971 567.8 978 c 128,-1,5
 610.55 985 610.55 985 654.65 985 c 0,6,7
 840.95 985 840.95 985 948.95 874 c 128,-1,8
 1056.95 763 1056.95 763 1056.95 573 c 0,9,10
 1056.95 440 1056.95 440 1001.6 318 c 128,-1,11
 946.25 196 946.25 196 844.55 104 c 0,12,13
 772.55 40 772.55 40 668.6 5.5 c 128,-1,14
 564.65 -29 564.65 -29 441.35 -29 c 0,15,16
 360.35 -29 360.35 -29 275.75 -13 c 128,-1,17
 191.15 3 191.15 3 98.4502 35 c 1,18,-1
 131.75 223 l 1,19,20
 214.55 178 214.55 178 297.8 155.5 c 128,-1,21
 381.05 133 381.05 133 465.65 133 c 0,22,23
 641.15 133 641.15 133 755.9 250 c 128,-1,24
 870.65 367 870.65 367 870.65 543 c 0,25,26
 870.65 673 870.65 673 795.5 745 c 128,-1,27
 720.35 817 720.35 817 585.35 817 c 0,28,29
 514.25 817 514.25 817 437.3 798.5 c 128,-1,30
 360.35 780 360.35 780 279.35 743 c 1,31,-1
 409.85 1493 l 1,32,-1
 1132.55 1493 l 1,0,-1
EndSplineSet
EndChar
StartChar: six
Encoding: 54 54 25
Width: 1239
Flags: HW
Fore
913.05 553 m 0,0,1
 913.05 680 913.05 680 854.55 753.5 c 128,-1,2
 796.05 827 796.05 827 695.25 827 c 0,3,4
 555.75 827 555.75 827 460.8 707.5 c 128,-1,5
 365.85 588 365.85 588 365.85 412 c 0,6,7
 365.85 280 365.85 280 423.9 205.5 c 128,-1,8
 481.95 131 481.95 131 584.55 131 c 0,9,10
 724.95 131 724.95 131 819 253.5 c 128,-1,11
 913.05 376 913.05 376 913.05 553 c 0,0,1
1157.85 1458 m 1,12,-1
 1127.25 1274 l 1,13,14
 1075.05 1312 1075.05 1312 1007.55 1332 c 128,-1,15
 940.05 1352 940.05 1352 863.55 1352 c 0,16,17
 677.25 1352 677.25 1352 564.3 1222 c 128,-1,18
 451.35 1092 451.35 1092 395.55 815 c 1,19,20
 461.25 900 461.25 900 548.1 943.5 c 128,-1,21
 634.95 987 634.95 987 735.75 987 c 0,22,23
 900.45 987 900.45 987 998.1 881.5 c 128,-1,24
 1095.75 776 1095.75 776 1095.75 598 c 0,25,26
 1095.75 452 1095.75 452 1047.6 326.5 c 128,-1,27
 999.45 201 999.45 201 907.65 106 c 0,28,29
 844.65 41 844.65 41 760.95 6 c 128,-1,30
 677.25 -29 677.25 -29 582.75 -29 c 0,31,32
 397.35 -29 397.35 -29 290.25 102 c 128,-1,33
 183.15 233 183.15 233 183.15 461 c 0,34,35
 183.15 673 183.15 673 232.2 869.5 c 128,-1,36
 281.25 1066 281.25 1066 369.45 1210 c 0,37,38
 462.15 1362 462.15 1362 594 1441 c 128,-1,39
 725.85 1520 725.85 1520 885.15 1520 c 0,40,41
 955.35 1520 955.35 1520 1023.75 1504.5 c 128,-1,42
 1092.15 1489 1092.15 1489 1157.85 1458 c 1,12,-1
EndSplineSet
EndChar
StartChar: seven
Encoding: 55 55 26
Width: 1246
Flags: HW
Fore
309.5 1493 m 1,0,-1
 1229.3 1493 l 1,1,-1
 1213.1 1407 l 1,2,-1
 444.5 0 l 1,3,-1
 244.7 0 l 1,4,-1
 971 1323 l 1,5,-1
 279.8 1323 l 1,6,-1
 309.5 1493 l 1,0,-1
EndSplineSet
EndChar
StartChar: eight
Encoding: 56 56 27
Width: 1236
Flags: HW
Fore
884 453 m 0,0,1
 884 566 884 566 812.9 637.5 c 128,-1,2
 741.8 709 741.8 709 626.6 709 c 0,3,4
 486.2 709 486.2 709 394.85 615.5 c 128,-1,5
 303.5 522 303.5 522 303.5 379 c 0,6,7
 303.5 265 303.5 265 373.25 198 c 128,-1,8
 443 131 443 131 561.8 131 c 0,9,10
 703.1 131 703.1 131 793.55 222 c 128,-1,11
 884 313 884 313 884 453 c 0,0,1
976.7 1149 m 0,12,13
 976.7 1244 976.7 1244 913.7 1302 c 128,-1,14
 850.7 1360 850.7 1360 746.3 1360 c 0,15,16
 623 1360 623 1360 543.35 1283 c 128,-1,17
 463.7 1206 463.7 1206 463.7 1090 c 0,18,19
 463.7 990 463.7 990 526.25 929 c 128,-1,20
 588.8 868 588.8 868 692.3 868 c 0,21,22
 816.5 868 816.5 868 896.6 947.5 c 128,-1,23
 976.7 1027 976.7 1027 976.7 1149 c 0,12,13
853.4 786 m 1,24,25
 955.1 743 955.1 743 1009.1 656 c 128,-1,26
 1063.1 569 1063.1 569 1063.1 446 c 0,27,28
 1063.1 239 1063.1 239 919.1 105 c 128,-1,29
 775.1 -29 775.1 -29 547.4 -29 c 0,30,31
 353.9 -29 353.9 -29 239.6 76.5 c 128,-1,32
 125.3 182 125.3 182 125.3 358 c 0,33,34
 125.3 518 125.3 518 223.4 642.5 c 128,-1,35
 321.5 767 321.5 767 479 801 c 1,36,37
 384.5 837 384.5 837 335 912.5 c 128,-1,38
 285.5 988 285.5 988 285.5 1096 c 0,39,40
 285.5 1277 285.5 1277 420.95 1398.5 c 128,-1,41
 556.4 1520 556.4 1520 764.3 1520 c 0,42,43
 938 1520 938 1520 1047.35 1421.5 c 128,-1,44
 1156.7 1323 1156.7 1323 1156.7 1171 c 0,45,46
 1156.7 1039 1156.7 1039 1075.25 935.5 c 128,-1,47
 993.8 832 993.8 832 853.4 786 c 1,24,25
EndSplineSet
EndChar
StartChar: nine
Encoding: 57 57 28
Width: 1236
Flags: HW
Fore
144.3 33 m 1,0,-1
 177.6 217 l 1,1,2
 229.8 179 229.8 179 296.4 159 c 128,-1,3
 363 139 363 139 439.5 139 c 0,4,5
 625.8 139 625.8 139 739.65 270 c 128,-1,6
 853.5 401 853.5 401 909.3 678 c 1,7,8
 842.7 593 842.7 593 754.95 548.5 c 128,-1,9
 667.2 504 667.2 504 566.4 504 c 0,10,11
 402.6 504 402.6 504 305.85 609.5 c 128,-1,12
 209.1 715 209.1 715 209.1 893 c 0,13,14
 209.1 1039 209.1 1039 256.8 1164.5 c 128,-1,15
 304.5 1290 304.5 1290 397.2 1384 c 1,16,17
 460.2 1450 460.2 1450 543 1485 c 128,-1,18
 625.8 1520 625.8 1520 719.4 1520 c 0,19,20
 905.7 1520 905.7 1520 1013.7 1388.5 c 128,-1,21
 1121.7 1257 1121.7 1257 1121.7 1030 c 0,22,23
 1121.7 819 1121.7 819 1071.75 622 c 128,-1,24
 1021.8 425 1021.8 425 933.6 281 c 0,25,26
 840 129 840 129 708.6 50 c 128,-1,27
 577.2 -29 577.2 -29 417 -29 c 0,28,29
 347.7 -29 347.7 -29 278.85 -13.5 c 128,-1,30
 210 2 210 2 144.3 33 c 1,0,-1
389.1 940 m 0,31,32
 389.1 813 389.1 813 448.5 738.5 c 128,-1,33
 507.9 664 507.9 664 608.7 664 c 0,34,35
 748.2 664 748.2 664 842.7 783 c 128,-1,36
 937.2 902 937.2 902 937.2 1079 c 0,37,38
 937.2 1211 937.2 1211 878.7 1285.5 c 128,-1,39
 820.2 1360 820.2 1360 717.6 1360 c 0,40,41
 578.1 1360 578.1 1360 483.6 1238.5 c 128,-1,42
 389.1 1117 389.1 1117 389.1 940 c 0,31,32
EndSplineSet
EndChar
StartChar: colon
Encoding: 58 58 29
Width: 652
Flags: HW
Fore
313.2 1059 m 1,0,-1
 503.1 1059 l 1,1,-1
 459 805 l 1,2,-1
 269.1 805 l 1,3,-1
 313.2 1059 l 1,0,-1
171.9 254 m 1,4,-1
 361.8 254 l 1,5,-1
 316.8 0 l 1,6,-1
 126.9 0 l 1,7,-1
 171.9 254 l 1,4,-1
EndSplineSet
EndChar
StartChar: semicolon
Encoding: 59 59 30
Width: 648
Flags: HW
Fore
189.45 254 m 1,0,-1
 379.35 254 l 1,1,-1
 347.85 82 l 1,2,-1
 145.35 -238 l 1,3,-1
 29.25 -238 l 1,4,-1
 157.95 82 l 1,5,-1
 189.45 254 l 1,0,-1
329.85 1059 m 1,6,-1
 519.75 1059 l 1,7,-1
 475.65 805 l 1,8,-1
 285.75 805 l 1,9,-1
 329.85 1059 l 1,6,-1
EndSplineSet
EndChar
StartChar: less
Encoding: 60 60 31
Width: 1630
Flags: HW
Fore
1434.9 1008 m 1,0,-1
 506.1 641 l 1,1,-1
 1434.9 276 l 1,2,-1
 1434.9 94 l 1,3,-1
 281.1 559 l 1,4,-1
 281.1 725 l 1,5,-1
 1434.9 1190 l 1,6,-1
 1434.9 1008 l 1,0,-1
EndSplineSet
EndChar
StartChar: equal
Encoding: 61 61 32
Width: 1630
Flags: HW
Fore
281.1 930 m 1,0,-1
 1434.9 930 l 1,1,-1
 1434.9 762 l 1,2,-1
 281.1 762 l 1,3,-1
 281.1 930 l 1,0,-1
281.1 522 m 1,4,-1
 1434.9 522 l 1,5,-1
 1434.9 352 l 1,6,-1
 281.1 352 l 1,7,-1
 281.1 522 l 1,4,-1
EndSplineSet
EndChar
StartChar: greater
Encoding: 62 62 33
Width: 1630
Flags: HW
Fore
281.1 1008 m 1,0,-1
 281.1 1190 l 1,1,-1
 1434.9 725 l 1,2,-1
 1434.9 559 l 1,3,-1
 281.1 94 l 1,4,-1
 281.1 276 l 1,5,-1
 1208.1 641 l 1,6,-1
 281.1 1008 l 1,0,-1
EndSplineSet
EndChar
StartChar: question
Encoding: 63 63 34
Width: 1043
Flags: HW
Fore
523.95 254 m 1,0,-1
 479.85 0 l 1,1,-1
 297.15 0 l 1,2,-1
 341.25 254 l 1,3,-1
 523.95 254 l 1,0,-1
325.05 1407 m 1,4,5
 416.85 1464 416.85 1464 508.2 1492 c 128,-1,6
 599.55 1520 599.55 1520 694.95 1520 c 0,7,8
 839.85 1520 839.85 1520 923.55 1445 c 128,-1,9
 1007.25 1370 1007.25 1370 1007.25 1241 c 0,10,11
 1007.25 1138 1007.25 1138 959.1 1048 c 128,-1,12
 910.95 958 910.95 958 802.05 860 c 2,13,-1
 708.45 776 l 1,14,15
 632.85 710 632.85 710 607.65 663 c 128,-1,16
 582.45 616 582.45 616 566.25 524 c 1,17,-1
 543.75 401 l 1,18,-1
 372.75 401 l 1,19,-1
 400.65 555 l 1,20,21
 416.85 649 416.85 649 451.95 714.5 c 128,-1,22
 487.05 780 487.05 780 586.95 872 c 2,23,-1
 682.35 961 l 2,24,25
 757.95 1031 757.95 1031 788.55 1084 c 128,-1,26
 819.15 1137 819.15 1137 819.15 1194 c 0,27,28
 819.15 1270 819.15 1270 770.1 1313 c 128,-1,29
 721.05 1356 721.05 1356 634.65 1356 c 0,30,31
 562.65 1356 562.65 1356 474 1320.5 c 128,-1,32
 385.35 1285 385.35 1285 291.75 1219 c 1,33,-1
 325.05 1407 l 1,4,5
EndSplineSet
EndChar
StartChar: at
Encoding: 64 64 35
Width: 1946
Flags: HW
Fore
1230.95 238 m 1,0,1
 1168.85 164 1168.85 164 1096.4 126 c 128,-1,2
 1023.95 88 1023.95 88 945.65 88 c 0,3,4
 813.35 88 813.35 88 726.5 187 c 128,-1,5
 639.65 286 639.65 286 639.65 438 c 0,6,7
 639.65 658 639.65 658 773.3 822.5 c 128,-1,8
 906.95 987 906.95 987 1086.05 987 c 0,9,10
 1168.85 987 1168.85 987 1234.1 947 c 128,-1,11
 1299.35 907 1299.35 907 1334.45 836 c 1,12,-1
 1358.75 967 l 1,13,-1
 1487.45 967 l 1,14,-1
 1358.75 229 l 1,15,16
 1518.05 257 1518.05 257 1620.65 409 c 128,-1,17
 1723.25 561 1723.25 561 1723.25 770 c 0,18,19
 1723.25 1003 1723.25 1003 1574.75 1150.5 c 128,-1,20
 1426.25 1298 1426.25 1298 1190.45 1298 c 0,21,22
 1030.25 1298 1030.25 1298 880.85 1235.5 c 128,-1,23
 731.45 1173 731.45 1173 617.15 1059 c 1,24,25
 486.65 925 486.65 925 413.75 749 c 128,-1,26
 340.85 573 340.85 573 340.85 389 c 0,27,28
 340.85 128 340.85 128 497.9 -42.5 c 128,-1,29
 654.95 -213 654.95 -213 897.95 -213 c 0,30,31
 1014.05 -213 1014.05 -213 1126.55 -169.5 c 128,-1,32
 1239.05 -126 1239.05 -126 1362.35 -33 c 1,33,-1
 1436.15 -147 l 1,34,35
 1314.65 -249 1314.65 -249 1173.8 -301.5 c 128,-1,36
 1032.95 -354 1032.95 -354 884.45 -354 c 0,37,38
 594.65 -354 594.65 -354 402.5 -140 c 128,-1,39
 210.35 74 210.35 74 210.35 401 c 0,40,41
 210.35 626 210.35 626 304.4 836.5 c 128,-1,42
 398.45 1047 398.45 1047 567.65 1200 c 0,43,44
 692.75 1314 692.75 1314 854.75 1377 c 128,-1,45
 1016.75 1440 1016.75 1440 1186.85 1440 c 0,46,47
 1475.75 1440 1475.75 1440 1665.2 1251 c 128,-1,48
 1854.65 1062 1854.65 1062 1854.65 778 c 0,49,50
 1854.65 483 1854.65 483 1671.5 286.5 c 128,-1,51
 1488.35 90 1488.35 90 1203.95 84 c 1,52,-1
 1230.95 238 l 1,0,1
1087.85 846 m 0,53,54
 960.95 846 960.95 846 872.3 734.5 c 128,-1,55
 783.65 623 783.65 623 783.65 467 c 0,56,57
 783.65 355 783.65 355 834.95 292 c 128,-1,58
 886.25 229 886.25 229 977.15 229 c 0,59,60
 1104.95 229 1104.95 229 1191.35 343 c 128,-1,61
 1277.75 457 1277.75 457 1277.75 623 c 0,62,63
 1277.75 725 1277.75 725 1226 785.5 c 128,-1,64
 1174.25 846 1174.25 846 1087.85 846 c 0,53,54
EndSplineSet
EndChar
StartChar: A
Encoding: 65 65 36
Width: 1318
Flags: HW
Fore
736.15 1493 m 1,0,-1
 942.25 1493 l 1,1,-1
 1191.55 0 l 1,2,-1
 1001.65 0 l 1,3,-1
 945.85 383 l 1,4,-1
 341.05 383 l 1,5,-1
 151.15 0 l 1,6,-1
 -40.5498 0 l 1,7,-1
 736.15 1493 l 1,0,-1
801.85 1294 m 1,8,-1
 424.75 551 l 1,9,-1
 917.95 551 l 1,10,-1
 801.85 1294 l 1,8,-1
EndSplineSet
KernsSLIF: 354 -149 0 0 538 -149 0 0 7812 -36 0 0 7810 -36 0 0 7808 -36 0 0 372 -36 0 0 356 -149 0 0 8217 -272 0 0 8221 -272 0 0 87 -36 0 0 86 -102 0 0 84 -149 0 0 59 38 0 0 58 38 0 0 46 38 0 0 44 38 0 0
EndChar
StartChar: B
Encoding: 66 66 37
Width: 1331
Flags: HW
Fore
378.15 1493 m 1,0,-1
 842.55 1493 l 2,1,2
 1031.55 1493 1031.55 1493 1125.15 1415 c 128,-1,3
 1218.75 1337 1218.75 1337 1218.75 1180 c 0,4,5
 1218.75 1036 1218.75 1036 1138.2 931.5 c 128,-1,6
 1057.65 827 1057.65 827 927.15 805 c 1,7,8
 1038.75 777 1038.75 777 1094.55 698 c 128,-1,9
 1150.35 619 1150.35 619 1150.35 487 c 0,10,11
 1150.35 262 1150.35 262 1000.5 131 c 128,-1,12
 850.65 0 850.65 0 590.55 0 c 2,13,-1
 116.25 0 l 1,14,-1
 378.15 1493 l 1,0,-1
422.25 713 m 1,15,-1
 326.85 166 l 1,16,-1
 619.35 166 l 2,17,18
 784.05 166 784.05 166 873.15 250 c 128,-1,19
 962.25 334 962.25 334 962.25 487 c 0,20,21
 962.25 605 962.25 605 903.3 659 c 128,-1,22
 844.35 713 844.35 713 713.85 713 c 2,23,-1
 422.25 713 l 1,15,-1
529.35 1327 m 1,24,-1
 450.15 877 l 1,25,-1
 721.05 877 l 2,26,27
 865.95 877 865.95 877 947.4 947 c 128,-1,28
 1028.85 1017 1028.85 1017 1028.85 1141 c 0,29,30
 1028.85 1238 1028.85 1238 973.95 1282.5 c 128,-1,31
 919.05 1327 919.05 1327 798.45 1327 c 2,32,-1
 529.35 1327 l 1,24,-1
EndSplineSet
KernsSLIF: 7922 -36 0 0 562 -36 0 0 374 -36 0 0 221 -36 0 0 376 -36 0 0 89 -36 0 0 45 -36 0 0
EndChar
StartChar: C
Encoding: 67 67 38
Width: 1362
Flags: HW
Fore
1356.15 1378 m 1,0,-1
 1319.25 1165 l 1,1,2
 1232.85 1262 1232.85 1262 1136.1 1309 c 128,-1,3
 1039.35 1356 1039.35 1356 926.85 1356 c 0,4,5
 772.95 1356 772.95 1356 656.4 1274 c 128,-1,6
 539.85 1192 539.85 1192 455.25 1024 c 0,7,8
 401.25 916 401.25 916 372.9 795.5 c 128,-1,9
 344.55 675 344.55 675 344.55 553 c 0,10,11
 344.55 349 344.55 349 439.5 242 c 128,-1,12
 534.45 135 534.45 135 715.35 135 c 0,13,14
 840.45 135 840.45 135 955.65 179.5 c 128,-1,15
 1070.85 224 1070.85 224 1179.75 313 c 1,16,-1
 1137.45 74 l 1,17,18
 1030.35 23 1030.35 23 921 -3 c 128,-1,19
 811.65 -29 811.65 -29 701.85 -29 c 0,20,21
 443.55 -29 443.55 -29 298.2 127 c 128,-1,22
 152.85 283 152.85 283 152.85 561 c 0,23,24
 152.85 739 152.85 739 208.2 911 c 128,-1,25
 263.55 1083 263.55 1083 367.05 1225 c 0,26,27
 476.85 1376 476.85 1376 617.7 1448 c 128,-1,28
 758.55 1520 758.55 1520 945.75 1520 c 0,29,30
 1060.95 1520 1060.95 1520 1164 1484.5 c 128,-1,31
 1267.05 1449 1267.05 1449 1356.15 1378 c 1,0,-1
EndSplineSet
KernsSLIF: 536 38 0 0 348 38 0 0 346 38 0 0 350 38 0 0 352 38 0 0 8217 -45 0 0 8221 -45 0 0 83 38 0 0
EndChar
StartChar: D
Encoding: 68 68 39
Width: 1496
Flags: HW
Fore
388.1 1493 m 1,0,-1
 778.7 1493 l 2,1,2
 1090.1 1493 1090.1 1493 1248.95 1346.5 c 128,-1,3
 1407.8 1200 1407.8 1200 1407.8 911 c 0,4,5
 1407.8 720 1407.8 720 1347.5 543.5 c 128,-1,6
 1287.2 367 1287.2 367 1181 246 c 0,7,8
 1073.9 122 1073.9 122 909.2 61 c 128,-1,9
 744.5 0 744.5 0 519.5 0 c 2,10,-1
 126.2 0 l 1,11,-1
 388.1 1493 l 1,0,-1
541.1 1327 m 1,12,-1
 338.6 166 l 1,13,-1
 576.2 166 l 2,14,15
 881.3 166 881.3 166 1048.7 361 c 128,-1,16
 1216.1 556 1216.1 556 1216.1 911 c 0,17,18
 1216.1 1126 1216.1 1126 1108.1 1226.5 c 128,-1,19
 1000.1 1327 1000.1 1327 769.7 1327 c 2,20,-1
 541.1 1327 l 1,12,-1
EndSplineSet
EndChar
StartChar: E
Encoding: 69 69 40
Width: 1231
Flags: HW
Fore
378.65 1493 m 1,0,-1
 1228.25 1493 l 1,1,-1
 1198.55 1323 l 1,2,-1
 529.85 1323 l 1,3,-1
 452.45 881 l 1,4,-1
 1094.15 881 l 1,5,-1
 1064.45 711 l 1,6,-1
 422.75 711 l 1,7,-1
 329.15 170 l 1,8,-1
 1013.15 170 l 1,9,-1
 983.45 0 l 1,10,-1
 116.75 0 l 1,11,-1
 378.65 1493 l 1,0,-1
EndSplineSet
EndChar
StartChar: F
Encoding: 70 70 41
Width: 1123
Flags: HW
Fore
374.25 1493 m 1,0,-1
 1144.65 1493 l 1,1,-1
 1114.95 1323 l 1,2,-1
 525.45 1323 l 1,3,-1
 448.05 883 l 1,4,-1
 980.85 883 l 1,5,-1
 951.15 713 l 1,6,-1
 418.35 713 l 1,7,-1
 293.25 0 l 1,8,-1
 112.35 0 l 1,9,-1
 374.25 1493 l 1,0,-1
EndSplineSet
KernsSLIF: 367 -83 0 0 193 -120 0 0 194 -120 0 0 195 -120 0 0 192 -120 0 0 252 -83 0 0 251 -83 0 0 249 -83 0 0 250 -83 0 0 196 -120 0 0 117 -83 0 0 65 -120 0 0 59 -73 0 0 58 -73 0 0 46 -264 0 0 45 -112 0 0 44 -264 0 0
EndChar
StartChar: G
Encoding: 71 71 42
Width: 1507
Flags: HW
Fore
1085.05 223 m 1,0,-1
 1155.25 614 l 1,1,-1
 856.45 614 l 1,2,-1
 884.35 780 l 1,3,-1
 1361.35 780 l 1,4,-1
 1245.25 123 l 1,5,6
 1125.55 50 1125.55 50 984.25 10.5 c 128,-1,7
 842.95 -29 842.95 -29 699.85 -29 c 0,8,9
 446.95 -29 446.95 -29 304.3 127 c 128,-1,10
 161.65 283 161.65 283 161.65 561 c 0,11,12
 161.65 792 161.65 792 248.5 1000.5 c 128,-1,13
 335.35 1209 335.35 1209 488.35 1348 c 0,14,15
 584.65 1435 584.65 1435 698.95 1477.5 c 128,-1,16
 813.25 1520 813.25 1520 952.75 1520 c 0,17,18
 1078.75 1520 1078.75 1520 1194.4 1484.5 c 128,-1,19
 1310.05 1449 1310.05 1449 1415.35 1378 c 1,20,-1
 1378.45 1163 l 1,21,22
 1297.45 1257 1297.45 1257 1188.55 1306.5 c 128,-1,23
 1079.65 1356 1079.65 1356 956.35 1356 c 0,24,25
 813.25 1356 813.25 1356 704.35 1295.5 c 128,-1,26
 595.45 1235 595.45 1235 509.95 1108 c 0,27,28
 437.05 1000 437.05 1000 395.2 853.5 c 128,-1,29
 353.35 707 353.35 707 353.35 555 c 0,30,31
 353.35 346 353.35 346 449.65 240.5 c 128,-1,32
 545.95 135 545.95 135 736.75 135 c 0,33,34
 832.15 135 832.15 135 921.25 157.5 c 128,-1,35
 1010.35 180 1010.35 180 1085.05 223 c 1,0,-1
EndSplineSet
EndChar
StartChar: H
Encoding: 72 72 43
Width: 1463
Flags: HW
Fore
388.4 1493 m 1,0,-1
 571.1 1493 l 1,1,-1
 464 881 l 1,2,-1
 1123.7 881 l 1,3,-1
 1230.8 1493 l 1,4,-1
 1413.5 1493 l 1,5,-1
 1151.6 0 l 1,6,-1
 968.9 0 l 1,7,-1
 1094 711 l 1,8,-1
 434.3 711 l 1,9,-1
 309.2 0 l 1,10,-1
 126.5 0 l 1,11,-1
 388.4 1493 l 1,0,-1
EndSplineSet
EndChar
StartChar: I
Encoding: 73 73 44
Width: 573
Flags: HW
Fore
341.6 1493 m 1,0,-1
 524.3 1493 l 1,1,-1
 262.4 0 l 1,2,-1
 79.7002 0 l 1,3,-1
 341.6 1493 l 1,0,-1
EndSplineSet
EndChar
StartChar: J
Encoding: 74 74 45
Width: 554
Flags: HW
Fore
318.25 1493 m 1,0,-1
 500.95 1493 l 1,1,-1
 257.05 104 l 2,2,3
 209.35 -167 209.35 -167 96.4004 -288.5 c 128,-1,4
 -16.5498 -410 -16.5498 -410 -219.95 -410 c 2,5,-1
 -291.95 -410 l 1,6,-1
 -262.25 -240 l 1,7,-1
 -205.55 -240 l 2,8,9
 -84.0498 -240 -84.0498 -240 -21.0498 -163 c 128,-1,10
 41.9502 -86 41.9502 -86 75.25 104 c 2,11,-1
 318.25 1493 l 1,0,-1
EndSplineSet
EndChar
StartChar: K
Encoding: 75 75 46
Width: 1285
Flags: HW
Fore
388.1 1493 m 1,0,-1
 570.8 1493 l 1,1,-1
 460.1 864 l 1,2,-1
 1165.7 1493 l 1,3,-1
 1407.8 1493 l 1,4,-1
 609.5 780 l 1,5,-1
 1193.6 0 l 1,6,-1
 972.2 0 l 1,7,-1
 435.8 727 l 1,8,-1
 308.9 0 l 1,9,-1
 126.2 0 l 1,10,-1
 388.1 1493 l 1,0,-1
EndSplineSet
KernsSLIF: 367 -55 0 0 366 -36 0 0 283 -73 0 0 268 -55 0 0 262 -55 0 0 253 -55 0 0 217 -36 0 0 219 -36 0 0 218 -36 0 0 210 -55 0 0 212 -55 0 0 211 -55 0 0 255 -55 0 0 339 -92 0 0 338 -55 0 0 213 -55 0 0 248 -92 0 0 230 -36 0 0 216 -55 0 0 252 -55 0 0 251 -55 0 0 249 -55 0 0 250 -55 0 0 245 -73 0 0 246 -73 0 0 244 -73 0 0 242 -73 0 0 243 -73 0 0 235 -73 0 0 234 -73 0 0 232 -73 0 0 233 -73 0 0 229 -73 0 0 227 -73 0 0 228 -73 0 0 226 -73 0 0 224 -73 0 0 225 -73 0 0 220 -36 0 0 214 -55 0 0 199 -55 0 0 121 -55 0 0 117 -55 0 0 111 -73 0 0 101 -73 0 0 97 -73 0 0 85 -36 0 0 79 -55 0 0 67 -55 0 0 45 -206 0 0
EndChar
StartChar: L
Encoding: 76 76 47
Width: 1080
Flags: HW
Fore
363.25 1493 m 1,0,-1
 545.95 1493 l 1,1,-1
 315.55 168 l 1,2,-1
 969.85 168 l 1,3,-1
 940.15 0 l 1,4,-1
 103.15 0 l 1,5,-1
 363.25 1493 l 1,0,-1
EndSplineSet
KernsSLIF: 356 -139 0 0 253 -73 0 0 221 -196 0 0 210 -63 0 0 212 -63 0 0 211 -63 0 0 376 -196 0 0 255 -73 0 0 8217 -368 0 0 8216 -188 0 0 8221 -368 0 0 8220 -188 0 0 338 -63 0 0 213 -63 0 0 216 -63 0 0 214 -63 0 0 121 -73 0 0 89 -196 0 0 87 -83 0 0 86 -149 0 0 84 -139 0 0 79 -63 0 0 45 -159 0 0
EndChar
StartChar: M
Encoding: 77 77 48
Width: 1678
Flags: HW
Fore
399.75 1493 m 1,0,-1
 672.45 1493 l 1,1,-1
 829.05 487 l 1,2,-1
 1349.25 1493 l 1,3,-1
 1629.15 1493 l 1,4,-1
 1367.25 0 l 1,5,-1
 1190.85 0 l 1,6,-1
 1419.45 1309 l 1,7,-1
 892.05 287 l 1,8,-1
 714.75 287 l 1,9,-1
 543.75 1313 l 1,10,-1
 315.15 0 l 1,11,-1
 137.85 0 l 1,12,-1
 399.75 1493 l 1,0,-1
EndSplineSet
EndChar
StartChar: N
Encoding: 78 78 49
Width: 1455
Flags: HW
Fore
388 1493 m 1,0,-1
 632.8 1493 l 1,1,-1
 1003.6 213 l 1,2,-1
 1228.6 1493 l 1,3,-1
 1405.9 1493 l 1,4,-1
 1144 0 l 1,5,-1
 898.3 0 l 1,6,-1
 528.4 1288 l 1,7,-1
 303.4 0 l 1,8,-1
 126.1 0 l 1,9,-1
 388 1493 l 1,0,-1
EndSplineSet
EndChar
StartChar: O
Encoding: 79 79 50
Width: 1531
Flags: HW
Fore
921.2 1356 m 0,0,1
 771.8 1356 771.8 1356 657.5 1275.5 c 128,-1,2
 543.2 1195 543.2 1195 458.6 1030 c 0,3,4
 404.6 925 404.6 925 376.25 807 c 128,-1,5
 347.9 689 347.9 689 347.9 569 c 0,6,7
 347.9 361 347.9 361 437.45 248 c 128,-1,8
 527 135 527 135 690.8 135 c 0,9,10
 838.4 135 838.4 135 954.05 216.5 c 128,-1,11
 1069.7 298 1069.7 298 1151.6 459 c 0,12,13
 1206.5 567 1206.5 567 1235.3 685.5 c 128,-1,14
 1264.1 804 1264.1 804 1264.1 922 c 0,15,16
 1264.1 1129 1264.1 1129 1174.1 1242.5 c 128,-1,17
 1084.1 1356 1084.1 1356 921.2 1356 c 0,0,1
685.4 -29 m 0,18,19
 437.9 -29 437.9 -29 296.15 134 c 128,-1,20
 154.4 297 154.4 297 154.4 580 c 0,21,22
 154.4 742 154.4 742 209.75 911 c 128,-1,23
 265.1 1080 265.1 1080 362.3 1212 c 0,24,25
 476.6 1367 476.6 1367 617 1443.5 c 128,-1,26
 757.4 1520 757.4 1520 926.6 1520 c 0,27,28
 1173.2 1520 1173.2 1520 1315.4 1358.5 c 128,-1,29
 1457.6 1197 1457.6 1197 1457.6 918 c 0,30,31
 1457.6 746 1457.6 746 1403.6 580 c 128,-1,32
 1349.6 414 1349.6 414 1248.8 279 c 0,33,34
 1133.6 123 1133.6 123 994.55 47 c 128,-1,35
 855.5 -29 855.5 -29 685.4 -29 c 0,18,19
EndSplineSet
KernsSLIF: 88 -55 0 0 59 38 0 0 58 38 0 0 46 -83 0 0 44 -83 0 0
EndChar
StartChar: P
Encoding: 80 80 51
Width: 1175
Flags: HW
Fore
375.7 1493 m 1,0,-1
 796 1493 l 2,1,2
 979.6 1493 979.6 1493 1075.9 1398 c 128,-1,3
 1172.2 1303 1172.2 1303 1172.2 1120 c 0,4,5
 1172.2 874 1172.2 874 1030 737 c 128,-1,6
 887.8 600 887.8 600 630.4 600 c 2,7,-1
 401.8 600 l 1,8,-1
 296.5 0 l 1,9,-1
 113.8 0 l 1,10,-1
 375.7 1493 l 1,0,-1
528.7 1327 m 1,11,-1
 431.5 766 l 1,12,-1
 660.1 766 l 2,13,14
 814.9 766 814.9 766 897.7 854 c 128,-1,15
 980.5 942 980.5 942 980.5 1106 c 0,16,17
 980.5 1211 980.5 1211 924.25 1269 c 128,-1,18
 868 1327 868 1327 766.3 1327 c 2,19,-1
 528.7 1327 l 1,11,-1
EndSplineSet
KernsSLIF: 193 -102 0 0 194 -102 0 0 195 -102 0 0 192 -102 0 0 196 -102 0 0 65 -102 0 0 59 -36 0 0 58 -36 0 0 46 -282 0 0 45 -112 0 0 44 -282 0 0
EndChar
StartChar: Q
Encoding: 81 81 52
Width: 1531
Flags: HW
Fore
745.8 -27 m 1,0,1
 735.9 -28 735.9 -28 725.1 -28.5 c 128,-1,2
 714.3 -29 714.3 -29 692.7 -29 c 0,3,4
 440.7 -29 440.7 -29 298.5 131.5 c 128,-1,5
 156.3 292 156.3 292 156.3 575 c 0,6,7
 156.3 742 156.3 742 210.75 910 c 128,-1,8
 265.2 1078 265.2 1078 362.4 1212 c 0,9,10
 474.9 1366 474.9 1366 615.75 1443 c 128,-1,11
 756.6 1520 756.6 1520 926.7 1520 c 0,12,13
 1173.3 1520 1173.3 1520 1315.5 1358.5 c 128,-1,14
 1457.7 1197 1457.7 1197 1457.7 918 c 0,15,16
 1457.7 617 1457.7 617 1309.2 367 c 128,-1,17
 1160.7 117 1160.7 117 921.3 14 c 1,18,-1
 1104 -264 l 1,19,-1
 900.6 -264 l 1,20,-1
 745.8 -27 l 1,0,1
921.3 1356 m 0,21,22
 771.9 1356 771.9 1356 657.6 1275.5 c 128,-1,23
 543.3 1195 543.3 1195 458.7 1030 c 0,24,25
 404.7 925 404.7 925 376.35 807 c 128,-1,26
 348 689 348 689 348 569 c 0,27,28
 348 361 348 361 437.55 248 c 128,-1,29
 527.1 135 527.1 135 690.9 135 c 0,30,31
 838.5 135 838.5 135 954.15 216.5 c 128,-1,32
 1069.8 298 1069.8 298 1151.7 459 c 0,33,34
 1206.6 567 1206.6 567 1235.4 685.5 c 128,-1,35
 1264.2 804 1264.2 804 1264.2 922 c 0,36,37
 1264.2 1129 1264.2 1129 1174.2 1242.5 c 128,-1,38
 1084.2 1356 1084.2 1356 921.3 1356 c 0,21,22
EndSplineSet
KernsSLIF: 45 38 0 0
EndChar
StartChar: R
Encoding: 82 82 53
Width: 1344
Flags: HW
Fore
528.6 1327 m 1,0,-1
 436.8 797 l 1,1,-1
 670.8 797 l 2,2,3
 808.5 797 808.5 797 893.55 881.5 c 128,-1,4
 978.6 966 978.6 966 978.6 1102 c 0,5,6
 978.6 1211 978.6 1211 921.45 1269 c 128,-1,7
 864.3 1327 864.3 1327 757.2 1327 c 2,8,-1
 528.6 1327 l 1,0,-1
862.5 717 m 1,9,10
 920.1 702 920.1 702 958.35 643 c 128,-1,11
 996.6 584 996.6 584 1047 408 c 1,12,-1
 1161.3 0 l 1,13,-1
 969.6 0 l 1,14,-1
 864.3 383 l 2,15,16
 823.8 531 823.8 531 770.7 581 c 128,-1,17
 717.6 631 717.6 631 607.8 631 c 2,18,-1
 407.1 631 l 1,19,-1
 296.4 0 l 1,20,-1
 113.7 0 l 1,21,-1
 375.6 1493 l 1,22,-1
 785.1 1493 l 2,23,24
 971.4 1493 971.4 1493 1070.85 1399.5 c 128,-1,25
 1170.3 1306 1170.3 1306 1170.3 1130 c 0,26,27
 1170.3 974 1170.3 974 1085.7 860 c 128,-1,28
 1001.1 746 1001.1 746 862.5 717 c 1,9,10
EndSplineSet
EndChar
StartChar: S
Encoding: 83 83 54
Width: 1232
Flags: HW
Fore
1173.85 1444 m 1,0,-1
 1138.75 1247 l 1,1,2
 1047.85 1301 1047.85 1301 958.3 1328.5 c 128,-1,3
 868.75 1356 868.75 1356 785.05 1356 c 0,4,5
 622.15 1356 622.15 1356 525.85 1277 c 128,-1,6
 429.55 1198 429.55 1198 429.55 1067 c 0,7,8
 429.55 995 429.55 995 465.1 956.5 c 128,-1,9
 500.65 918 500.65 918 648.25 874 c 1,10,-1
 757.15 844 l 2,11,12
 941.65 791 941.65 791 1013.65 709.5 c 128,-1,13
 1085.65 628 1085.65 628 1085.65 481 c 0,14,15
 1085.65 255 1085.65 255 925.9 113 c 128,-1,16
 766.15 -29 766.15 -29 505.15 -29 c 0,17,18
 398.05 -29 398.05 -29 290.05 -5.5 c 128,-1,19
 182.05 18 182.05 18 73.1504 66 c 1,20,-1
 110.05 274 l 1,21,22
 209.95 205 209.95 205 310.3 170 c 128,-1,23
 410.65 135 410.65 135 510.55 135 c 0,24,25
 680.65 135 680.65 135 783.25 219 c 128,-1,26
 885.85 303 885.85 303 885.85 438 c 0,27,28
 885.85 528 885.85 528 844.9 574.5 c 128,-1,29
 803.95 621 803.95 621 668.95 659 c 2,30,-1
 560.05 690 l 2,31,32
 373.75 744 373.75 744 305.8 814.5 c 128,-1,33
 237.85 885 237.85 885 237.85 1012 c 0,34,35
 237.85 1235 237.85 1235 392.2 1377.5 c 128,-1,36
 546.55 1520 546.55 1520 794.05 1520 c 0,37,38
 890.35 1520 890.35 1520 984.85 1501 c 128,-1,39
 1079.35 1482 1079.35 1482 1173.85 1444 c 1,0,-1
EndSplineSet
KernsSLIF: 350 -73 0 0 352 -73 0 0 83 -73 0 0
EndChar
StartChar: T
Encoding: 84 84 55
Width: 1199
Flags: HW
Fore
182.5 1493 m 1,0,-1
 1319.2 1493 l 1,1,-1
 1290.4 1323 l 1,2,-1
 810.7 1323 l 1,3,-1
 580.3 0 l 1,4,-1
 397.6 0 l 1,5,-1
 628 1323 l 1,6,-1
 152.8 1323 l 1,7,-1
 182.5 1493 l 1,0,-1
EndSplineSet
KernsSLIF: 252 -206 0 0 229 -215 0 0 230 -253 0 0 59 -188 0 0 242 -253 0 0 45 -292 0 0 46 -243 0 0 367 -206 0 0 245 -253 0 0 235 -253 0 0 249 -206 0 0 58 -188 0 0 224 -215 0 0 195 -188 0 0 234 -253 0 0 231 -253 0 0 341 -159 0 0 232 -253 0 0 196 -188 0 0 193 -188 0 0 269 -253 0 0 251 -206 0 0 253 -178 0 0 227 -215 0 0 194 -188 0 0 248 -253 0 0 244 -253 0 0 353 -243 0 0 65 -188 0 0 283 -253 0 0 351 -243 0 0 228 -215 0 0 119 -167 0 0 246 -253 0 0 250 -206 0 0 263 -253 0 0 225 -215 0 0 345 -159 0 0 226 -215 0 0 233 -253 0 0 97 -215 0 0 99 -253 0 0 101 -253 0 0 339 -253 0 0 255 -178 0 0 111 -253 0 0 115 -243 0 0 114 -159 0 0 117 -206 0 0 192 -188 0 0 121 -178 0 0 44 -243 0 0 243 -253 0 0
EndChar
StartChar: U
Encoding: 85 85 56
Width: 1428
Flags: HW
Fore
364.25 1493 m 1,0,-1
 546.95 1493 l 1,1,-1
 388.55 586 l 1,2,3
 378.65 525 378.65 525 374.6 485.5 c 128,-1,4
 370.55 446 370.55 446 370.55 416 c 0,5,6
 370.55 278 370.55 278 439.85 206.5 c 128,-1,7
 509.15 135 509.15 135 643.25 135 c 0,8,9
 816.95 135 816.95 135 913.7 241 c 128,-1,10
 1010.45 347 1010.45 347 1051.85 586 c 1,11,-1
 1210.25 1493 l 1,12,-1
 1392.95 1493 l 1,13,-1
 1230.95 561 l 1,14,15
 1177.85 259 1177.85 259 1029.35 115 c 128,-1,16
 880.85 -29 880.85 -29 622.55 -29 c 0,17,18
 420.95 -29 420.95 -29 303.5 83.5 c 128,-1,19
 186.05 196 186.05 196 186.05 389 c 0,20,21
 186.05 424 186.05 424 190.55 467.5 c 128,-1,22
 195.05 511 195.05 511 204.05 561 c 1,23,-1
 364.25 1493 l 1,0,-1
EndSplineSet
EndChar
StartChar: V
Encoding: 86 86 57
Width: 1344
Flags: HW
Fore
463.8 0 m 1,0,-1
 228 1493 l 1,1,-1
 406.2 1493 l 1,2,-1
 601.5 209 l 1,3,-1
 1254 1493 l 1,4,-1
 1452 1493 l 1,5,-1
 675.3 0 l 1,6,-1
 463.8 0 l 1,0,-1
EndSplineSet
KernsSLIF: 367 -36 0 0 283 -120 0 0 193 -139 0 0 194 -139 0 0 339 -120 0 0 195 -139 0 0 192 -139 0 0 248 -120 0 0 230 -149 0 0 252 -36 0 0 251 -36 0 0 249 -36 0 0 250 -36 0 0 245 -120 0 0 246 -120 0 0 244 -120 0 0 242 -120 0 0 243 -120 0 0 235 -120 0 0 234 -120 0 0 232 -120 0 0 233 -120 0 0 229 -131 0 0 227 -131 0 0 228 -131 0 0 226 -131 0 0 224 -131 0 0 225 -131 0 0 196 -139 0 0 117 -36 0 0 111 -120 0 0 101 -120 0 0 97 -131 0 0 65 -139 0 0 59 -55 0 0 58 -55 0 0 46 -235 0 0 45 -178 0 0 44 -235 0 0
EndChar
StartChar: W
Encoding: 87 87 58
Width: 1936
Flags: HW
Fore
291.6 1493 m 1,0,-1
 468 1493 l 1,1,-1
 532.8 223 l 1,2,-1
 1039.5 1493 l 1,3,-1
 1242 1493 l 1,4,-1
 1308.6 223 l 1,5,-1
 1809.9 1493 l 1,6,-1
 1994.4 1493 l 1,7,-1
 1396.8 0 l 1,8,-1
 1168.2 0 l 1,9,-1
 1106.1 1245 l 1,10,-1
 603 0 l 1,11,-1
 374.4 0 l 1,12,-1
 291.6 1493 l 1,0,-1
EndSplineSet
KernsSLIF: 229 -112 0 0 230 -112 0 0 45 -159 0 0 46 -167 0 0 44 -167 0 0 224 -112 0 0 195 -102 0 0 341 -36 0 0 8221 -36 0 0 196 -102 0 0 193 -102 0 0 8217 -36 0 0 227 -112 0 0 194 -102 0 0 65 -102 0 0 228 -112 0 0 225 -112 0 0 345 -36 0 0 226 -112 0 0 97 -112 0 0 114 -36 0 0 192 -102 0 0
EndChar
StartChar: X
Encoding: 88 88 59
Width: 1330
Flags: HW
Fore
320.5 1493 m 1,0,-1
 504.1 1493 l 1,1,-1
 734.5 954 l 1,2,-1
 1151.2 1493 l 1,3,-1
 1363.6 1493 l 1,4,-1
 810.1 780 l 1,5,-1
 1144 0 l 1,6,-1
 961.3 0 l 1,7,-1
 690.4 629 l 1,8,-1
 199.9 0 l 1,9,-1
 -11.5996 0 l 1,10,-1
 616.6 803 l 1,11,-1
 320.5 1493 l 1,0,-1
EndSplineSet
KernsSLIF: 268 -36 0 0 262 -36 0 0 210 -73 0 0 212 -73 0 0 211 -73 0 0 338 -55 0 0 213 -73 0 0 216 -36 0 0 214 -73 0 0 199 -36 0 0 79 -73 0 0 67 -36 0 0 45 -188 0 0
EndChar
StartChar: Y
Encoding: 89 89 60
Width: 1201
Flags: HW
Fore
191.75 1493 m 1,0,-1
 387.05 1493 l 1,1,-1
 638.15 879 l 1,2,-1
 1116.95 1493 l 1,3,-1
 1321.25 1493 l 1,4,-1
 711.95 711 l 1,5,-1
 587.75 0 l 1,6,-1
 405.95 0 l 1,7,-1
 529.25 711 l 1,8,-1
 191.75 1493 l 1,0,-1
EndSplineSet
KernsSLIF: 367 -188 0 0 283 -225 0 0 268 -36 0 0 262 -36 0 0 210 -36 0 0 212 -36 0 0 211 -36 0 0 193 -159 0 0 194 -159 0 0 8216 -45 0 0 8220 -45 0 0 339 -225 0 0 338 -36 0 0 213 -36 0 0 195 -159 0 0 192 -159 0 0 248 -225 0 0 230 -188 0 0 216 -36 0 0 252 -188 0 0 251 -188 0 0 249 -188 0 0 250 -188 0 0 245 -225 0 0 246 -225 0 0 244 -225 0 0 242 -225 0 0 243 -225 0 0 235 -225 0 0 234 -225 0 0 232 -225 0 0 233 -225 0 0 229 -188 0 0 227 -188 0 0 228 -188 0 0 226 -188 0 0 224 -188 0 0 225 -188 0 0 214 -36 0 0 199 -36 0 0 196 -159 0 0 117 -188 0 0 111 -225 0 0 105 -36 0 0 101 -225 0 0 97 -188 0 0 79 -36 0 0 67 -36 0 0 65 -159 0 0 59 -178 0 0 58 -178 0 0 46 -264 0 0 45 -282 0 0 44 -264 0 0
EndChar
StartChar: Z
Encoding: 90 90 61
Width: 1332
Flags: HW
Fore
310.95 1493 m 1,0,-1
 1365.75 1493 l 1,1,-1
 1339.65 1339 l 1,2,-1
 298.35 170 l 1,3,-1
 1155.15 170 l 1,4,-1
 1126.35 0 l 1,5,-1
 29.25 0 l 1,6,-1
 55.3496 154 l 1,7,-1
 1096.65 1323 l 1,8,-1
 282.15 1323 l 1,9,-1
 310.95 1493 l 1,0,-1
EndSplineSet
KernsSLIF: 45 -102 0 0
EndChar
StartChar: bracketleft
Encoding: 91 91 62
Width: 766
Flags: HW
Fore
439.5 1556 m 1,0,-1
 821.1 1556 l 1,1,-1
 795 1413 l 1,2,-1
 579.9 1413 l 1,3,-1
 310.8 -127 l 1,4,-1
 525.9 -127 l 1,5,-1
 502.5 -270 l 1,6,-1
 120.9 -270 l 1,7,-1
 439.5 1556 l 1,0,-1
EndSplineSet
EndChar
StartChar: backslash
Encoding: 92 92 63
Width: 656
Flags: HW
Fore
345.15 1493 m 1,0,-1
 518.85 -190 l 1,1,-1
 367.65 -190 l 1,2,-1
 192.15 1493 l 1,3,-1
 345.15 1493 l 1,0,-1
EndSplineSet
EndChar
StartChar: bracketright
Encoding: 93 93 64
Width: 750
Flags: HW
Fore
661.1 1556 m 1,0,-1
 342.5 -270 l 1,1,-1
 -39.0996 -270 l 1,2,-1
 -14.7998 -127 l 1,3,-1
 200.3 -127 l 1,4,-1
 469.4 1413 l 1,5,-1
 256.1 1413 l 1,6,-1
 279.5 1556 l 1,7,-1
 661.1 1556 l 1,0,-1
EndSplineSet
EndChar
StartChar: asciicircum
Encoding: 94 94 65
Width: 1630
Flags: HW
Fore
946.2 1493 m 1,0,-1
 1434.9 936 l 1,1,-1
 1254 936 l 1,2,-1
 858 1331 l 1,3,-1
 462 936 l 1,4,-1
 281.1 936 l 1,5,-1
 769.8 1493 l 1,6,-1
 946.2 1493 l 1,0,-1
EndSplineSet
EndChar
StartChar: underscore
Encoding: 95 95 66
Width: 972
Flags: HW
Fore
990.8 -340 m 1,0,-1
 990.8 -483 l 1,1,-1
 33.2002 -483 l 1,2,-1
 33.2002 -340 l 1,3,-1
 990.8 -340 l 1,0,-1
EndSplineSet
EndChar
StartChar: grave
Encoding: 96 96 67
Width: 980
Flags: HW
Fore
586.6 1638 m 1,0,-1
 774.7 1264 l 1,1,-1
 636.1 1264 l 1,2,-1
 409.3 1638 l 1,3,-1
 586.6 1638 l 1,0,-1
EndSplineSet
EndChar
StartChar: a
Encoding: 97 97 68
Width: 1189
Flags: HW
Fore
1050.2 639 m 1,0,-1
 937.7 0 l 1,1,-1
 772.1 0 l 1,2,-1
 802.7 170 l 1,3,4
 729.8 70 729.8 70 636.65 20.5 c 128,-1,5
 543.5 -29 543.5 -29 429.2 -29 c 0,6,7
 300.5 -29 300.5 -29 218.15 58.5 c 128,-1,8
 135.8 146 135.8 146 135.8 283 c 0,9,10
 135.8 479 135.8 479 276.65 593 c 128,-1,11
 417.5 707 417.5 707 665 707 c 2,12,-1
 895.4 707 l 1,13,-1
 904.4 756 l 1,14,15
 906.2 764 906.2 764 907.1 773.5 c 128,-1,16
 908 783 908 783 908 803 c 0,17,18
 908 892 908 892 842.75 941.5 c 128,-1,19
 777.5 991 777.5 991 659.6 991 c 0,20,21
 578.6 991 578.6 991 493.55 968 c 128,-1,22
 408.5 945 408.5 945 318.5 899 c 1,23,-1
 347.3 1069 l 1,24,25
 440.9 1108 440.9 1108 530.45 1127.5 c 128,-1,26
 620 1147 620 1147 703.7 1147 c 0,27,28
 881.9 1147 881.9 1147 975.05 1061 c 128,-1,29
 1068.2 975 1068.2 975 1068.2 811 c 0,30,31
 1068.2 778 1068.2 778 1063.7 733.5 c 128,-1,32
 1059.2 689 1059.2 689 1050.2 639 c 1,0,-1
871.1 563 m 1,33,-1
 705.5 563 l 2,34,35
 502.1 563 502.1 563 404.45 502.5 c 128,-1,36
 306.8 442 306.8 442 306.8 315 c 0,37,38
 306.8 227 306.8 227 356.75 177 c 128,-1,39
 406.7 127 406.7 127 494.9 127 c 0,40,41
 629.9 127 629.9 127 730.7 234.5 c 128,-1,42
 831.5 342 831.5 342 863.9 522 c 2,43,-1
 871.1 563 l 1,33,-1
EndSplineSet
EndChar
StartChar: b
Encoding: 98 98 69
Width: 1233
Flags: HW
Fore
976.4 684 m 0,0,1
 976.4 829 976.4 829 916.55 911 c 128,-1,2
 856.7 993 856.7 993 751.4 993 c 0,3,4
 674.9 993 674.9 993 607.85 951.5 c 128,-1,5
 540.8 910 540.8 910 491.3 831 c 0,6,7
 439.1 748 439.1 748 408.95 638.5 c 128,-1,8
 378.8 529 378.8 529 378.8 420 c 0,9,10
 378.8 282 378.8 282 437.75 203.5 c 128,-1,11
 496.7 125 496.7 125 600.2 125 c 0,12,13
 678.5 125 678.5 125 745.1 165.5 c 128,-1,14
 811.7 206 811.7 206 862.1 285 c 0,15,16
 913.4 367 913.4 367 944.9 476 c 128,-1,17
 976.4 585 976.4 585 976.4 684 c 0,0,1
461.6 950 m 1,18,19
 522.8 1042 522.8 1042 615.05 1094.5 c 128,-1,20
 707.3 1147 707.3 1147 808.1 1147 c 0,21,22
 962.9 1147 962.9 1147 1054.25 1031 c 128,-1,23
 1145.6 915 1145.6 915 1145.6 717 c 0,24,25
 1145.6 555 1145.6 555 1092.05 403 c 128,-1,26
 1038.5 251 1038.5 251 939.5 133 c 0,27,28
 874.7 55 874.7 55 790.1 13 c 128,-1,29
 705.5 -29 705.5 -29 612.8 -29 c 0,30,31
 514.7 -29 514.7 -29 442.7 21 c 128,-1,32
 370.7 71 370.7 71 325.7 170 c 1,33,-1
 296 0 l 1,34,-1
 130.4 0 l 1,35,-1
 403.1 1556 l 1,36,-1
 568.7 1556 l 1,37,-1
 461.6 950 l 1,18,19
EndSplineSet
EndChar
StartChar: c
Encoding: 99 99 70
Width: 1073
Flags: HW
Fore
1047.8 1077 m 1,0,-1
 1014.5 895 l 1,1,2
 955.1 943 955.1 943 888.05 967 c 128,-1,3
 821 991 821 991 749 991 c 0,4,5
 669.8 991 669.8 991 598.25 960 c 128,-1,6
 526.7 929 526.7 929 478.1 872 c 1,7,8
 400.7 785 400.7 785 358.4 668 c 128,-1,9
 316.1 551 316.1 551 316.1 426 c 0,10,11
 316.1 275 316.1 275 384.05 201 c 128,-1,12
 452 127 452 127 590.6 127 c 0,13,14
 659 127 659 127 735.95 150 c 128,-1,15
 812.9 173 812.9 173 896.6 219 c 1,16,-1
 865.1 37 l 1,17,18
 793.1 4 793.1 4 717.05 -12.5 c 128,-1,19
 641 -29 641 -29 560.9 -29 c 0,20,21
 360.2 -29 360.2 -29 252.2 82.5 c 128,-1,22
 144.2 194 144.2 194 144.2 401 c 0,23,24
 144.2 575 144.2 575 200.45 721.5 c 128,-1,25
 256.7 868 256.7 868 367.4 985 c 0,26,27
 443 1065 443 1065 544.7 1106 c 128,-1,28
 646.4 1147 646.4 1147 767 1147 c 0,29,30
 837.2 1147 837.2 1147 906.5 1129.5 c 128,-1,31
 975.8 1112 975.8 1112 1047.8 1077 c 1,0,-1
EndSplineSet
EndChar
StartChar: d
Encoding: 100 100 71
Width: 1240
Flags: HW
Fore
840.55 168 m 1,0,1
 773.95 71 773.95 71 683.05 21 c 128,-1,2
 592.15 -29 592.15 -29 481.45 -29 c 0,3,4
 330.25 -29 330.25 -29 242.5 85.5 c 128,-1,5
 154.75 200 154.75 200 154.75 399 c 0,6,7
 154.75 565 154.75 565 207.85 715.5 c 128,-1,8
 260.95 866 260.95 866 361.75 985 c 0,9,10
 428.35 1064 428.35 1064 512.05 1105.5 c 128,-1,11
 595.75 1147 595.75 1147 687.55 1147 c 0,12,13
 784.75 1147 784.75 1147 859 1095 c 128,-1,14
 933.25 1043 933.25 1043 973.75 946 c 1,15,-1
 1081.75 1556 l 1,16,-1
 1248.25 1556 l 1,17,-1
 975.55 0 l 1,18,-1
 809.05 0 l 1,19,-1
 840.55 168 l 1,0,1
326.65 432 m 0,20,21
 326.65 287 326.65 287 385.6 206 c 128,-1,22
 444.55 125 444.55 125 548.95 125 c 0,23,24
 626.35 125 626.35 125 692.5 166.5 c 128,-1,25
 758.65 208 758.65 208 809.05 289 c 0,26,27
 862.15 373 862.15 373 892.75 483 c 128,-1,28
 923.35 593 923.35 593 923.35 700 c 0,29,30
 923.35 839 923.35 839 864.4 917 c 128,-1,31
 805.45 995 805.45 995 701.95 995 c 0,32,33
 623.65 995 623.65 995 556.15 954 c 128,-1,34
 488.65 913 488.65 913 440.95 836 c 0,35,36
 388.75 753 388.75 753 357.7 643 c 128,-1,37
 326.65 533 326.65 533 326.65 432 c 0,20,21
EndSplineSet
EndChar
StartChar: e
Encoding: 101 101 72
Width: 1197
Flags: HW
Fore
949.65 660 m 1,0,1
 952.35 676 952.35 676 953.7 693 c 128,-1,2
 955.05 710 955.05 710 955.05 727 c 0,3,4
 955.05 849 955.05 849 890.7 920 c 128,-1,5
 826.35 991 826.35 991 715.65 991 c 0,6,7
 592.35 991 592.35 991 497.85 904.5 c 128,-1,8
 403.35 818 403.35 818 354.75 659 c 1,9,-1
 949.65 660 l 1,0,1
1093.65 516 m 1,10,-1
 323.25 516 l 1,11,12
 317.85 478 317.85 478 316.05 456 c 128,-1,13
 314.25 434 314.25 434 314.25 418 c 0,14,15
 314.25 279 314.25 279 391.2 203 c 128,-1,16
 468.15 127 468.15 127 608.55 127 c 0,17,18
 716.55 127 716.55 127 812.85 154 c 128,-1,19
 909.15 181 909.15 181 991.95 233 c 1,20,-1
 960.45 51 l 1,21,22
 871.35 11 871.35 11 776.4 -9 c 128,-1,23
 681.45 -29 681.45 -29 583.35 -29 c 0,24,25
 373.65 -29 373.65 -29 260.7 82.5 c 128,-1,26
 147.75 194 147.75 194 147.75 399 c 0,27,28
 147.75 574 147.75 574 204 724.5 c 128,-1,29
 260.25 875 260.25 875 369.15 993 c 1,30,31
 439.35 1067 439.35 1067 536.1 1107 c 128,-1,32
 632.85 1147 632.85 1147 741.75 1147 c 0,33,34
 912.75 1147 912.75 1147 1014 1033 c 128,-1,35
 1115.25 919 1115.25 919 1115.25 727 c 0,36,37
 1115.25 681 1115.25 681 1109.85 628.5 c 128,-1,38
 1104.45 576 1104.45 576 1093.65 516 c 1,10,-1
EndSplineSet
EndChar
StartChar: f
Encoding: 102 102 73
Width: 704
Flags: HW
Fore
937 1556 m 1,0,-1
 910.9 1403 l 1,1,-1
 752.5 1403 l 2,2,3
 662.5 1403 662.5 1403 621.55 1363.5 c 128,-1,4
 580.6 1324 580.6 1324 560.8 1219 c 1,5,-1
 542.8 1120 l 1,6,-1
 815.5 1120 l 1,7,-1
 791.2 977 l 1,8,-1
 518.5 977 l 1,9,-1
 347.5 0 l 1,10,-1
 181 0 l 1,11,-1
 352.9 977 l 1,12,-1
 194.5 977 l 1,13,-1
 217.9 1120 l 1,14,-1
 376.3 1120 l 1,15,-1
 389.8 1198 l 2,16,17
 424 1396 424 1396 509.95 1476 c 128,-1,18
 595.9 1556 595.9 1556 780.4 1556 c 2,19,-1
 937 1556 l 1,0,-1
EndSplineSet
KernsSLIF: 8217 94 0 0 8216 141 0 0 8221 94 0 0 8220 141 0 0 46 -36 0 0 45 -36 0 0 44 -36 0 0
EndChar
StartChar: g
Encoding: 103 103 74
Width: 1234
Flags: HW
Fore
1163.25 1120 m 1,0,-1
 991.35 139 l 1,1,2
 941.85 -146 941.85 -146 801.9 -286 c 128,-1,3
 661.95 -426 661.95 -426 425.25 -426 c 0,4,5
 337.95 -426 337.95 -426 263.25 -411.5 c 128,-1,6
 188.55 -397 188.55 -397 123.75 -367 c 1,7,-1
 154.35 -188 l 1,8,9
 215.55 -232 215.55 -232 283.95 -253 c 128,-1,10
 352.35 -274 352.35 -274 429.75 -274 c 0,11,12
 587.25 -274 587.25 -274 688.5 -178.5 c 128,-1,13
 789.75 -83 789.75 -83 822.15 96 c 1,14,-1
 836.55 180 l 1,15,16
 767.25 92 767.25 92 675.45 46 c 128,-1,17
 583.65 0 583.65 0 477.45 0 c 0,18,19
 324.45 0 324.45 0 236.7 112.5 c 128,-1,20
 148.95 225 148.95 225 148.95 422 c 0,21,22
 148.95 577 148.95 577 202.05 725.5 c 128,-1,23
 255.15 874 255.15 874 351.45 989 c 0,24,25
 415.35 1065 415.35 1065 500.4 1106 c 128,-1,26
 585.45 1147 585.45 1147 678.15 1147 c 0,27,28
 779.85 1147 779.85 1147 855.45 1094.5 c 128,-1,29
 931.05 1042 931.05 1042 967.95 946 c 1,30,-1
 996.75 1120 l 1,31,-1
 1163.25 1120 l 1,0,-1
913.95 709 m 0,32,33
 913.95 845 913.95 845 856.35 919 c 128,-1,34
 798.75 993 798.75 993 692.55 993 c 0,35,36
 626.85 993 626.85 993 567.45 964 c 128,-1,37
 508.05 935 508.05 935 465.75 883 c 0,38,39
 397.35 797 397.35 797 359.1 680.5 c 128,-1,40
 320.85 564 320.85 564 320.85 440 c 0,41,42
 320.85 302 320.85 302 378.9 228 c 128,-1,43
 436.95 154 436.95 154 545.85 154 c 0,44,45
 703.35 154 703.35 154 808.65 312.5 c 128,-1,46
 913.95 471 913.95 471 913.95 709 c 0,32,33
EndSplineSet
EndChar
StartChar: h
Encoding: 104 104 75
Width: 1229
Flags: HW
Fore
1088.45 676 m 1,0,-1
 970.55 0 l 1,1,-1
 804.05 0 l 1,2,-1
 921.95 669 l 2,3,4
 930.05 716 930.05 716 934.55 752 c 128,-1,5
 939.05 788 939.05 788 939.05 809 c 0,6,7
 939.05 893 939.05 893 891.35 940 c 128,-1,8
 843.65 987 843.65 987 758.15 987 c 0,9,10
 624.95 987 624.95 987 527.3 887 c 128,-1,11
 429.65 787 429.65 787 400.85 621 c 1,12,-1
 291.95 0 l 1,13,-1
 126.35 0 l 1,14,-1
 399.05 1556 l 1,15,-1
 564.65 1556 l 1,16,-1
 457.55 944 l 1,17,18
 520.55 1038 520.55 1038 618.65 1092.5 c 128,-1,19
 716.75 1147 716.75 1147 824.75 1147 c 0,20,21
 957.95 1147 957.95 1147 1031.3 1067 c 128,-1,22
 1104.65 987 1104.65 987 1104.65 842 c 0,23,24
 1104.65 806 1104.65 806 1100.6 765 c 128,-1,25
 1096.55 724 1096.55 724 1088.45 676 c 1,0,-1
EndSplineSet
EndChar
StartChar: i
Encoding: 105 105 76
Width: 543
Flags: HW
Fore
369.05 1556 m 1,0,-1
 534.65 1556 l 1,1,-1
 494.15 1323 l 1,2,-1
 328.55 1323 l 1,3,-1
 369.05 1556 l 1,0,-1
293.45 1120 m 1,4,-1
 459.05 1120 l 1,5,-1
 261.95 0 l 1,6,-1
 96.3496 0 l 1,7,-1
 293.45 1120 l 1,4,-1
EndSplineSet
EndChar
StartChar: j
Encoding: 106 106 77
Width: 528
Flags: HW
Fore
284.1 1120 m 1,0,-1
 449.7 1120 l 1,1,-1
 250.8 -20 l 1,2,-1
 249.9 -25 l 2,3,4
 216.6 -216 216.6 -216 173.4 -287 c 0,5,6
 132.9 -354 132.9 -354 55.0498 -390 c 128,-1,7
 -22.7998 -426 -22.7998 -426 -129 -426 c 2,8,-1
 -191.1 -426 l 1,9,-1
 -164.1 -270 l 1,10,-1
 -121.8 -270 l 2,11,12
 -24.5996 -270 -24.5996 -270 16.3496 -225 c 128,-1,13
 57.2998 -180 57.2998 -180 85.2002 -20 c 2,14,-1
 284.1 1120 l 1,0,-1
361.5 1556 m 1,15,-1
 527.1 1556 l 1,16,-1
 486.6 1323 l 1,17,-1
 321 1323 l 1,18,-1
 361.5 1556 l 1,15,-1
EndSplineSet
EndChar
StartChar: k
Encoding: 107 107 78
Width: 1133
Flags: HW
Fore
403.75 1556 m 1,0,-1
 569.35 1556 l 1,1,-1
 410.95 649 l 1,2,-1
 978.85 1120 l 1,3,-1
 1193.95 1120 l 1,4,-1
 560.35 584 l 1,5,-1
 1022.95 0 l 1,6,-1
 822.25 0 l 1,7,-1
 392.05 547 l 1,8,-1
 296.65 0 l 1,9,-1
 131.05 0 l 1,10,-1
 403.75 1556 l 1,0,-1
EndSplineSet
EndChar
StartChar: l
Encoding: 108 108 79
Width: 543
Flags: HW
Fore
369.05 1556 m 1,0,-1
 534.65 1556 l 1,1,-1
 261.95 0 l 1,2,-1
 96.3496 0 l 1,3,-1
 369.05 1556 l 1,0,-1
EndSplineSet
EndChar
StartChar: m
Encoding: 109 109 80
Width: 1891
Flags: HW
Fore
1751.45 676 m 2,0,-1
 1633.55 0 l 1,1,-1
 1467.95 0 l 1,2,-1
 1584.05 670 l 1,3,4
 1591.25 713 1591.25 713 1594.85 744 c 128,-1,5
 1598.45 775 1598.45 775 1598.45 797 c 0,6,7
 1598.45 887 1598.45 887 1553.45 937 c 128,-1,8
 1508.45 987 1508.45 987 1427.45 987 c 0,9,10
 1306.85 987 1306.85 987 1212.35 886.5 c 128,-1,11
 1117.85 786 1117.85 786 1089.95 625 c 1,12,-1
 979.25 0 l 1,13,-1
 813.65 0 l 1,14,-1
 931.55 670 l 1,15,16
 938.75 707 938.75 707 942.35 738.5 c 128,-1,17
 945.95 770 945.95 770 945.95 795 c 0,18,19
 945.95 886 945.95 886 900.95 936.5 c 128,-1,20
 855.95 987 855.95 987 776.75 987 c 0,21,22
 654.35 987 654.35 987 559.85 886.5 c 128,-1,23
 465.35 786 465.35 786 437.45 625 c 1,24,-1
 326.75 0 l 1,25,-1
 161.15 0 l 1,26,-1
 358.25 1120 l 1,27,-1
 523.85 1120 l 1,28,-1
 492.35 946 l 1,29,30
 559.85 1044 559.85 1044 650.3 1095.5 c 128,-1,31
 740.75 1147 740.75 1147 844.25 1147 c 0,32,33
 954.05 1147 954.05 1147 1024.7 1083 c 128,-1,34
 1095.35 1019 1095.35 1019 1109.75 905 c 1,35,36
 1185.35 1023 1185.35 1023 1284.8 1085 c 128,-1,37
 1384.25 1147 1384.25 1147 1494.95 1147 c 0,38,39
 1624.55 1147 1624.55 1147 1695.2 1064 c 128,-1,40
 1765.85 981 1765.85 981 1765.85 829 c 0,41,42
 1765.85 796 1765.85 796 1762.25 756.5 c 128,-1,43
 1758.65 717 1758.65 717 1751.45 676 c 2,0,-1
EndSplineSet
EndChar
StartChar: n
Encoding: 110 110 81
Width: 1229
Flags: HW
Fore
1088.45 676 m 1,0,-1
 970.55 0 l 1,1,-1
 804.05 0 l 1,2,-1
 921.95 669 l 2,3,4
 930.05 716 930.05 716 934.55 752 c 128,-1,5
 939.05 788 939.05 788 939.05 809 c 0,6,7
 939.05 893 939.05 893 891.35 940 c 128,-1,8
 843.65 987 843.65 987 758.15 987 c 0,9,10
 624.95 987 624.95 987 528.65 888.5 c 128,-1,11
 432.35 790 432.35 790 402.65 621 c 1,12,-1
 291.95 0 l 1,13,-1
 126.35 0 l 1,14,-1
 321.65 1120 l 1,15,-1
 487.25 1120 l 1,16,-1
 453.95 944 l 1,17,18
 523.25 1041 523.25 1041 620.45 1094 c 128,-1,19
 717.65 1147 717.65 1147 824.75 1147 c 0,20,21
 957.95 1147 957.95 1147 1031.3 1067 c 128,-1,22
 1104.65 987 1104.65 987 1104.65 842 c 0,23,24
 1104.65 806 1104.65 806 1100.6 765 c 128,-1,25
 1096.55 724 1096.55 724 1088.45 676 c 1,0,-1
EndSplineSet
EndChar
StartChar: o
Encoding: 111 111 82
Width: 1190
Flags: HW
Fore
530.65 -29 m 0,0,1
 353.35 -29 353.35 -29 250.3 92.5 c 128,-1,2
 147.25 214 147.25 214 147.25 424 c 0,3,4
 147.25 546 147.25 546 182.8 672.5 c 128,-1,5
 218.35 799 218.35 799 275.05 885 c 0,6,7
 364.15 1019 364.15 1019 473.95 1083 c 128,-1,8
 583.75 1147 583.75 1147 722.35 1147 c 0,9,10
 894.25 1147 894.25 1147 1000 1028 c 128,-1,11
 1105.75 909 1105.75 909 1105.75 717 c 0,12,13
 1105.75 584 1105.75 584 1070.65 452 c 128,-1,14
 1035.55 320 1035.55 320 978.85 233 c 0,15,16
 890.65 99 890.65 99 780.85 35 c 128,-1,17
 671.05 -29 671.05 -29 530.65 -29 c 0,0,1
319.15 430 m 0,18,19
 319.15 278 319.15 278 376.3 202.5 c 128,-1,20
 433.45 127 433.45 127 549.55 127 c 0,21,22
 716.05 127 716.05 127 825.4 288.5 c 128,-1,23
 934.75 450 934.75 450 934.75 698 c 0,24,25
 934.75 843 934.75 843 876.25 917 c 128,-1,26
 817.75 991 817.75 991 704.35 991 c 0,27,28
 610.75 991 610.75 991 537.85 942.5 c 128,-1,29
 464.95 894 464.95 894 407.35 795 c 0,30,31
 365.05 721 365.05 721 342.1 626 c 128,-1,32
 319.15 531 319.15 531 319.15 430 c 0,18,19
EndSplineSet
EndChar
StartChar: p
Encoding: 112 112 83
Width: 1230
Flags: HW
Fore
974.4 690 m 0,0,1
 974.4 837 974.4 837 916.8 915 c 128,-1,2
 859.2 993 859.2 993 751.2 993 c 0,3,4
 677.4 993 677.4 993 610.35 951 c 128,-1,5
 543.3 909 543.3 909 491.1 829 c 0,6,7
 439.8 750 439.8 750 409.2 638 c 128,-1,8
 378.6 526 378.6 526 378.6 416 c 0,9,10
 378.6 276 378.6 276 436.2 200.5 c 128,-1,11
 493.8 125 493.8 125 600 125 c 0,12,13
 678.3 125 678.3 125 745.35 166 c 128,-1,14
 812.4 207 812.4 207 860.1 285 c 0,15,16
 911.4 367 911.4 367 942.9 478 c 128,-1,17
 974.4 589 974.4 589 974.4 690 c 0,0,1
461.4 950 m 1,18,19
 528 1047 528 1047 618.45 1097 c 128,-1,20
 708.9 1147 708.9 1147 819.6 1147 c 0,21,22
 974.4 1147 974.4 1147 1059.9 1034.5 c 128,-1,23
 1145.4 922 1145.4 922 1145.4 719 c 0,24,25
 1145.4 553 1145.4 553 1092.3 402.5 c 128,-1,26
 1039.2 252 1039.2 252 939.3 133 c 0,27,28
 872.7 54 872.7 54 789 12.5 c 128,-1,29
 705.3 -29 705.3 -29 612.6 -29 c 0,30,31
 505.5 -29 505.5 -29 432.6 20.5 c 128,-1,32
 359.7 70 359.7 70 323.7 168 c 1,33,-1
 220.2 -426 l 1,34,-1
 54.5996 -426 l 1,35,-1
 325.5 1120 l 1,36,-1
 491.1 1120 l 1,37,-1
 461.4 950 l 1,18,19
EndSplineSet
EndChar
StartChar: q
Encoding: 113 113 84
Width: 1235
Flags: HW
Fore
834.45 168 m 1,0,1
 767.85 71 767.85 71 677.4 21 c 128,-1,2
 586.95 -29 586.95 -29 477.15 -29 c 0,3,4
 324.15 -29 324.15 -29 237.3 85.5 c 128,-1,5
 150.45 200 150.45 200 150.45 401 c 0,6,7
 150.45 563 150.45 563 204 714 c 128,-1,8
 257.55 865 257.55 865 357.45 985 c 0,9,10
 422.25 1063 422.25 1063 506.4 1105 c 128,-1,11
 590.55 1147 590.55 1147 683.25 1147 c 0,12,13
 794.85 1147 794.85 1147 866.85 1098 c 128,-1,14
 938.85 1049 938.85 1049 971.25 950 c 1,15,-1
 1000.05 1118 l 1,16,-1
 1166.55 1118 l 1,17,-1
 897.45 -422 l 1,18,-1
 730.95 -422 l 1,19,-1
 834.45 168 l 1,0,1
322.35 428 m 0,20,21
 322.35 280 322.35 280 378.15 202.5 c 128,-1,22
 433.95 125 433.95 125 539.25 125 c 0,23,24
 695.85 125 695.85 125 806.55 291.5 c 128,-1,25
 917.25 458 917.25 458 917.25 696 c 0,26,27
 917.25 840 917.25 840 860.1 916.5 c 128,-1,28
 802.95 993 802.95 993 695.85 993 c 0,29,30
 617.55 993 617.55 993 550.95 952.5 c 128,-1,31
 484.35 912 484.35 912 434.85 834 c 0,32,33
 382.65 752 382.65 752 352.5 642 c 128,-1,34
 322.35 532 322.35 532 322.35 428 c 0,20,21
EndSplineSet
EndChar
StartChar: r
Encoding: 114 114 85
Width: 808
Flags: HW
Fore
872.7 950 m 1,0,1
 847.5 965 847.5 965 815.1 973 c 128,-1,2
 782.7 981 782.7 981 745.8 981 c 0,3,4
 613.5 981 613.5 981 514.5 869.5 c 128,-1,5
 415.5 758 415.5 758 383.1 571 c 1,6,-1
 281.4 0 l 1,7,-1
 115.8 0 l 1,8,-1
 312.9 1120 l 1,9,-1
 478.5 1120 l 1,10,-1
 447 946 l 1,11,12
 512.7 1043 512.7 1043 604.05 1095 c 128,-1,13
 695.4 1147 695.4 1147 798.9 1147 c 0,14,15
 825.9 1147 825.9 1147 852 1143.5 c 128,-1,16
 878.1 1140 878.1 1140 904.2 1132 c 1,17,-1
 872.7 950 l 1,0,1
EndSplineSet
KernsSLIF: 46 -188 0 0 45 -112 0 0 44 -188 0 0
EndChar
StartChar: s
Encoding: 115 115 86
Width: 1012
Flags: HW
Fore
973.95 1087 m 1,0,-1
 942.45 913 l 1,1,2
 876.75 953 876.75 953 803.85 973 c 128,-1,3
 730.95 993 730.95 993 653.55 993 c 0,4,5
 523.05 993 523.05 993 447.9 943.5 c 128,-1,6
 372.75 894 372.75 894 372.75 809 c 0,7,8
 372.75 710 372.75 710 547.35 657 c 0,9,10
 560.85 653 560.85 653 567.15 651 c 2,11,-1
 620.25 633 l 1,12,13
 785.85 582 785.85 582 841.2 526 c 128,-1,14
 896.55 470 896.55 470 896.55 373 c 0,15,16
 896.55 195 896.55 195 769.2 83 c 128,-1,17
 641.85 -29 641.85 -29 435.75 -29 c 0,18,19
 355.65 -29 355.65 -29 267.45 -12 c 128,-1,20
 179.25 5 179.25 5 73.0498 41 c 1,21,-1
 105.45 231 l 1,22,23
 196.35 179 196.35 179 284.55 152 c 128,-1,24
 372.75 125 372.75 125 453.75 125 c 0,25,26
 575.25 125 575.25 125 651.3 183 c 128,-1,27
 727.35 241 727.35 241 727.35 330 c 0,28,29
 727.35 426 727.35 426 527.55 485 c 2,30,-1
 510.45 490 l 1,31,-1
 453.75 506 l 2,32,33
 327.75 543 327.75 543 269.25 603.5 c 128,-1,34
 210.75 664 210.75 664 210.75 758 c 0,35,36
 210.75 937 210.75 937 331.8 1042 c 128,-1,37
 452.85 1147 452.85 1147 660.75 1147 c 0,38,39
 742.65 1147 742.65 1147 820.5 1132 c 128,-1,40
 898.35 1117 898.35 1117 973.95 1087 c 1,0,-1
EndSplineSet
EndChar
StartChar: t
Encoding: 116 116 87
Width: 772
Flags: HW
Fore
829.25 1120 m 1,0,-1
 804.05 977 l 1,1,-1
 473.75 977 l 1,2,-1
 366.65 369 l 1,3,4
 361.25 335 361.25 335 358.55 312 c 128,-1,5
 355.85 289 355.85 289 355.85 276 c 0,6,7
 355.85 212 355.85 212 390.5 183 c 128,-1,8
 425.15 154 425.15 154 501.65 154 c 2,9,-1
 669.05 154 l 1,10,-1
 641.15 0 l 1,11,-1
 482.75 0 l 2,12,13
 335.15 0 335.15 0 262.7 64 c 128,-1,14
 190.25 128 190.25 128 190.25 258 c 0,15,16
 190.25 281 190.25 281 192.95 308.5 c 128,-1,17
 195.65 336 195.65 336 201.05 369 c 1,18,-1
 308.15 977 l 1,19,-1
 167.75 977 l 1,20,-1
 193.85 1120 l 1,21,-1
 331.55 1120 l 1,22,-1
 387.35 1438 l 1,23,-1
 552.95 1438 l 1,24,-1
 498.05 1120 l 1,25,-1
 829.25 1120 l 1,0,-1
EndSplineSet
EndChar
StartChar: u
Encoding: 117 117 88
Width: 1234
Flags: HW
Fore
189.45 444 m 1,0,-1
 307.35 1120 l 1,1,-1
 473.85 1120 l 1,2,-1
 355.95 451 l 1,3,4
 346.95 402 346.95 402 342.9 367 c 128,-1,5
 338.85 332 338.85 332 338.85 309 c 0,6,7
 338.85 224 338.85 224 385.65 177.5 c 128,-1,8
 432.45 131 432.45 131 517.95 131 c 0,9,10
 651.15 131 651.15 131 748.35 231 c 128,-1,11
 845.55 331 845.55 331 875.25 500 c 1,12,-1
 985.95 1120 l 1,13,-1
 1151.55 1120 l 1,14,-1
 956.25 0 l 1,15,-1
 790.65 0 l 1,16,-1
 823.95 176 l 1,17,18
 753.75 78 753.75 78 657 24.5 c 128,-1,19
 560.25 -29 560.25 -29 451.35 -29 c 0,20,21
 319.05 -29 319.05 -29 245.25 51.5 c 128,-1,22
 171.45 132 171.45 132 171.45 276 c 0,23,24
 171.45 306 171.45 306 175.95 351 c 128,-1,25
 180.45 396 180.45 396 189.45 444 c 1,0,-1
EndSplineSet
EndChar
StartChar: v
Encoding: 118 118 89
Width: 1160
Flags: HW
Fore
201.5 1120 m 1,0,-1
 377 1120 l 1,1,-1
 524.6 168 l 1,2,-1
 1007 1120 l 1,3,-1
 1182.5 1120 l 1,4,-1
 609.2 0 l 1,5,-1
 386 0 l 1,6,-1
 201.5 1120 l 1,0,-1
EndSplineSet
KernsSLIF: 46 -167 0 0 44 -167 0 0
EndChar
StartChar: w
Encoding: 119 119 90
Width: 1600
Flags: HW
Fore
249.15 1120 m 1,0,-1
 412.95 1120 l 1,1,-1
 455.25 219 l 1,2,-1
 831.45 1120 l 1,3,-1
 1023.15 1120 l 1,4,-1
 1078.95 219 l 1,5,-1
 1436.25 1120 l 1,6,-1
 1601.85 1120 l 1,7,-1
 1141.05 0 l 1,8,-1
 947.55 0 l 1,9,-1
 898.05 928 l 1,10,-1
 512.85 0 l 1,11,-1
 317.55 0 l 1,12,-1
 249.15 1120 l 1,0,-1
EndSplineSet
KernsSLIF: 46 -131 0 0 44 -131 0 0
EndChar
StartChar: x
Encoding: 120 120 91
Width: 1149
Flags: HW
Fore
1164.9 1120 m 1,0,-1
 702.3 571 l 1,1,-1
 985.8 0 l 1,2,-1
 795.9 0 l 1,3,-1
 582.6 444 l 1,4,-1
 211.8 0 l 1,5,-1
 11.0996 0 l 1,6,-1
 507 590 l 1,7,-1
 243.3 1120 l 1,8,-1
 433.2 1120 l 1,9,-1
 626.7 715 l 1,10,-1
 964.2 1120 l 1,11,-1
 1164.9 1120 l 1,0,-1
EndSplineSet
EndChar
StartChar: y
Encoding: 121 121 92
Width: 1150
Flags: HW
Fore
516.4 -104 m 2,0,1
 401.2 -319 401.2 -319 328.75 -372.5 c 128,-1,2
 256.3 -426 256.3 -426 143.8 -426 c 2,3,-1
 13.2998 -426 l 1,4,-1
 41.2002 -272 l 1,5,-1
 136.6 -272 l 2,6,7
 205.9 -272 205.9 -272 254.5 -230 c 128,-1,8
 303.1 -188 303.1 -188 363.4 -66 c 1,9,-1
 414.7 41 l 1,10,-1
 191.5 1120 l 1,11,-1
 367 1120 l 1,12,-1
 534.4 262 l 1,13,-1
 997 1120 l 1,14,-1
 1170.7 1120 l 1,15,-1
 516.4 -104 l 2,0,1
EndSplineSet
KernsSLIF: 46 -159 0 0 45 -73 0 0 44 -159 0 0
EndChar
StartChar: z
Encoding: 122 122 93
Width: 1022
Flags: HW
Fore
269.5 1120 m 1,0,-1
 1056.1 1120 l 1,1,-1
 1026.4 952 l 1,2,-1
 267.7 147 l 1,3,-1
 894.1 147 l 1,4,-1
 868 0 l 1,5,-1
 49.9004 0 l 1,6,-1
 79.5996 168 l 1,7,-1
 838.3 973 l 1,8,-1
 243.4 973 l 1,9,-1
 269.5 1120 l 1,0,-1
EndSplineSet
EndChar
StartChar: braceleft
Encoding: 123 123 94
Width: 1247
Flags: HW
Fore
1189.45 1556 m 1,0,-1
 1163.35 1413 l 1,1,-1
 1094.05 1413 l 2,2,3
 971.65 1413 971.65 1413 929.35 1373.5 c 128,-1,4
 887.05 1334 887.05 1334 859.15 1184 c 1,5,-1
 813.25 932 l 1,6,7
 784.45 772 784.45 772 730 699.5 c 128,-1,8
 675.55 627 675.55 627 575.65 606 c 1,9,10
 641.35 588 641.35 588 677.8 536.5 c 128,-1,11
 714.25 485 714.25 485 714.25 410 c 0,12,13
 714.25 386 714.25 386 710.65 353 c 128,-1,14
 707.05 320 707.05 320 700.75 282 c 1,15,-1
 658.45 38 l 1,16,17
 653.95 7 653.95 7 651.7 -19.5 c 128,-1,18
 649.45 -46 649.45 -46 649.45 -70 c 0,19,20
 649.45 -133 649.45 -133 687.7 -161.5 c 128,-1,21
 725.95 -190 725.95 -190 813.25 -190 c 2,22,-1
 883.45 -190 l 1,23,-1
 857.35 -334 l 1,24,-1
 793.45 -334 l 2,25,26
 624.25 -334 624.25 -334 551.35 -279.5 c 128,-1,27
 478.45 -225 478.45 -225 478.45 -102 c 0,28,29
 478.45 -70 478.45 -70 481.6 -36 c 128,-1,30
 484.75 -2 484.75 -2 491.05 35 c 2,31,-1
 531.55 270 l 1,32,33
 531.55 273 531.55 273 533.35 282 c 0,34,35
 542.35 332 542.35 332 542.35 377 c 0,36,37
 542.35 462 542.35 462 498.25 499.5 c 128,-1,38
 454.15 537 454.15 537 352.45 537 c 2,39,-1
 297.55 537 l 1,40,-1
 322.75 684 l 1,41,-1
 378.55 684 l 2,42,43
 508.15 684 508.15 684 565.3 738.5 c 128,-1,44
 622.45 793 622.45 793 651.25 944 c 1,45,-1
 693.55 1188 l 1,46,47
 716.95 1311 716.95 1311 748.9 1382.5 c 128,-1,48
 780.85 1454 780.85 1454 830.35 1493 c 0,49,50
 871.75 1527 871.75 1527 933.85 1541.5 c 128,-1,51
 995.95 1556 995.95 1556 1115.65 1556 c 2,52,-1
 1189.45 1556 l 1,0,-1
EndSplineSet
EndChar
StartChar: bar
Encoding: 124 124 95
Width: 655
Flags: HW
Fore
421.5 1565 m 1,0,-1
 421.5 -483 l 1,1,-1
 268.5 -483 l 1,2,-1
 268.5 1565 l 1,3,-1
 421.5 1565 l 1,0,-1
EndSplineSet
EndChar
StartChar: braceright
Encoding: 125 125 96
Width: 1223
Flags: HW
Fore
63.5996 -334 m 1,0,-1
 89.7002 -190 l 1,1,-1
 159.9 -190 l 2,2,3
 282.3 -190 282.3 -190 324.6 -150.5 c 128,-1,4
 366.9 -111 366.9 -111 393.9 39 c 1,5,-1
 439.8 291 l 1,6,7
 469.5 451 469.5 451 523.5 523.5 c 128,-1,8
 577.5 596 577.5 596 677.4 616 c 1,9,10
 611.7 635 611.7 635 575.7 686 c 128,-1,11
 539.7 737 539.7 737 539.7 813 c 0,12,13
 539.7 838 539.7 838 542.85 870 c 128,-1,14
 546 902 546 902 552.3 940 c 1,15,-1
 594.6 1183 l 1,16,17
 600 1217 600 1217 601.8 1242 c 128,-1,18
 603.6 1267 603.6 1267 603.6 1292 c 0,19,20
 603.6 1356 603.6 1356 565.35 1384.5 c 128,-1,21
 527.1 1413 527.1 1413 439.8 1413 c 2,22,-1
 369.6 1413 l 1,23,-1
 393.9 1556 l 1,24,-1
 460.5 1556 l 2,25,26
 628.8 1556 628.8 1556 702.15 1502 c 128,-1,27
 775.5 1448 775.5 1448 775.5 1325 c 0,28,29
 775.5 1294 775.5 1294 772.35 1260 c 128,-1,30
 769.2 1226 769.2 1226 762 1187 c 1,31,-1
 721.5 952 l 1,32,33
 721.5 949 721.5 949 719.7 940 c 0,34,35
 710.7 891 710.7 891 710.7 846 c 0,36,37
 710.7 760 710.7 760 754.8 723 c 128,-1,38
 798.9 686 798.9 686 900.6 686 c 2,39,-1
 956.4 686 l 1,40,-1
 930.3 539 l 1,41,-1
 874.5 539 l 2,42,43
 744.9 539 744.9 539 688.2 484 c 128,-1,44
 631.5 429 631.5 429 605.4 279 c 1,45,-1
 557.7 35 l 1,46,47
 534.3 -91 534.3 -91 502.8 -161.5 c 128,-1,48
 471.3 -232 471.3 -232 423.6 -270 c 0,49,50
 381.3 -304 381.3 -304 319.2 -319 c 128,-1,51
 257.1 -334 257.1 -334 137.4 -334 c 2,52,-1
 63.5996 -334 l 1,0,-1
EndSplineSet
EndChar
StartChar: asciitilde
Encoding: 126 126 97
Width: 1630
Flags: HW
Fore
1434.9 817 m 1,0,-1
 1434.9 639 l 1,1,2
 1340.4 560 1340.4 560 1259.85 526 c 128,-1,3
 1179.3 492 1179.3 492 1092 492 c 0,4,5
 993 492 993 492 861.6 551 c 0,6,7
 851.7 555 851.7 555 847.2 557 c 0,8,9
 840.9 560 840.9 560 827.4 565 c 0,10,11
 687.9 627 687.9 627 603.3 627 c 0,12,13
 524.1 627 524.1 627 446.7 588.5 c 128,-1,14
 369.3 550 369.3 550 281.1 467 c 1,15,-1
 281.1 645 l 1,16,17
 375.6 724 375.6 724 456.15 758.5 c 128,-1,18
 536.7 793 536.7 793 624 793 c 0,19,20
 723 793 723 793 855.3 733 c 0,21,22
 864.3 729 864.3 729 868.8 727 c 0,23,24
 876 724 876 724 888.6 719 c 0,25,26
 1028.1 657 1028.1 657 1112.7 657 c 0,27,28
 1190.1 657 1190.1 657 1266.15 695 c 128,-1,29
 1342.2 733 1342.2 733 1434.9 817 c 1,0,-1
EndSplineSet
EndChar
StartChar: exclamdown
Encoding: 161 161 163
Width: 781
Flags: HW
Fore
381.4 0 m 1,0,-1
 198.7 0 l 1,1,-1
 313 655 l 1,2,-1
 394 1012 l 1,3,-1
 539.8 1012 l 1,4,-1
 495.7 655 l 1,5,-1
 381.4 0 l 1,0,-1
596.5 1239 m 1,6,-1
 414.7 1239 l 1,7,-1
 458.8 1493 l 1,8,-1
 643.3 1493 l 1,9,-1
 596.5 1239 l 1,6,-1
EndSplineSet
EndChar
StartChar: cent
Encoding: 162 162 132
Width: 1237
Flags: HW
Fore
747.45 985 m 1,0,1
 587.25 962 587.25 962 479.25 801.5 c 128,-1,2
 371.25 641 371.25 641 371.25 426 c 0,3,4
 371.25 292 371.25 292 426.15 218.5 c 128,-1,5
 481.05 145 481.05 145 596.25 125 c 1,6,-1
 747.45 985 l 1,0,1
865.35 1145 m 1,7,8
 931.05 1138 931.05 1138 989.1 1121.5 c 128,-1,9
 1047.15 1105 1047.15 1105 1102.95 1077 c 1,10,-1
 1071.45 895 l 1,11,12
 1029.15 932 1029.15 932 973.35 954.5 c 128,-1,13
 917.55 977 917.55 977 837.45 989 c 1,14,-1
 686.25 127 l 1,15,16
 745.65 132 745.65 132 812.25 154.5 c 128,-1,17
 878.85 177 878.85 177 953.55 219 c 1,18,-1
 922.05 37 l 1,19,20
 863.55 9 863.55 9 797.85 -7.5 c 128,-1,21
 732.15 -24 732.15 -24 662.85 -29 c 1,22,-1
 608.85 -313 l 1,23,-1
 518.85 -313 l 1,24,-1
 571.95 -29 l 1,25,26
 394.65 -16 394.65 -16 298.35 95.5 c 128,-1,27
 202.05 207 202.05 207 202.05 401 c 0,28,29
 202.05 707 202.05 707 361.35 914.5 c 128,-1,30
 520.65 1122 520.65 1122 774.45 1145 c 1,31,-1
 824.85 1430 l 1,32,-1
 914.85 1430 l 1,33,-1
 865.35 1145 l 1,7,8
EndSplineSet
EndChar
StartChar: sterling
Encoding: 163 163 133
Width: 1240
Flags: HW
Fore
1242.2 1460 m 1,0,-1
 1210.7 1278 l 1,1,2
 1155.8 1318 1155.8 1318 1096.85 1339 c 128,-1,3
 1037.9 1360 1037.9 1360 980.3 1360 c 0,4,5
 848 1360 848 1360 781.4 1280.5 c 128,-1,6
 714.8 1201 714.8 1201 677.9 993 c 1,7,-1
 641 778 l 1,8,-1
 992.9 778 l 1,9,-1
 966.8 635 l 1,10,-1
 614.9 635 l 1,11,-1
 533.9 170 l 1,12,-1
 1017.2 170 l 1,13,-1
 987.5 0 l 1,14,-1
 111.8 0 l 1,15,-1
 141.5 170 l 1,16,-1
 353 170 l 1,17,-1
 434.9 635 l 1,18,-1
 255.8 635 l 1,19,-1
 281.9 778 l 1,20,-1
 460.1 778 l 1,21,-1
 500.6 1016 l 1,22,23
 547.4 1278 547.4 1278 664.85 1399 c 128,-1,24
 782.3 1520 782.3 1520 991.1 1520 c 0,25,26
 1054.1 1520 1054.1 1520 1117.1 1505 c 128,-1,27
 1180.1 1490 1180.1 1490 1242.2 1460 c 1,0,-1
EndSplineSet
EndChar
StartChar: currency
Encoding: 164 164 189
Width: 1238
Flags: HW
Fore
867.2 993 m 1,0,-1
 1053.5 1202 l 1,1,-1
 1156.1 1087 l 1,2,-1
 970.7 881 l 1,3,4
 1004 822 1004 822 1020.2 762.5 c 128,-1,5
 1036.4 703 1036.4 703 1036.4 641 c 0,6,7
 1036.4 578 1036.4 578 1019.3 520.5 c 128,-1,8
 1002.2 463 1002.2 463 966.2 406 c 1,9,-1
 1154.3 199 l 1,10,-1
 1051.7 86 l 1,11,-1
 865.4 293 l 1,12,13
 812.3 253 812.3 253 760.1 234 c 128,-1,14
 707.9 215 707.9 215 653 215 c 0,15,16
 600.8 215 600.8 215 546.8 233.5 c 128,-1,17
 492.8 252 492.8 252 437.9 289 c 1,18,-1
 251.6 82 l 1,19,-1
 149.9 197 l 1,20,-1
 336.2 403 l 1,21,22
 302.9 465 302.9 465 286.25 524 c 128,-1,23
 269.6 583 269.6 583 269.6 641 c 0,24,25
 269.6 705 269.6 705 286.7 763 c 128,-1,26
 303.8 821 303.8 821 338 877 c 1,27,-1
 151.7 1083 l 1,28,-1
 255.2 1198 l 1,29,-1
 441.5 991 l 1,30,31
 491 1030 491 1030 543.2 1048.5 c 128,-1,32
 595.4 1067 595.4 1067 653 1067 c 0,33,34
 707 1067 707 1067 759.65 1049 c 128,-1,35
 812.3 1031 812.3 1031 867.2 993 c 1,0,-1
895.1 643 m 0,36,37
 895.1 755 895.1 755 825.35 832 c 128,-1,38
 755.6 909 755.6 909 653 909 c 0,39,40
 552.2 909 552.2 909 481.1 832 c 128,-1,41
 410 755 410 755 410 643 c 0,42,43
 410 529 410 529 480.65 451 c 128,-1,44
 551.3 373 551.3 373 653 373 c 0,45,46
 754.7 373 754.7 373 824.9 451.5 c 128,-1,47
 895.1 530 895.1 530 895.1 643 c 0,36,37
EndSplineSet
EndChar
StartChar: yen
Encoding: 165 165 150
Width: 1246
Flags: HW
Fore
1083.3 455 m 1,0,-1
 713.4 455 l 1,1,-1
 634.2 0 l 1,2,-1
 451.5 0 l 1,3,-1
 530.7 455 l 1,4,-1
 156.3 455 l 1,5,-1
 177 578 l 1,6,-1
 552.3 578 l 1,7,-1
 562.2 629 l 1,8,-1
 513.6 784 l 1,9,-1
 213.9 784 l 1,10,-1
 235.5 907 l 1,11,-1
 474.9 907 l 1,12,-1
 291.3 1493 l 1,13,-1
 462.3 1493 l 1,14,-1
 678.3 793 l 1,15,-1
 1139.1 1493 l 1,16,-1
 1313.7 1493 l 1,17,-1
 926.7 907 l 1,18,-1
 1162.5 907 l 1,19,-1
 1140.9 784 l 1,20,-1
 845.7 784 l 1,21,-1
 744 629 l 1,22,-1
 735 578 l 1,23,-1
 1104 578 l 1,24,-1
 1083.3 455 l 1,0,-1
EndSplineSet
EndChar
StartChar: brokenbar
Encoding: 166 166 231
Width: 655
Flags: HW
Fore
421.5 408 m 1,0,-1
 421.5 -350 l 1,1,-1
 268.5 -350 l 1,2,-1
 268.5 408 l 1,3,-1
 421.5 408 l 1,0,-1
421.5 1432 m 1,4,-1
 421.5 674 l 1,5,-1
 268.5 674 l 1,6,-1
 268.5 1432 l 1,7,-1
 421.5 1432 l 1,4,-1
EndSplineSet
EndChar
StartChar: section
Encoding: 167 167 134
Width: 972
Flags: HW
Fore
592.7 410 m 1,0,1
 666.5 459 666.5 459 705.2 514.5 c 128,-1,2
 743.9 570 743.9 570 743.9 627 c 0,3,4
 743.9 681 743.9 681 695.75 737.5 c 128,-1,5
 647.6 794 647.6 794 518.9 885 c 2,6,-1
 446.9 936 l 1,7,8
 374 885 374 885 335.75 829 c 128,-1,9
 297.5 773 297.5 773 297.5 717 c 0,10,11
 297.5 667 297.5 667 335.75 618.5 c 128,-1,12
 374 570 374 570 487.4 487 c 2,13,-1
 592.7 410 l 1,0,1
944.6 1462 m 1,14,-1
 915.8 1298 l 1,15,16
 851 1337 851 1337 789.35 1356.5 c 128,-1,17
 727.7 1376 727.7 1376 675.5 1376 c 0,18,19
 582.8 1376 582.8 1376 523.4 1327.5 c 128,-1,20
 464 1279 464 1279 464 1206 c 0,21,22
 464 1127 464 1127 585.5 1037 c 0,23,24
 612.5 1017 612.5 1017 627.8 1006 c 2,25,-1
 707 946 l 2,26,27
 816.8 861 816.8 861 855.05 802.5 c 128,-1,28
 893.3 744 893.3 744 893.3 674 c 0,29,30
 893.3 573 893.3 573 833.9 483 c 128,-1,31
 774.5 393 774.5 393 671.9 340 c 1,32,33
 708.8 305 708.8 305 727.25 260 c 128,-1,34
 745.7 215 745.7 215 745.7 160 c 0,35,36
 745.7 3 745.7 3 636.35 -96 c 128,-1,37
 527 -195 527 -195 347.9 -195 c 0,38,39
 285.8 -195 285.8 -195 216.5 -180.5 c 128,-1,40
 147.2 -166 147.2 -166 73.4004 -137 c 1,41,-1
 102.2 27 l 1,42,43
 170.6 -11 170.6 -11 235.4 -31 c 128,-1,44
 300.2 -51 300.2 -51 353.3 -51 c 0,45,46
 454.1 -51 454.1 -51 514.4 -3.5 c 128,-1,47
 574.7 44 574.7 44 574.7 123 c 0,48,49
 574.7 221 574.7 221 412.7 342 c 2,50,-1
 399.2 352 l 1,51,-1
 330.8 403 l 2,52,53
 220.1 487 220.1 487 183.2 543.5 c 128,-1,54
 146.3 600 146.3 600 146.3 674 c 0,55,56
 146.3 770 146.3 770 203.9 856.5 c 128,-1,57
 261.5 943 261.5 943 367.7 1006 c 1,58,59
 329 1044 329 1044 311.45 1084.5 c 128,-1,60
 293.9 1125 293.9 1125 293.9 1176 c 0,61,62
 293.9 1323 293.9 1323 403.25 1421.5 c 128,-1,63
 512.6 1520 512.6 1520 680.9 1520 c 0,64,65
 744.8 1520 744.8 1520 810.05 1505.5 c 128,-1,66
 875.3 1491 875.3 1491 944.6 1462 c 1,14,-1
EndSplineSet
EndChar
StartChar: dieresis
Encoding: 168 168 142
Width: 990
Flags: HW
Fore
443.75 1552 m 1,0,-1
 628.25 1552 l 1,1,-1
 591.35 1350 l 1,2,-1
 408.65 1350 l 1,3,-1
 443.75 1552 l 1,0,-1
795.65 1552 m 1,4,-1
 978.35 1552 l 1,5,-1
 943.25 1350 l 1,6,-1
 760.55 1350 l 1,7,-1
 795.65 1552 l 1,4,-1
EndSplineSet
Ligature: 0 1 'liga' space uni0308
EndChar
StartChar: copyright
Encoding: 169 169 139
Width: 1945
Flags: HW
Fore
1024 1485 m 0,0,1
 1160.8 1485 1160.8 1485 1279.15 1430 c 128,-1,2
 1397.5 1375 1397.5 1375 1495.6 1266 c 0,3,4
 1593.7 1157 1593.7 1157 1642.3 1026 c 128,-1,5
 1690.9 895 1690.9 895 1690.9 741 c 0,6,7
 1690.9 589 1690.9 589 1642.3 458.5 c 128,-1,8
 1593.7 328 1593.7 328 1495.6 219 c 0,9,10
 1397.5 110 1397.5 110 1279.15 55 c 128,-1,11
 1160.8 0 1160.8 0 1024 0 c 0,12,13
 887.2 0 887.2 0 768.85 55 c 128,-1,14
 650.5 110 650.5 110 552.4 219 c 0,15,16
 454.3 328 454.3 328 405.7 458.5 c 128,-1,17
 357.1 589 357.1 589 357.1 741 c 0,18,19
 357.1 895 357.1 895 405.7 1026 c 128,-1,20
 454.3 1157 454.3 1157 552.4 1266 c 0,21,22
 650.5 1375 650.5 1375 768.85 1430 c 128,-1,23
 887.2 1485 887.2 1485 1024 1485 c 0,0,1
1024 1382 m 0,24,25
 906.1 1382 906.1 1382 804.4 1335 c 128,-1,26
 702.7 1288 702.7 1288 618.1 1194 c 0,27,28
 533.5 1100 533.5 1100 490.3 985.5 c 128,-1,29
 447.1 871 447.1 871 447.1 741 c 0,30,31
 447.1 612 447.1 612 490.3 498.5 c 128,-1,32
 533.5 385 533.5 385 618.1 291 c 0,33,34
 702.7 197 702.7 197 804.4 149.5 c 128,-1,35
 906.1 102 906.1 102 1024 102 c 0,36,37
 1142.8 102 1142.8 102 1244.95 149.5 c 128,-1,38
 1347.1 197 1347.1 197 1431.7 291 c 0,39,40
 1515.4 384 1515.4 384 1557.25 497 c 128,-1,41
 1599.1 610 1599.1 610 1599.1 741 c 0,42,43
 1599.1 874 1599.1 874 1556.8 987.5 c 128,-1,44
 1514.5 1101 1514.5 1101 1431.7 1194 c 0,45,46
 1347.1 1288 1347.1 1288 1244.95 1335 c 128,-1,47
 1142.8 1382 1142.8 1382 1024 1382 c 0,24,25
1293.1 1137 m 1,48,-1
 1293.1 1008 l 1,49,50
 1233.7 1041 1233.7 1041 1175.2 1057 c 128,-1,51
 1116.7 1073 1116.7 1073 1057.3 1073 c 0,52,53
 923.2 1073 923.2 1073 848.05 985.5 c 128,-1,54
 772.9 898 772.9 898 772.9 741 c 0,55,56
 772.9 582 772.9 582 849.85 495 c 128,-1,57
 926.8 408 926.8 408 1066.3 408 c 0,58,59
 1123.9 408 1123.9 408 1178.8 423.5 c 128,-1,60
 1233.7 439 1233.7 439 1293.1 473 c 1,61,-1
 1293.1 346 l 1,62,63
 1232.8 317 1232.8 317 1171.15 303 c 128,-1,64
 1109.5 289 1109.5 289 1046.5 289 c 0,65,66
 852.1 289 852.1 289 739.15 411 c 128,-1,67
 626.2 533 626.2 533 626.2 741 c 0,68,69
 626.2 950 626.2 950 739.15 1071 c 128,-1,70
 852.1 1192 852.1 1192 1046.5 1192 c 0,71,72
 1112.2 1192 1112.2 1192 1173.4 1178 c 128,-1,73
 1234.6 1164 1234.6 1164 1293.1 1137 c 1,48,-1
EndSplineSet
EndChar
StartChar: ordfeminine
Encoding: 170 170 157
Width: 918
Flags: HW
Fore
584.35 1104 m 2,0,1
 443.05 1104 443.05 1104 379.15 1066.5 c 128,-1,2
 315.25 1029 315.25 1029 315.25 946 c 0,3,4
 315.25 887 315.25 887 349.45 852 c 128,-1,5
 383.65 817 383.65 817 442.15 817 c 0,6,7
 545.65 817 545.65 817 616.3 884.5 c 128,-1,8
 686.95 952 686.95 952 711.25 1075 c 1,9,-1
 716.65 1104 l 1,10,-1
 584.35 1104 l 2,0,1
862.45 1165 m 1,11,-1
 783.25 717 l 1,12,-1
 649.15 717 l 1,13,-1
 668.95 829 l 1,14,15
 616.75 764 616.75 764 547.9 731 c 128,-1,16
 479.05 698 479.05 698 392.65 698 c 0,17,18
 296.35 698 296.35 698 237.4 759 c 128,-1,19
 178.45 820 178.45 820 178.45 920 c 0,20,21
 178.45 1060 178.45 1060 282.4 1139.5 c 128,-1,22
 386.35 1219 386.35 1219 573.55 1219 c 2,23,-1
 737.35 1219 l 1,24,-1
 737.35 1223 l 1,25,26
 739.15 1242 739.15 1242 740.05 1252.5 c 128,-1,27
 740.95 1263 740.95 1263 740.95 1270 c 0,28,29
 740.95 1340 740.95 1340 699.1 1372.5 c 128,-1,30
 657.25 1405 657.25 1405 567.25 1405 c 0,31,32
 504.25 1405 504.25 1405 439 1388 c 128,-1,33
 373.75 1371 373.75 1371 308.05 1337 c 1,34,-1
 329.65 1464 l 1,35,36
 400.75 1492 400.75 1492 469.15 1506 c 128,-1,37
 537.55 1520 537.55 1520 598.75 1520 c 0,38,39
 733.75 1520 733.75 1520 802.6 1458 c 128,-1,40
 871.45 1396 871.45 1396 871.45 1276 c 0,41,42
 871.45 1249 871.45 1249 869.2 1221.5 c 128,-1,43
 866.95 1194 866.95 1194 862.45 1165 c 1,11,-1
143.35 592 m 1,44,-1
 763.45 592 l 1,45,-1
 742.75 469 l 1,46,-1
 123.55 469 l 1,47,-1
 143.35 592 l 1,44,-1
EndSplineSet
EndChar
StartChar: guillemotleft
Encoding: 171 171 169
Width: 1200
Flags: HW
Fore
686 1059 m 1,0,-1
 650.9 858 l 1,1,-1
 332.3 588 l 1,2,-1
 559.1 322 l 1,3,-1
 525.8 141 l 1,4,-1
 177.5 559 l 1,5,-1
 191.9 641 l 1,6,-1
 686 1059 l 1,0,-1
1086.5 1059 m 1,7,-1
 1051.4 858 l 1,8,-1
 731.9 588 l 1,9,-1
 958.7 322 l 1,10,-1
 925.4 141 l 1,11,-1
 577.1 559 l 1,12,-1
 592.4 641 l 1,13,-1
 1086.5 1059 l 1,7,-1
EndSplineSet
EndChar
StartChar: logicalnot
Encoding: 172 172 164
Width: 1630
Flags: HW
Fore
281.1 862 m 1,0,-1
 1434.9 862 l 1,1,-1
 1434.9 287 l 1,2,-1
 1283.7 287 l 1,3,-1
 1283.7 692 l 1,4,-1
 281.1 692 l 1,5,-1
 281.1 862 l 1,0,-1
EndSplineSet
EndChar
StartChar: sfthyphen
Encoding: 173 173 256
Width: 702
Flags: HW
Fore
150.3 643 m 1,0,-1
 635.4 643 l 1,1,-1
 607.5 479 l 1,2,-1
 120.6 479 l 1,3,-1
 150.3 643 l 1,0,-1
EndSplineSet
EndChar
StartChar: registered
Encoding: 174 174 138
Width: 1945
Flags: HW
Fore
1024 1382 m 0,0,1
 906.1 1382 906.1 1382 804.4 1335 c 128,-1,2
 702.7 1288 702.7 1288 618.1 1194 c 0,3,4
 533.5 1100 533.5 1100 490.3 985.5 c 128,-1,5
 447.1 871 447.1 871 447.1 741 c 0,6,7
 447.1 612 447.1 612 490.3 498.5 c 128,-1,8
 533.5 385 533.5 385 618.1 291 c 0,9,10
 702.7 197 702.7 197 804.4 149.5 c 128,-1,11
 906.1 102 906.1 102 1024 102 c 0,12,13
 1142.8 102 1142.8 102 1244.95 149.5 c 128,-1,14
 1347.1 197 1347.1 197 1431.7 291 c 0,15,16
 1515.4 384 1515.4 384 1557.25 497 c 128,-1,17
 1599.1 610 1599.1 610 1599.1 741 c 0,18,19
 1599.1 874 1599.1 874 1556.8 987.5 c 128,-1,20
 1514.5 1101 1514.5 1101 1431.7 1194 c 0,21,22
 1347.1 1288 1347.1 1288 1244.95 1335 c 128,-1,23
 1142.8 1382 1142.8 1382 1024 1382 c 0,0,1
1024 1485 m 0,24,25
 1160.8 1485 1160.8 1485 1279.15 1430 c 128,-1,26
 1397.5 1375 1397.5 1375 1495.6 1266 c 0,27,28
 1593.7 1157 1593.7 1157 1642.3 1026 c 128,-1,29
 1690.9 895 1690.9 895 1690.9 741 c 0,30,31
 1690.9 589 1690.9 589 1642.3 458.5 c 128,-1,32
 1593.7 328 1593.7 328 1495.6 219 c 0,33,34
 1397.5 110 1397.5 110 1279.15 55 c 128,-1,35
 1160.8 0 1160.8 0 1024 0 c 0,36,37
 887.2 0 887.2 0 768.85 55 c 128,-1,38
 650.5 110 650.5 110 552.4 219 c 0,39,40
 454.3 328 454.3 328 405.7 458.5 c 128,-1,41
 357.1 589 357.1 589 357.1 741 c 0,42,43
 357.1 895 357.1 895 405.7 1026 c 128,-1,44
 454.3 1157 454.3 1157 552.4 1266 c 0,45,46
 650.5 1375 650.5 1375 768.85 1430 c 128,-1,47
 887.2 1485 887.2 1485 1024 1485 c 0,24,25
999.7 1071 m 2,48,-1
 889 1071 l 1,49,-1
 889 795 l 1,50,-1
 999.7 795 l 2,51,52
 1098.7 795 1098.7 795 1137.85 826 c 128,-1,53
 1177 857 1177 857 1177 932 c 0,54,55
 1177 1008 1177 1008 1137.4 1039.5 c 128,-1,56
 1097.8 1071 1097.8 1071 999.7 1071 c 2,48,-1
1006 1174 m 2,57,58
 1164.4 1174 1164.4 1174 1242.7 1114.5 c 128,-1,59
 1321 1055 1321 1055 1321 934 c 0,60,61
 1321 848 1321 848 1273.75 792 c 128,-1,62
 1226.5 736 1226.5 736 1140.1 719 c 1,63,64
 1161.7 711 1161.7 711 1191.85 672.5 c 128,-1,65
 1222 634 1222 634 1263.4 561 c 1,66,-1
 1386.7 338 l 1,67,-1
 1231.9 338 l 1,68,-1
 1115.8 547 l 2,69,70
 1062.7 643 1062.7 643 1029.85 668.5 c 128,-1,71
 997 694 997 694 948.4 694 c 2,72,-1
 889 694 l 1,73,-1
 889 338 l 1,74,-1
 749.5 338 l 1,75,-1
 749.5 1174 l 1,76,-1
 1006 1174 l 2,57,58
EndSplineSet
EndChar
StartChar: macron
Encoding: 175 175 217
Width: 991
Flags: HW
Fore
438.45 1526 m 1,0,-1
 976.65 1526 l 1,1,-1
 950.55 1378 l 1,2,-1
 412.35 1378 l 1,3,-1
 438.45 1526 l 1,0,-1
EndSplineSet
Ligature: 0 1 'liga' space uni0304
EndChar
StartChar: degree
Encoding: 176 176 131
Width: 972
Flags: HW
Fore
512 1391 m 0,0,1
 440 1391 440 1391 390.5 1335.5 c 128,-1,2
 341 1280 341 1280 341 1200 c 0,3,4
 341 1121 341 1121 390.5 1066.5 c 128,-1,5
 440 1012 440 1012 512 1012 c 0,6,7
 584 1012 584 1012 633.5 1066.5 c 128,-1,8
 683 1121 683 1121 683 1200 c 0,9,10
 683 1279 683 1279 633.05 1335 c 128,-1,11
 583.1 1391 583.1 1391 512 1391 c 0,0,1
512 1520 m 0,12,13
 569.6 1520 569.6 1520 622.7 1495.5 c 128,-1,14
 675.8 1471 675.8 1471 714.5 1425 c 1,15,16
 755.9 1380 755.9 1380 776.6 1323 c 128,-1,17
 797.3 1266 797.3 1266 797.3 1200 c 0,18,19
 797.3 1068 797.3 1068 714.05 976.5 c 128,-1,20
 630.8 885 630.8 885 510.2 885 c 0,21,22
 388.7 885 388.7 885 307.7 975 c 128,-1,23
 226.7 1065 226.7 1065 226.7 1200 c 0,24,25
 226.7 1334 226.7 1334 309.5 1427 c 128,-1,26
 392.3 1520 392.3 1520 512 1520 c 0,12,13
EndSplineSet
EndChar
StartChar: plusminus
Encoding: 177 177 147
Width: 1630
Flags: HW
Fore
933.6 1284 m 1,0,-1
 933.6 897 l 1,1,-1
 1434.9 897 l 1,2,-1
 1434.9 727 l 1,3,-1
 933.6 727 l 1,4,-1
 933.6 340 l 1,5,-1
 782.4 340 l 1,6,-1
 782.4 727 l 1,7,-1
 281.1 727 l 1,8,-1
 281.1 897 l 1,9,-1
 782.4 897 l 1,10,-1
 782.4 1284 l 1,11,-1
 933.6 1284 l 1,0,-1
281.1 170 m 1,12,-1
 1434.9 170 l 1,13,-1
 1434.9 0 l 1,14,-1
 281.1 0 l 1,15,-1
 281.1 170 l 1,12,-1
EndSplineSet
EndChar
StartChar: twosuperior
Encoding: 178 178 241
Width: 782
Flags: HW
Fore
636.2 1090 m 2,0,-1
 289.7 782 l 1,1,-1
 686.6 782 l 1,2,-1
 665.9 668 l 1,3,-1
 109.7 668 l 1,4,-1
 129.5 778 l 1,5,-1
 509.3 1118 l 1,6,7
 562.4 1164 562.4 1164 588.5 1207 c 128,-1,8
 614.6 1250 614.6 1250 614.6 1290 c 0,9,10
 614.6 1344 614.6 1344 576.8 1377.5 c 128,-1,11
 539 1411 539 1411 476 1411 c 0,12,13
 426.5 1411 426.5 1411 367.1 1394 c 128,-1,14
 307.7 1377 307.7 1377 233 1341 c 1,15,-1
 255.5 1464 l 1,16,17
 323.9 1492 323.9 1492 385.1 1506 c 128,-1,18
 446.3 1520 446.3 1520 503.9 1520 c 0,19,20
 614.6 1520 614.6 1520 683.45 1463 c 128,-1,21
 752.3 1406 752.3 1406 752.3 1317 c 0,22,23
 752.3 1255 752.3 1255 723.5 1198.5 c 128,-1,24
 694.7 1142 694.7 1142 636.2 1090 c 2,0,-1
EndSplineSet
EndChar
StartChar: threesuperior
Encoding: 179 179 242
Width: 778
Flags: HW
Fore
232.85 1485 m 1,0,1
 307.55 1503 307.55 1503 364.25 1511.5 c 128,-1,2
 420.95 1520 420.95 1520 470.45 1520 c 0,3,4
 582.95 1520 582.95 1520 650.45 1467.5 c 128,-1,5
 717.95 1415 717.95 1415 717.95 1329 c 0,6,7
 717.95 1252 717.95 1252 666.65 1195 c 128,-1,8
 615.35 1138 615.35 1138 528.05 1120 c 1,9,10
 595.55 1104 595.55 1104 631.55 1057 c 128,-1,11
 667.55 1010 667.55 1010 667.55 938 c 0,12,13
 667.55 811 667.55 811 567.2 732 c 128,-1,14
 466.85 653 466.85 653 301.25 653 c 0,15,16
 243.65 653 243.65 653 185.15 663.5 c 128,-1,17
 126.65 674 126.65 674 69.0498 694 c 1,18,-1
 90.6504 815 l 1,19,20
 138.35 788 138.35 788 188.75 775 c 128,-1,21
 239.15 762 239.15 762 295.85 762 c 0,22,23
 406.55 762 406.55 762 469.1 808 c 128,-1,24
 531.65 854 531.65 854 531.65 936 c 0,25,26
 531.65 998 531.65 998 488 1029.5 c 128,-1,27
 444.35 1061 444.35 1061 356.15 1061 c 2,28,-1
 278.75 1061 l 1,29,-1
 299.45 1169 l 1,30,-1
 382.25 1169 l 2,31,32
 474.05 1169 474.05 1169 525.8 1205 c 128,-1,33
 577.55 1241 577.55 1241 577.55 1305 c 0,34,35
 577.55 1358 577.55 1358 540.65 1384.5 c 128,-1,36
 503.75 1411 503.75 1411 429.95 1411 c 0,37,38
 379.55 1411 379.55 1411 323.75 1400.5 c 128,-1,39
 267.95 1390 267.95 1390 213.05 1370 c 1,40,-1
 232.85 1485 l 1,0,1
EndSplineSet
EndChar
StartChar: acute
Encoding: 180 180 141
Width: 1000
Flags: HW
Fore
862.25 1638 m 1,0,-1
 1041.35 1638 l 1,1,-1
 682.25 1262 l 1,2,-1
 543.65 1262 l 1,3,-1
 862.25 1638 l 1,0,-1
EndSplineSet
LCarets: 0 65535 '    ' 1 0 
Ligature: 0 1 'liga' space acutecomb
EndChar
StartChar: mu
Encoding: 181 181 151
Width: 1231
Flags: HW
Fore
34.9502 -426 m 1,0,-1
 305.85 1120 l 1,1,-1
 472.35 1120 l 1,2,-1
 349.95 423 l 2,3,4
 346.35 402 346.35 402 343.65 376 c 128,-1,5
 340.95 350 340.95 350 340.95 324 c 0,6,7
 340.95 231 340.95 231 393.6 181 c 128,-1,8
 446.25 131 446.25 131 544.35 131 c 0,9,10
 677.55 131 677.55 131 759.45 215 c 128,-1,11
 841.35 299 841.35 299 870.15 467 c 1,12,-1
 984.45 1120 l 1,13,-1
 1150.05 1120 l 1,14,-1
 999.75 259 l 1,15,16
 996.15 240 996.15 240 994.8 226 c 128,-1,17
 993.45 212 993.45 212 993.45 201 c 0,18,19
 993.45 170 993.45 170 1004.7 155.5 c 128,-1,20
 1015.95 141 1015.95 141 1040.25 141 c 0,21,22
 1049.25 141 1049.25 141 1065 146 c 128,-1,23
 1080.75 151 1080.75 151 1109.55 164 c 1,24,-1
 1084.35 16 l 1,25,26
 1044.75 -6 1044.75 -6 1008.75 -17.5 c 128,-1,27
 972.75 -29 972.75 -29 938.55 -29 c 0,28,29
 879.15 -29 879.15 -29 845.4 13 c 128,-1,30
 811.65 55 811.65 55 811.65 129 c 1,31,32
 761.25 49 761.25 49 691.5 10 c 128,-1,33
 621.75 -29 621.75 -29 527.25 -29 c 0,34,35
 443.55 -29 443.55 -29 381 14 c 128,-1,36
 318.45 57 318.45 57 298.65 127 c 1,37,-1
 201.45 -426 l 1,38,-1
 34.9502 -426 l 1,0,-1
EndSplineSet
EndChar
StartChar: paragraph
Encoding: 182 182 136
Width: 1239
Flags: HW
Fore
757.9 1493 m 2,0,-1
 1123.3 1493 l 1,1,-1
 828.1 -197 l 1,2,-1
 703 -197 l 1,3,-1
 977.5 1370 l 1,4,-1
 805.6 1370 l 1,5,-1
 531.1 -197 l 1,6,-1
 404.2 -197 l 1,7,-1
 551.8 649 l 1,8,9
 391.6 655 391.6 655 301.15 749 c 128,-1,10
 210.7 843 210.7 843 210.7 1001 c 0,11,12
 210.7 1212 210.7 1212 365.5 1352.5 c 128,-1,13
 520.3 1493 520.3 1493 757.9 1493 c 2,0,-1
EndSplineSet
EndChar
StartChar: periodcentered
Encoding: 183 183 195
Width: 622
Flags: HW
Fore
291.05 838 m 1,0,-1
 480.95 838 l 1,1,-1
 435.95 584 l 1,2,-1
 246.05 584 l 1,3,-1
 291.05 838 l 1,0,-1
EndSplineSet
EndChar
StartChar: cedilla
Encoding: 184 184 221
Width: 953
Flags: HW
Fore
461.65 0 m 1,0,1
 494.05 -51 494.05 -51 509.35 -94.5 c 128,-1,2
 524.65 -138 524.65 -138 524.65 -180 c 0,3,4
 524.65 -280 524.65 -280 458.5 -337.5 c 128,-1,5
 392.35 -395 392.35 -395 277.15 -395 c 0,6,7
 238.45 -395 238.45 -395 199.75 -389 c 128,-1,8
 161.05 -383 161.05 -383 122.35 -371 c 1,9,-1
 143.05 -240 l 1,10,11
 178.15 -256 178.15 -256 213.7 -264 c 128,-1,12
 249.25 -272 249.25 -272 287.05 -272 c 0,13,14
 341.05 -272 341.05 -272 373 -241.5 c 128,-1,15
 404.95 -211 404.95 -211 404.95 -158 c 0,16,17
 404.95 -129 404.95 -129 393.7 -93 c 128,-1,18
 382.45 -57 382.45 -57 354.55 0 c 1,19,-1
 461.65 0 l 1,0,1
EndSplineSet
Ligature: 0 1 'liga' space uni0327
EndChar
StartChar: onesuperior
Encoding: 185 185 240
Width: 781
Flags: HW
Fore
182.7 778 m 1,0,-1
 366.3 778 l 1,1,-1
 473.4 1389 l 1,2,-1
 267.3 1348 l 1,3,-1
 287.1 1464 l 1,4,-1
 494.1 1503 l 1,5,-1
 624.6 1503 l 1,6,-1
 497.7 778 l 1,7,-1
 682.2 778 l 1,8,-1
 661.5 668 l 1,9,-1
 163.8 668 l 1,10,-1
 182.7 778 l 1,0,-1
EndSplineSet
EndChar
StartChar: ordmasculine
Encoding: 186 186 158
Width: 919
Flags: HW
Fore
760.6 1180 m 0,0,1
 760.6 1290 760.6 1290 716.05 1347.5 c 128,-1,2
 671.5 1405 671.5 1405 584.2 1405 c 0,3,4
 479.8 1405 479.8 1405 403.75 1298 c 128,-1,5
 327.7 1191 327.7 1191 327.7 1040 c 0,6,7
 327.7 931 327.7 931 372.25 872 c 128,-1,8
 416.8 813 416.8 813 499.6 813 c 0,9,10
 609.4 813 609.4 813 685 918.5 c 128,-1,11
 760.6 1024 760.6 1024 760.6 1180 c 0,0,1
610.3 1520 m 0,12,13
 743.5 1520 743.5 1520 823.15 1434 c 128,-1,14
 902.8 1348 902.8 1348 902.8 1204 c 0,15,16
 902.8 984 902.8 984 783.1 841 c 128,-1,17
 663.4 698 663.4 698 480.7 698 c 0,18,19
 345.7 698 345.7 698 266.95 788 c 128,-1,20
 188.2 878 188.2 878 188.2 1032 c 0,21,22
 188.2 1100 188.2 1100 205.3 1166.5 c 128,-1,23
 222.4 1233 222.4 1233 255.7 1296 c 0,24,25
 311.5 1402 311.5 1402 405.1 1461 c 128,-1,26
 498.7 1520 498.7 1520 610.3 1520 c 0,12,13
145 592 m 1,27,-1
 765.1 592 l 1,28,-1
 744.4 469 l 1,29,-1
 125.2 469 l 1,30,-1
 145 592 l 1,27,-1
EndSplineSet
EndChar
StartChar: guillemotright
Encoding: 187 187 170
Width: 1200
Flags: HW
Fore
575.2 141 m 1,0,-1
 610.3 342 l 1,1,-1
 929.8 612 l 1,2,-1
 703 879 l 1,3,-1
 738.1 1059 l 1,4,-1
 1084.6 641 l 1,5,-1
 1071.1 559 l 1,6,-1
 575.2 141 l 1,0,-1
177.4 141 m 1,7,-1
 212.5 342 l 1,8,-1
 529.3 612 l 1,9,-1
 304.3 879 l 1,10,-1
 337.6 1059 l 1,11,-1
 684.1 641 l 1,12,-1
 671.5 559 l 1,13,-1
 177.4 141 l 1,7,-1
EndSplineSet
EndChar
StartChar: questiondown
Encoding: 191 191 162
Width: 1025
Flags: HW
Fore
598.1 1239 m 1,0,-1
 643.1 1493 l 1,1,-1
 824.9 1493 l 1,2,-1
 780.8 1239 l 1,3,-1
 598.1 1239 l 1,0,-1
797.9 86 m 1,4,5
 705.2 29 705.2 29 614.3 1 c 128,-1,6
 523.4 -27 523.4 -27 427.1 -27 c 0,7,8
 282.2 -27 282.2 -27 198.95 48 c 128,-1,9
 115.7 123 115.7 123 115.7 252 c 0,10,11
 115.7 355 115.7 355 163.85 445 c 128,-1,12
 212 535 212 535 320 633 c 2,13,-1
 412.7 717 l 2,14,15
 489.2 785 489.2 785 514.85 832 c 128,-1,16
 540.5 879 540.5 879 555.8 969 c 1,17,-1
 578.3 1092 l 1,18,-1
 749.3 1092 l 1,19,-1
 722.3 938 l 1,20,21
 705.2 844 705.2 844 670.1 778.5 c 128,-1,22
 635 713 635 713 536 621 c 2,23,-1
 439.7 532 l 2,24,25
 364.1 462 364.1 462 333.95 409 c 128,-1,26
 303.8 356 303.8 356 303.8 299 c 0,27,28
 303.8 223 303.8 223 352.85 180 c 128,-1,29
 401.9 137 401.9 137 487.4 137 c 0,30,31
 560.3 137 560.3 137 648.5 172.5 c 128,-1,32
 736.7 208 736.7 208 830.3 274 c 1,33,-1
 797.9 86 l 1,4,5
EndSplineSet
EndChar
StartChar: Aring
Encoding: 197 197 99
Width: 1318
Flags: HW
Fore
975.55 1626 m 0,0,1
 975.55 1689 975.55 1689 935.5 1733.5 c 128,-1,2
 895.45 1778 895.45 1778 838.75 1778 c 0,3,4
 781.15 1778 781.15 1778 742 1734.5 c 128,-1,5
 702.85 1691 702.85 1691 702.85 1626 c 0,6,7
 702.85 1563 702.85 1563 742 1519 c 128,-1,8
 781.15 1475 781.15 1475 838.75 1475 c 0,9,10
 895.45 1475 895.45 1475 935.5 1519 c 128,-1,11
 975.55 1563 975.55 1563 975.55 1626 c 0,0,1
692.05 1407 m 1,12,13
 643.45 1444 643.45 1444 617.8 1500.5 c 128,-1,14
 592.15 1557 592.15 1557 592.15 1626 c 0,15,16
 592.15 1740 592.15 1740 664.15 1820.5 c 128,-1,17
 736.15 1901 736.15 1901 838.75 1901 c 0,18,19
 941.35 1901 941.35 1901 1013.8 1820.5 c 128,-1,20
 1086.25 1740 1086.25 1740 1086.25 1626 c 0,21,22
 1086.25 1547 1086.25 1547 1053.4 1486 c 128,-1,23
 1020.55 1425 1020.55 1425 958.45 1389 c 1,24,-1
 1191.55 0 l 1,25,-1
 1001.65 0 l 1,26,-1
 945.85 383 l 1,27,-1
 341.05 383 l 1,28,-1
 151.15 0 l 1,29,-1
 -40.5498 0 l 1,30,-1
 692.05 1407 l 1,12,13
801.85 1294 m 1,31,-1
 424.75 551 l 1,32,-1
 917.95 551 l 1,33,-1
 801.85 1294 l 1,31,-1
EndSplineSet
Ligature: 0 0 'liga' A uni030A
EndChar
StartChar: AE
Encoding: 198 198 144
Width: 1892
Flags: HW
Fore
936 1335 m 1,0,-1
 501.3 551 l 1,1,-1
 913.5 551 l 1,2,-1
 1052.1 1335 l 1,3,-1
 936 1335 l 1,0,-1
1929.6 1493 m 1,4,-1
 1899.9 1323 l 1,5,-1
 1233 1323 l 1,6,-1
 1153.8 881 l 1,7,-1
 1794.6 881 l 1,8,-1
 1764.9 711 l 1,9,-1
 1124.1 711 l 1,10,-1
 1029.6 170 l 1,11,-1
 1713.6 170 l 1,12,-1
 1683.9 0 l 1,13,-1
 818.1 0 l 1,14,-1
 883.8 383 l 1,15,-1
 410.4 383 l 1,16,-1
 198.9 0 l 1,17,-1
 14.4004 0 l 1,18,-1
 837.9 1493 l 1,19,-1
 1929.6 1493 l 1,4,-1
EndSplineSet
KernsSLIF: 45 -36 0 0
EndChar
StartChar: Eth
Encoding: 208 208 232
Width: 1502
Flags: HW
Fore
394.85 1493 m 1,0,-1
 786.35 1493 l 2,1,2
 1096.85 1493 1096.85 1493 1255.7 1346.5 c 128,-1,3
 1414.55 1200 1414.55 1200 1414.55 911 c 0,4,5
 1414.55 721 1414.55 721 1353.8 544.5 c 128,-1,6
 1293.05 368 1293.05 368 1185.95 246 c 0,7,8
 1078.85 122 1078.85 122 915.05 61 c 128,-1,9
 751.25 0 751.25 0 526.25 0 c 2,10,-1
 133.85 0 l 1,11,-1
 255.35 700 l 1,12,-1
 74.4502 700 l 1,13,-1
 100.55 844 l 1,14,-1
 280.55 844 l 1,15,-1
 394.85 1493 l 1,0,-1
547.85 1327 m 1,16,-1
 463.25 844 l 1,17,-1
 765.65 844 l 1,18,-1
 739.55 700 l 1,19,-1
 437.15 700 l 1,20,-1
 345.35 166 l 1,21,-1
 582.95 166 l 2,22,23
 888.95 166 888.95 166 1055.9 361 c 128,-1,24
 1222.85 556 1222.85 556 1222.85 911 c 0,25,26
 1222.85 1126 1222.85 1126 1114.85 1226.5 c 128,-1,27
 1006.85 1327 1006.85 1327 776.45 1327 c 2,28,-1
 547.85 1327 l 1,16,-1
EndSplineSet
KernsSLIF: 45 38 0 0
EndChar
StartChar: multiply
Encoding: 215 215 239
Width: 1630
Flags: HW
Fore
1378.25 1100 m 1,0,-1
 966.95 641 l 1,1,-1
 1378.25 184 l 1,2,-1
 1271.15 63 l 1,3,-1
 858.05 522 l 1,4,-1
 444.95 63 l 1,5,-1
 338.75 184 l 1,6,-1
 749.15 641 l 1,7,-1
 338.75 1100 l 1,8,-1
 444.95 1221 l 1,9,-1
 858.05 762 l 1,10,-1
 1271.15 1221 l 1,11,-1
 1378.25 1100 l 1,0,-1
EndSplineSet
EndChar
StartChar: Oslash
Encoding: 216 216 145
Width: 1530
Flags: HW
Fore
1180.05 1235 m 1,0,1
 1139.55 1295 1139.55 1295 1073.85 1325.5 c 128,-1,2
 1008.15 1356 1008.15 1356 919.95 1356 c 0,3,4
 771.45 1356 771.45 1356 656.7 1275 c 128,-1,5
 541.95 1194 541.95 1194 459.15 1032 c 0,6,7
 403.35 923 403.35 923 374.1 804 c 128,-1,8
 344.85 685 344.85 685 344.85 571 c 0,9,10
 344.85 526 344.85 526 350.25 482.5 c 128,-1,11
 355.65 439 355.65 439 366.45 395 c 1,12,-1
 1180.05 1235 l 1,0,1
1238.55 1116 m 1,13,-1
 422.25 270 l 1,14,15
 468.15 202 468.15 202 534.3 168.5 c 128,-1,16
 600.45 135 600.45 135 689.55 135 c 0,17,18
 837.15 135 837.15 135 952.8 216.5 c 128,-1,19
 1068.45 298 1068.45 298 1150.35 459 c 0,20,21
 1206.15 571 1206.15 571 1234.5 688.5 c 128,-1,22
 1262.85 806 1262.85 806 1262.85 928 c 0,23,24
 1262.85 984 1262.85 984 1257 1030.5 c 128,-1,25
 1251.15 1077 1251.15 1077 1238.55 1116 c 1,13,-1
223.35 246 m 1,26,27
 188.25 326 188.25 326 170.7 408 c 128,-1,28
 153.15 490 153.15 490 153.15 575 c 0,29,30
 153.15 741 153.15 741 208.05 909 c 128,-1,31
 262.95 1077 262.95 1077 361.05 1212 c 0,32,33
 473.55 1366 473.55 1366 614.4 1443 c 128,-1,34
 755.25 1520 755.25 1520 925.35 1520 c 0,35,36
 1042.35 1520 1042.35 1520 1136.85 1481.5 c 128,-1,37
 1231.35 1443 1231.35 1443 1306.95 1366 c 1,38,-1
 1489.65 1559 l 1,39,-1
 1570.65 1460 l 1,40,-1
 1382.55 1262 l 1,41,42
 1418.55 1189 1418.55 1189 1436.55 1104.5 c 128,-1,43
 1454.55 1020 1454.55 1020 1454.55 922 c 0,44,45
 1454.55 745 1454.55 745 1401.45 579.5 c 128,-1,46
 1348.35 414 1348.35 414 1247.55 279 c 0,47,48
 1132.35 123 1132.35 123 993.3 47 c 128,-1,49
 854.25 -29 854.25 -29 684.15 -29 c 0,50,51
 559.05 -29 559.05 -29 461.4 13 c 128,-1,52
 363.75 55 363.75 55 295.35 137 c 1,53,-1
 97.3496 -66 l 1,54,-1
 16.3496 33 l 1,55,-1
 223.35 246 l 1,26,27
EndSplineSet
KernsSLIF: 88 -36 0 0 59 38 0 0 58 38 0 0 46 -83 0 0 45 38 0 0 44 -83 0 0
EndChar
StartChar: Thorn
Encoding: 222 222 236
Width: 1182
Flags: HW
Fore
583.85 338 m 2,0,-1
 353.45 338 l 1,1,-1
 294.05 0 l 1,2,-1
 111.35 0 l 1,3,-1
 373.25 1493 l 1,4,-1
 555.95 1493 l 1,5,-1
 510.05 1229 l 1,6,-1
 749.45 1229 l 2,7,8
 933.05 1229 933.05 1229 1029.35 1134 c 128,-1,9
 1125.65 1039 1125.65 1039 1125.65 856 c 0,10,11
 1125.65 610 1125.65 610 983.45 474 c 128,-1,12
 841.25 338 841.25 338 583.85 338 c 2,0,-1
482.15 1063 m 1,13,-1
 384.05 504 l 1,14,-1
 612.65 504 l 2,15,16
 767.45 504 767.45 504 850.7 591.5 c 128,-1,17
 933.95 679 933.95 679 933.95 844 c 0,18,19
 933.95 948 933.95 948 878.15 1005.5 c 128,-1,20
 822.35 1063 822.35 1063 719.75 1063 c 2,21,-1
 482.15 1063 l 1,13,-1
EndSplineSet
KernsSLIF: 46 -149 0 0 45 75 0 0 44 -149 0 0
EndChar
StartChar: germandbls
Encoding: 223 223 137
Width: 1226
Flags: HW
Fore
350.5 1137 m 1,0,1
 384.7 1334 384.7 1334 503.95 1445 c 128,-1,2
 623.2 1556 623.2 1556 800.5 1556 c 0,3,4
 957.1 1556 957.1 1556 1054.75 1463 c 128,-1,5
 1152.4 1370 1152.4 1370 1152.4 1223 c 0,6,7
 1152.4 1198 1152.4 1198 1149.7 1167.5 c 128,-1,8
 1147 1137 1147 1137 1141.6 1100 c 1,9,10
 995.8 1092 995.8 1092 905.8 1024.5 c 128,-1,11
 815.8 957 815.8 957 815.8 860 c 0,12,13
 815.8 820 815.8 820 834.7 784 c 128,-1,14
 853.6 748 853.6 748 896.8 711 c 2,15,-1
 940.9 672 l 2,16,17
 1048 578 1048 578 1084.9 512.5 c 128,-1,18
 1121.8 447 1121.8 447 1121.8 367 c 0,19,20
 1121.8 195 1121.8 195 996.7 83 c 128,-1,21
 871.6 -29 871.6 -29 675.4 -29 c 0,22,23
 607 -29 607 -29 544 -16.5 c 128,-1,24
 481 -4 481 -4 424.3 20 c 1,25,-1
 452.2 184 l 1,26,27
 510.7 155 510.7 155 573.25 140 c 128,-1,28
 635.8 125 635.8 125 699.7 125 c 0,29,30
 811.3 125 811.3 125 880.6 182 c 128,-1,31
 949.9 239 949.9 239 949.9 330 c 0,32,33
 949.9 375 949.9 375 928.75 414 c 128,-1,34
 907.6 453 907.6 453 837.4 520 c 2,35,-1
 791.5 563 l 2,36,37
 704.2 645 704.2 645 674.05 700.5 c 128,-1,38
 643.9 756 643.9 756 643.9 823 c 0,39,40
 643.9 949 643.9 949 739.3 1050 c 128,-1,41
 834.7 1151 834.7 1151 990.4 1188 c 1,42,43
 992.2 1196 992.2 1196 993.1 1206 c 128,-1,44
 994 1216 994 1216 994 1235 c 0,45,46
 994 1313 994 1313 943.15 1358 c 128,-1,47
 892.3 1403 892.3 1403 802.3 1403 c 0,48,49
 682.6 1403 682.6 1403 610.6 1335 c 128,-1,50
 538.6 1267 538.6 1267 515.2 1133 c 2,51,-1
 318.1 0 l 1,52,-1
 151.6 0 l 1,53,-1
 350.5 1137 l 1,0,1
EndSplineSet
EndChar
StartChar: ae
Encoding: 230 230 160
Width: 1935
Flags: HW
Fore
1688.3 660 m 1,0,1
 1691 676 1691 676 1692.35 693 c 128,-1,2
 1693.7 710 1693.7 710 1693.7 727 c 0,3,4
 1693.7 849 1693.7 849 1629.8 920 c 128,-1,5
 1565.9 991 1565.9 991 1454.3 991 c 0,6,7
 1331 991 1331 991 1236.5 904.5 c 128,-1,8
 1142 818 1142 818 1093.4 659 c 1,9,-1
 1688.3 660 l 1,0,1
388.7 1069 m 1,10,11
 482.3 1108 482.3 1108 571.85 1127.5 c 128,-1,12
 661.4 1147 661.4 1147 745.1 1147 c 0,13,14
 874.7 1147 874.7 1147 958.4 1102 c 128,-1,15
 1042.1 1057 1042.1 1057 1082.6 965 c 1,16,17
 1160 1055 1160 1055 1260.8 1101 c 128,-1,18
 1361.6 1147 1361.6 1147 1480.4 1147 c 0,19,20
 1651.4 1147 1651.4 1147 1753.1 1033 c 128,-1,21
 1854.8 919 1854.8 919 1854.8 727 c 0,22,23
 1854.8 681 1854.8 681 1848.95 628.5 c 128,-1,24
 1843.1 576 1843.1 576 1832.3 516 c 1,25,-1
 1061.9 516 l 1,26,27
 1056.5 478 1056.5 478 1054.7 456 c 128,-1,28
 1052.9 434 1052.9 434 1052.9 418 c 0,29,30
 1052.9 279 1052.9 279 1129.85 203 c 128,-1,31
 1206.8 127 1206.8 127 1347.2 127 c 0,32,33
 1455.2 127 1455.2 127 1551.95 154 c 128,-1,34
 1648.7 181 1648.7 181 1730.6 233 c 1,35,-1
 1700 51 l 1,36,37
 1610 11 1610 11 1515.05 -9 c 128,-1,38
 1420.1 -29 1420.1 -29 1322 -29 c 0,39,40
 1170.8 -29 1170.8 -29 1068.65 28.5 c 128,-1,41
 966.5 86 966.5 86 916.1 199 c 1,42,43
 824.3 81 824.3 81 725.3 26 c 128,-1,44
 626.3 -29 626.3 -29 507.5 -29 c 0,45,46
 350.9 -29 350.9 -29 264.05 53 c 128,-1,47
 177.2 135 177.2 135 177.2 283 c 0,48,49
 177.2 479 177.2 479 318.05 593 c 128,-1,50
 458.9 707 458.9 707 706.4 707 c 2,51,-1
 936.8 707 l 1,52,-1
 945.8 756 l 1,53,54
 947.6 764 947.6 764 948.5 773.5 c 128,-1,55
 949.4 783 949.4 783 949.4 803 c 0,56,57
 949.4 892 949.4 892 884.15 941.5 c 128,-1,58
 818.9 991 818.9 991 701 991 c 0,59,60
 620 991 620 991 534.95 968 c 128,-1,61
 449.9 945 449.9 945 359.9 899 c 1,62,-1
 388.7 1069 l 1,10,11
912.5 563 m 1,63,-1
 746.9 563 l 2,64,65
 543.5 563 543.5 563 445.85 502.5 c 128,-1,66
 348.2 442 348.2 442 348.2 315 c 0,67,68
 348.2 227 348.2 227 398.15 177 c 128,-1,69
 448.1 127 448.1 127 536.3 127 c 0,70,71
 671.3 127 671.3 127 772.1 234.5 c 128,-1,72
 872.9 342 872.9 342 905.3 522 c 2,73,-1
 912.5 563 l 1,63,-1
EndSplineSet
EndChar
StartChar: eth
Encoding: 240 240 233
Width: 1192
Flags: HW
Fore
979.1 1141 m 1,0,1
 1040.3 1039 1040.3 1039 1071.35 928.5 c 128,-1,2
 1102.4 818 1102.4 818 1102.4 700 c 0,3,4
 1102.4 564 1102.4 564 1066.85 437.5 c 128,-1,5
 1031.3 311 1031.3 311 963.8 211 c 1,6,7
 888.2 95 888.2 95 777.95 33 c 128,-1,8
 667.7 -29 667.7 -29 538.1 -29 c 0,9,10
 359.9 -29 359.9 -29 253.7 88.5 c 128,-1,11
 147.5 206 147.5 206 147.5 401 c 0,12,13
 147.5 521 147.5 521 184.4 639 c 128,-1,14
 221.3 757 221.3 757 289.7 858 c 0,15,16
 368.9 974 368.9 974 477.8 1036 c 128,-1,17
 586.7 1098 586.7 1098 711.8 1098 c 0,18,19
 729.8 1098 729.8 1098 755.9 1095.5 c 128,-1,20
 782 1093 782 1093 818 1088 c 1,21,-1
 706.4 1268 l 1,22,-1
 390.5 1161 l 1,23,-1
 361.7 1255 l 1,24,-1
 656 1352 l 1,25,-1
 530.9 1556 l 1,26,-1
 726.2 1556 l 1,27,-1
 812.6 1411 l 1,28,-1
 1115 1520 l 1,29,-1
 1146.5 1425 l 1,30,-1
 864.8 1327 l 1,31,-1
 979.1 1141 l 1,0,1
886.4 915 m 1,32,33
 847.7 932 847.7 932 808.55 940 c 128,-1,34
 769.4 948 769.4 948 729.8 948 c 0,35,36
 548 948 548 948 433.7 797.5 c 128,-1,37
 319.4 647 319.4 647 319.4 408 c 0,38,39
 319.4 270 319.4 270 378.35 198.5 c 128,-1,40
 437.3 127 437.3 127 551.6 127 c 0,41,42
 715.4 127 715.4 127 825.2 288.5 c 128,-1,43
 935 450 935 450 935 694 c 0,44,45
 935 762 935 762 923.3 816 c 128,-1,46
 911.6 870 911.6 870 886.4 915 c 1,32,33
EndSplineSet
EndChar
StartChar: divide
Encoding: 247 247 184
Width: 1630
Flags: HW
Fore
747.3 1135 m 1,0,-1
 968.7 1135 l 1,1,-1
 968.7 889 l 1,2,-1
 747.3 889 l 1,3,-1
 747.3 1135 l 1,0,-1
747.3 395 m 1,4,-1
 968.7 395 l 1,5,-1
 968.7 150 l 1,6,-1
 747.3 150 l 1,7,-1
 747.3 395 l 1,4,-1
281.1 727 m 1,8,-1
 1434.9 727 l 1,9,-1
 1434.9 557 l 1,10,-1
 281.1 557 l 1,11,-1
 281.1 727 l 1,8,-1
EndSplineSet
EndChar
StartChar: oslash
Encoding: 248 248 161
Width: 1189
Flags: HW
Fore
873.15 922 m 1,0,1
 839.85 957 839.85 957 798 974 c 128,-1,2
 756.15 991 756.15 991 703.95 991 c 0,3,4
 536.55 991 536.55 991 428.55 830.5 c 128,-1,5
 320.55 670 320.55 670 320.55 420 c 0,6,7
 320.55 373 320.55 373 321.9 352.5 c 128,-1,8
 323.25 332 323.25 332 327.75 315 c 1,9,-1
 873.15 922 l 1,0,1
200.85 172 m 1,10,11
 173.85 221 173.85 221 160.35 284 c 128,-1,12
 146.85 347 146.85 347 146.85 422 c 0,13,14
 146.85 544 146.85 544 182.4 671.5 c 128,-1,15
 217.95 799 217.95 799 274.65 885 c 0,16,17
 362.85 1019 362.85 1019 472.2 1083 c 128,-1,18
 581.55 1147 581.55 1147 721.95 1147 c 0,19,20
 800.25 1147 800.25 1147 866.85 1121 c 128,-1,21
 933.45 1095 933.45 1095 985.65 1044 c 1,22,-1
 1131.45 1208 l 1,23,-1
 1208.85 1122 l 1,24,-1
 1054.05 950 l 1,25,26
 1079.25 895 1079.25 895 1092.3 832.5 c 128,-1,27
 1105.35 770 1105.35 770 1105.35 702 c 0,28,29
 1105.35 578 1105.35 578 1069.8 448.5 c 128,-1,30
 1034.25 319 1034.25 319 978.45 233 c 0,31,32
 891.15 99 891.15 99 781.8 35 c 128,-1,33
 672.45 -29 672.45 -29 530.25 -29 c 0,34,35
 451.95 -29 451.95 -29 385.8 -2.5 c 128,-1,36
 319.65 24 319.65 24 268.35 76 c 1,37,-1
 113.55 -94 l 1,38,-1
 36.1504 -10 l 1,39,-1
 200.85 172 l 1,10,11
927.15 809 m 1,40,-1
 379.05 199 l 1,41,42
 414.15 162 414.15 162 455.1 144.5 c 128,-1,43
 496.05 127 496.05 127 549.15 127 c 0,44,45
 719.25 127 719.25 127 826.8 290.5 c 128,-1,46
 934.35 454 934.35 454 934.35 717 c 0,47,48
 934.35 756 934.35 756 932.55 775 c 128,-1,49
 930.75 794 930.75 794 927.15 809 c 1,40,-1
EndSplineSet
EndChar
StartChar: thorn
Encoding: 254 254 237
Width: 1230
Flags: HW
Fore
974.4 690 m 0,0,1
 974.4 837 974.4 837 916.8 915 c 128,-1,2
 859.2 993 859.2 993 751.2 993 c 0,3,4
 677.4 993 677.4 993 610.35 951 c 128,-1,5
 543.3 909 543.3 909 491.1 829 c 0,6,7
 439.8 750 439.8 750 409.2 638 c 128,-1,8
 378.6 526 378.6 526 378.6 416 c 0,9,10
 378.6 276 378.6 276 436.2 200.5 c 128,-1,11
 493.8 125 493.8 125 600 125 c 0,12,13
 678.3 125 678.3 125 745.35 166 c 128,-1,14
 812.4 207 812.4 207 860.1 285 c 0,15,16
 911.4 367 911.4 367 942.9 478 c 128,-1,17
 974.4 589 974.4 589 974.4 690 c 0,0,1
461.4 950 m 1,18,19
 528 1047 528 1047 618.45 1097 c 128,-1,20
 708.9 1147 708.9 1147 819.6 1147 c 0,21,22
 974.4 1147 974.4 1147 1059.9 1034.5 c 128,-1,23
 1145.4 922 1145.4 922 1145.4 719 c 0,24,25
 1145.4 553 1145.4 553 1092.3 402.5 c 128,-1,26
 1039.2 252 1039.2 252 939.3 133 c 0,27,28
 872.7 54 872.7 54 789 12.5 c 128,-1,29
 705.3 -29 705.3 -29 612.6 -29 c 0,30,31
 505.5 -29 505.5 -29 432.6 20.5 c 128,-1,32
 359.7 70 359.7 70 323.7 168 c 1,33,-1
 220.2 -426 l 1,34,-1
 54.5996 -426 l 1,35,-1
 397.5 1556 l 1,36,-1
 563.1 1556 l 1,37,-1
 461.4 950 l 1,18,19
EndSplineSet
EndChar
StartChar: Dcroat
Encoding: 272 272 257
Width: 1502
Flags: HW
Fore
394.85 1493 m 1,0,-1
 786.35 1493 l 2,1,2
 1096.85 1493 1096.85 1493 1255.7 1346.5 c 128,-1,3
 1414.55 1200 1414.55 1200 1414.55 911 c 0,4,5
 1414.55 721 1414.55 721 1353.8 544.5 c 128,-1,6
 1293.05 368 1293.05 368 1185.95 246 c 0,7,8
 1078.85 122 1078.85 122 915.05 61 c 128,-1,9
 751.25 0 751.25 0 526.25 0 c 2,10,-1
 133.85 0 l 1,11,-1
 255.35 700 l 1,12,-1
 74.4502 700 l 1,13,-1
 100.55 844 l 1,14,-1
 280.55 844 l 1,15,-1
 394.85 1493 l 1,0,-1
547.85 1327 m 1,16,-1
 463.25 844 l 1,17,-1
 765.65 844 l 1,18,-1
 739.55 700 l 1,19,-1
 437.15 700 l 1,20,-1
 345.35 166 l 1,21,-1
 582.95 166 l 2,22,23
 888.95 166 888.95 166 1055.9 361 c 128,-1,24
 1222.85 556 1222.85 556 1222.85 911 c 0,25,26
 1222.85 1126 1222.85 1126 1114.85 1226.5 c 128,-1,27
 1006.85 1327 1006.85 1327 776.45 1327 c 2,28,-1
 547.85 1327 l 1,16,-1
EndSplineSet
EndChar
StartChar: dcroat
Encoding: 273 273 255
Width: 1246
Flags: HW
Fore
846.9 168 m 1,0,1
 780.3 71 780.3 71 689.4 21 c 128,-1,2
 598.5 -29 598.5 -29 487.8 -29 c 0,3,4
 336.6 -29 336.6 -29 248.85 85.5 c 128,-1,5
 161.1 200 161.1 200 161.1 399 c 0,6,7
 161.1 565 161.1 565 214.2 715.5 c 128,-1,8
 267.3 866 267.3 866 368.1 985 c 0,9,10
 434.7 1064 434.7 1064 518.4 1105.5 c 128,-1,11
 602.1 1147 602.1 1147 693.9 1147 c 0,12,13
 791.1 1147 791.1 1147 865.35 1095 c 128,-1,14
 939.6 1043 939.6 1043 980.1 946 c 1,15,-1
 1040.4 1284 l 1,16,-1
 747 1284 l 1,17,-1
 771.3 1407 l 1,18,-1
 1064.7 1407 l 1,19,-1
 1088.1 1556 l 1,20,-1
 1254.6 1556 l 1,21,-1
 1230.3 1407 l 1,22,-1
 1368.9 1407 l 1,23,-1
 1344.6 1284 l 1,24,-1
 1206 1284 l 1,25,-1
 981.9 0 l 1,26,-1
 815.4 0 l 1,27,-1
 846.9 168 l 1,0,1
333 432 m 0,28,29
 333 287 333 287 391.95 206 c 128,-1,30
 450.9 125 450.9 125 555.3 125 c 0,31,32
 632.7 125 632.7 125 698.85 166.5 c 128,-1,33
 765 208 765 208 815.4 289 c 0,34,35
 868.5 373 868.5 373 899.1 483 c 128,-1,36
 929.7 593 929.7 593 929.7 700 c 0,37,38
 929.7 839 929.7 839 870.75 917 c 128,-1,39
 811.8 995 811.8 995 708.3 995 c 0,40,41
 630 995 630 995 562.5 954 c 128,-1,42
 495 913 495 913 447.3 836 c 0,43,44
 395.1 753 395.1 753 364.05 643 c 128,-1,45
 333 533 333 533 333 432 c 0,28,29
EndSplineSet
EndChar
StartChar: dotlessi
Encoding: 305 305 214
Width: 539
Flags: HW
Fore
289.25 1120 m 1,0,-1
 454.85 1120 l 1,1,-1
 257.75 0 l 1,2,-1
 92.1504 0 l 1,3,-1
 289.25 1120 l 1,0,-1
EndSplineSet
EndChar
StartChar: IJ
Encoding: 306 306 215
Width: 1022
Flags: HW
Fore
836.075 1486.5 m 1,0,-1
 1018.78 1486.5 l 1,1,-1
 774.875 97.5 l 2,2,3
 727.175 -173.5 727.175 -173.5 614.225 -295 c 128,-1,4
 501.275 -416.5 501.275 -416.5 297.875 -416.5 c 2,5,-1
 225.875 -416.5 l 1,6,-1
 255.575 -246.5 l 1,7,-1
 312.275 -246.5 l 2,8,9
 433.775 -246.5 433.775 -246.5 496.775 -169.5 c 128,-1,10
 559.775 -92.5 559.775 -92.5 593.075 97.5 c 2,11,-1
 836.075 1486.5 l 1,0,-1
367.625 1493 m 1,0,-1
 550.325 1493 l 1,1,-1
 288.425 0 l 1,2,-1
 105.725 0 l 1,3,-1
 367.625 1493 l 1,0,-1
EndSplineSet
Ligature: 0 0 'liga' I J
EndChar
StartChar: ij
Encoding: 307 307 216
Width: 957
Flags: HW
Fore
713.45 1117 m 1,0,-1
 879.05 1117 l 1,1,-1
 680.15 -23 l 1,2,-1
 679.25 -28 l 2,3,4
 645.95 -219 645.95 -219 602.75 -290 c 0,5,6
 562.25 -357 562.25 -357 484.4 -393 c 128,-1,7
 406.55 -429 406.55 -429 300.35 -429 c 2,8,-1
 238.25 -429 l 1,9,-1
 265.25 -273 l 1,10,-1
 307.55 -273 l 2,11,12
 404.75 -273 404.75 -273 445.7 -228 c 128,-1,13
 486.65 -183 486.65 -183 514.55 -23 c 2,14,-1
 713.45 1117 l 1,0,-1
790.85 1553 m 1,15,-1
 956.45 1553 l 1,16,-1
 915.95 1320 l 1,17,-1
 750.35 1320 l 1,18,-1
 790.85 1553 l 1,15,-1
391.25 1556 m 1,0,-1
 556.85 1556 l 1,1,-1
 516.35 1323 l 1,2,-1
 350.75 1323 l 1,3,-1
 391.25 1556 l 1,0,-1
315.65 1120 m 1,4,-1
 481.25 1120 l 1,5,-1
 284.15 0 l 1,6,-1
 118.55 0 l 1,7,-1
 315.65 1120 l 1,4,-1
EndSplineSet
Ligature: 0 0 'liga' i j
EndChar
StartChar: Lslash
Encoding: 321 321 225
Width: 1085
Flags: HW
Fore
367.95 1493 m 1,0,-1
 550.65 1493 l 1,1,-1
 438.15 860 l 1,2,-1
 754.95 1016 l 1,3,-1
 805.35 891 l 1,4,-1
 410.25 698 l 1,5,-1
 320.25 168 l 1,6,-1
 974.55 168 l 1,7,-1
 944.85 0 l 1,8,-1
 108.75 0 l 1,9,-1
 211.35 600 l 1,10,-1
 63.75 524 l 1,11,-1
 12.4502 647 l 1,12,-1
 239.25 760 l 1,13,-1
 367.95 1493 l 1,0,-1
EndSplineSet
KernsSLIF: 356 -139 0 0 253 -73 0 0 221 -196 0 0 210 -63 0 0 212 -63 0 0 211 -63 0 0 376 -196 0 0 255 -73 0 0 8217 -368 0 0 8216 -188 0 0 8221 -368 0 0 8220 -188 0 0 338 -63 0 0 213 -63 0 0 216 -63 0 0 214 -63 0 0 121 -73 0 0 89 -196 0 0 87 -83 0 0 86 -149 0 0 84 -139 0 0 79 -63 0 0 45 -159 0 0
EndChar
StartChar: lslash
Encoding: 322 322 226
Width: 563
Flags: HW
Fore
384.4 1556 m 1,0,-1
 550 1556 l 1,1,-1
 445.6 950 l 1,2,-1
 572.5 1014 l 1,3,-1
 620.2 895 l 1,4,-1
 419.5 793 l 1,5,-1
 277.3 0 l 1,6,-1
 111.7 0 l 1,7,-1
 235 700 l 1,8,-1
 113.5 639 l 1,9,-1
 65.7998 758 l 1,10,-1
 262.9 856 l 1,11,-1
 384.4 1556 l 1,0,-1
EndSplineSet
EndChar
StartChar: OE
Encoding: 338 338 176
Width: 2085
Flags: HW
Fore
1202.95 1323 m 1,0,-1
 1094.95 1323 l 2,1,2
 945.55 1323 945.55 1323 829 1285 c 128,-1,3
 712.45 1247 712.45 1247 634.15 1174 c 0,4,5
 514.45 1064 514.45 1064 452.35 913.5 c 128,-1,6
 390.25 763 390.25 763 390.25 582 c 0,7,8
 390.25 379 390.25 379 504.1 274.5 c 128,-1,9
 617.95 170 617.95 170 840.25 170 c 2,10,-1
 884.35 170 l 1,11,-1
 1000.45 170 l 1,12,-1
 1202.95 1323 l 1,0,-1
2080.45 1493 m 1,13,-1
 2050.75 1323 l 1,14,-1
 1385.65 1323 l 1,15,-1
 1306.45 881 l 1,16,-1
 1946.35 881 l 1,17,-1
 1916.65 711 l 1,18,-1
 1276.75 711 l 1,19,-1
 1183.15 170 l 1,20,-1
 1867.15 170 l 1,21,-1
 1837.45 0 l 1,22,-1
 856.45 0 l 2,23,24
 710.65 0 710.65 0 631 15.5 c 128,-1,25
 551.35 31 551.35 31 481.15 66 c 0,26,27
 339.85 136 339.85 136 269.2 265 c 128,-1,28
 198.55 394 198.55 394 198.55 582 c 0,29,30
 198.55 791 198.55 791 281.8 977 c 128,-1,31
 365.05 1163 365.05 1163 519.85 1298 c 0,32,33
 630.55 1396 630.55 1396 788.05 1444.5 c 128,-1,34
 945.55 1493 945.55 1493 1148.05 1493 c 2,35,-1
 2080.45 1493 l 1,13,-1
EndSplineSet
EndChar
StartChar: oe
Encoding: 339 339 177
Width: 1999
Flags: HW
Fore
1897.35 516 m 1,0,-1
 1126.95 516 l 1,1,2
 1123.35 489 1123.35 489 1121.1 464 c 128,-1,3
 1118.85 439 1118.85 439 1118.85 418 c 0,4,5
 1118.85 279 1118.85 279 1195.35 203 c 128,-1,6
 1271.85 127 1271.85 127 1412.25 127 c 0,7,8
 1520.25 127 1520.25 127 1617.9 154 c 128,-1,9
 1715.55 181 1715.55 181 1797.45 233 c 1,10,-1
 1764.15 51 l 1,11,12
 1675.05 12 1675.05 12 1580.55 -8.5 c 128,-1,13
 1486.05 -29 1486.05 -29 1387.95 -29 c 0,14,15
 1243.05 -29 1243.05 -29 1139.55 26 c 128,-1,16
 1036.05 81 1036.05 81 993.75 180 c 1,17,18
 902.85 75 902.85 75 798.9 23 c 128,-1,19
 694.95 -29 694.95 -29 573.45 -29 c 0,20,21
 401.55 -29 401.55 -29 295.8 90 c 128,-1,22
 190.05 209 190.05 209 190.05 401 c 0,23,24
 190.05 538 190.05 538 224.25 667.5 c 128,-1,25
 258.45 797 258.45 797 317.85 885 c 0,26,27
 406.95 1019 406.95 1019 516.75 1083 c 128,-1,28
 626.55 1147 626.55 1147 765.15 1147 c 0,29,30
 882.15 1147 882.15 1147 971.7 1088.5 c 128,-1,31
 1061.25 1030 1061.25 1030 1109.85 922 c 1,32,33
 1198.95 1034 1198.95 1034 1307.85 1090.5 c 128,-1,34
 1416.75 1147 1416.75 1147 1544.55 1147 c 0,35,36
 1716.45 1147 1716.45 1147 1817.7 1033 c 128,-1,37
 1918.95 919 1918.95 919 1918.95 727 c 0,38,39
 1918.95 681 1918.95 681 1913.55 628.5 c 128,-1,40
 1908.15 576 1908.15 576 1897.35 516 c 1,0,-1
1753.35 660 m 1,41,42
 1756.05 676 1756.05 676 1757.4 693 c 128,-1,43
 1758.75 710 1758.75 710 1758.75 727 c 0,44,45
 1758.75 849 1758.75 849 1694.4 920 c 128,-1,46
 1630.05 991 1630.05 991 1519.35 991 c 0,47,48
 1395.15 991 1395.15 991 1301.1 904.5 c 128,-1,49
 1207.05 818 1207.05 818 1157.55 659 c 1,50,-1
 1753.35 660 l 1,41,42
361.95 430 m 0,51,52
 361.95 278 361.95 278 419.1 202.5 c 128,-1,53
 476.25 127 476.25 127 592.35 127 c 0,54,55
 758.85 127 758.85 127 868.2 287 c 128,-1,56
 977.55 447 977.55 447 977.55 696 c 0,57,58
 977.55 843 977.55 843 919.5 917 c 128,-1,59
 861.45 991 861.45 991 747.15 991 c 0,60,61
 653.55 991 653.55 991 580.65 942.5 c 128,-1,62
 507.75 894 507.75 894 450.15 795 c 0,63,64
 407.85 721 407.85 721 384.9 626 c 128,-1,65
 361.95 531 361.95 531 361.95 430 c 0,51,52
EndSplineSet
EndChar
StartChar: longs
Encoding: 383 383 231
Width: 704
Flags: HW
TeX: 0 0 0 0
Fore
347.5 0 m 1,10,-1
 181 0 l 1,11,-1
 352.9 977 l 1,12,-1
 194.5 977 l 1,13,-1
 217.9 1120 l 1,14,-1
 376.3 1120 l 1,15,-1
 389.8 1198 l 2,16,17
 424.083 1396.08 424.083 1396.08 509.95 1476 c 128,-1,18
 595.9 1556 595.9 1556 780.4 1556 c 2,19,-1
 937 1556 l 1,0,-1
 910.9 1403 l 1,1,-1
 752.5 1403 l 2,2,3
 662.5 1403 662.5 1403 621.55 1363.5 c 128,-1,4
 580.6 1324 580.6 1324 560.8 1219 c 1,5,-1
 347.5 0 l 1,10,-1
EndSplineSet
EndChar
StartChar: florin
Encoding: 402 402 166
Width: 1233
Flags: HW
Fore
1200.35 1509 m 1,0,-1
 1172.45 1356 l 1,1,2
 1138.25 1385 1138.25 1385 1102.25 1399 c 128,-1,3
 1066.25 1413 1066.25 1413 1026.65 1413 c 0,4,5
 940.25 1413 940.25 1413 888.95 1352 c 128,-1,6
 837.65 1291 837.65 1291 815.15 1159 c 1,7,-1
 761.15 848 l 1,8,-1
 1047.35 848 l 1,9,-1
 1019.45 705 l 1,10,-1
 734.15 705 l 1,11,-1
 619.85 70 l 1,12,13
 568.55 -209 568.55 -209 484.85 -317.5 c 128,-1,14
 401.15 -426 401.15 -426 245.45 -426 c 0,15,16
 178.85 -426 178.85 -426 123.5 -413.5 c 128,-1,17
 68.1504 -401 68.1504 -401 18.6504 -375 c 1,18,-1
 46.5498 -217 l 1,19,20
 93.3496 -250 93.3496 -250 137 -266.5 c 128,-1,21
 180.65 -283 180.65 -283 222.95 -283 c 0,22,23
 310.25 -283 310.25 -283 359.3 -214.5 c 128,-1,24
 408.35 -146 408.35 -146 438.95 20 c 1,25,-1
 562.25 705 l 1,26,-1
 312.05 705 l 1,27,-1
 339.05 848 l 1,28,-1
 590.15 848 l 1,29,-1
 646.85 1178 l 1,30,31
 680.15 1369 680.15 1369 771.05 1462.5 c 128,-1,32
 861.95 1556 861.95 1556 1014.05 1556 c 0,33,34
 1055.45 1556 1055.45 1556 1100 1545 c 128,-1,35
 1144.55 1534 1144.55 1534 1200.35 1509 c 1,0,-1
EndSplineSet
EndChar
StartChar: uni0237
Encoding: 567 567 218
Width: 524
Flags: HW
Fore
279.8 1120 m 1,0,-1
 445.4 1120 l 1,1,-1
 246.5 -20 l 1,2,-1
 245.6 -25 l 2,3,4
 212.3 -216 212.3 -216 169.1 -287 c 0,5,6
 128.6 -354 128.6 -354 50.75 -390 c 128,-1,7
 -27.0996 -426 -27.0996 -426 -133.3 -426 c 2,8,-1
 -195.4 -426 l 1,9,-1
 -168.4 -270 l 1,10,-1
 -126.1 -270 l 2,11,12
 -28.9004 -270 -28.9004 -270 12.0498 -225 c 128,-1,13
 53 -180 53 -180 80.9004 -20 c 2,14,-1
 279.8 1120 l 1,0,-1
EndSplineSet
EndChar
StartChar: uni02BB
Encoding: 699 699 173
Width: 632
Flags: HW
Fore
477.35 1001 m 1,0,-1
 287.45 1001 l 1,1,-1
 318.95 1174 l 1,2,-1
 521.45 1493 l 1,3,-1
 637.55 1493 l 1,4,-1
 508.85 1174 l 1,5,-1
 477.35 1001 l 1,0,-1
EndSplineSet
KernsSLIF: 221 47 0 0 193 -243 0 0 194 -243 0 0 376 47 0 0 195 -243 0 0 192 -243 0 0 198 -301 0 0 196 -243 0 0 89 47 0 0 86 75 0 0 65 -243 0 0
EndChar
StartChar: circumflex
Encoding: 710 710 215
Width: 987
Flags: HW
Fore
657.05 1638 m 1,0,-1
 790.25 1638 l 1,1,-1
 945.05 1262 l 1,2,-1
 819.95 1262 l 1,3,-1
 705.65 1499 l 1,4,-1
 495.05 1262 l 1,5,-1
 369.95 1262 l 1,6,-1
 657.05 1638 l 1,0,-1
EndSplineSet
EndChar
StartChar: caron
Encoding: 711 711 224
Width: 994
Flags: HW
Fore
729.05 1262 m 1,0,-1
 596.75 1262 l 1,1,-1
 441.95 1638 l 1,2,-1
 568.85 1638 l 1,3,-1
 683.15 1401 l 1,4,-1
 891.05 1638 l 1,5,-1
 1017.05 1638 l 1,6,-1
 729.05 1262 l 1,0,-1
EndSplineSet
EndChar
StartChar: breve
Encoding: 728 728 218
Width: 994
Flags: HW
Fore
443.2 1608 m 1,0,-1
 545.8 1608 l 1,1,-1
 545.8 1593 l 2,2,3
 545.8 1525 545.8 1525 583.6 1491.5 c 128,-1,4
 621.4 1458 621.4 1458 698.8 1458 c 0,5,6
 775.3 1458 775.3 1458 824.8 1494.5 c 128,-1,7
 874.3 1531 874.3 1531 902.2 1608 c 1,8,-1
 1006.6 1608 l 1,9,10
 977.8 1469 977.8 1469 892.3 1395 c 128,-1,11
 806.8 1321 806.8 1321 675.4 1321 c 0,12,13
 560.2 1321 560.2 1321 500.8 1385.5 c 128,-1,14
 441.4 1450 441.4 1450 441.4 1575 c 0,15,16
 441.4 1581 441.4 1581 442.3 1592 c 128,-1,17
 443.2 1603 443.2 1603 443.2 1608 c 1,0,-1
EndSplineSet
Ligature: 0 1 'liga' space uni0306
EndChar
StartChar: dotaccent
Encoding: 729 729 219
Width: 990
Flags: HW
Fore
620.1 1552 m 1,0,-1
 802.8 1552 l 1,1,-1
 767.7 1348 l 1,2,-1
 583.2 1348 l 1,3,-1
 620.1 1552 l 1,0,-1
EndSplineSet
Ligature: 0 1 'liga' space uni0307
EndChar
StartChar: ring
Encoding: 730 730 220
Width: 991
Flags: HW
Fore
949.55 1524 m 0,0,1
 949.55 1409 949.55 1409 878 1329 c 128,-1,2
 806.45 1249 806.45 1249 702.05 1249 c 0,3,4
 598.55 1249 598.55 1249 527 1329 c 128,-1,5
 455.45 1409 455.45 1409 455.45 1524 c 0,6,7
 455.45 1640 455.45 1640 527 1719 c 128,-1,8
 598.55 1798 598.55 1798 702.05 1798 c 0,9,10
 806.45 1798 806.45 1798 878 1719 c 128,-1,11
 949.55 1640 949.55 1640 949.55 1524 c 0,0,1
838.85 1524 m 0,12,13
 838.85 1588 838.85 1588 799.7 1631.5 c 128,-1,14
 760.55 1675 760.55 1675 702.05 1675 c 0,15,16
 642.65 1675 642.65 1675 604.4 1632.5 c 128,-1,17
 566.15 1590 566.15 1590 566.15 1524 c 0,18,19
 566.15 1458 566.15 1458 604.4 1415 c 128,-1,20
 642.65 1372 642.65 1372 702.05 1372 c 0,21,22
 762.35 1372 762.35 1372 800.6 1415 c 128,-1,23
 838.85 1458 838.85 1458 838.85 1524 c 0,12,13
EndSplineSet
LCarets: 0 65535 '    ' 1 0 
Ligature: 0 1 'liga' space uni030A
EndChar
StartChar: ogonek
Encoding: 731 731 223
Width: 960
Flags: HW
Fore
357.2 0 m 1,0,-1
 464.3 0 l 1,1,2
 406.7 -67 406.7 -67 378.35 -117.5 c 128,-1,3
 350 -168 350 -168 350 -203 c 0,4,5
 350 -238 350 -238 370.25 -255 c 128,-1,6
 390.5 -272 390.5 -272 431 -272 c 0,7,8
 457.1 -272 457.1 -272 488.15 -264.5 c 128,-1,9
 519.2 -257 519.2 -257 552.5 -242 c 1,10,-1
 530.9 -374 l 1,11,12
 497.6 -386 497.6 -386 465.65 -391.5 c 128,-1,13
 433.7 -397 433.7 -397 405.8 -397 c 0,14,15
 313.1 -397 313.1 -397 266.3 -359 c 128,-1,16
 219.5 -321 219.5 -321 219.5 -246 c 0,17,18
 219.5 -194 219.5 -194 254.15 -132.5 c 128,-1,19
 288.8 -71 288.8 -71 357.2 0 c 1,0,-1
EndSplineSet
Ligature: 0 1 'liga' space uni0328
EndChar
StartChar: tilde
Encoding: 732 732 216
Width: 990
Flags: HW
Fore
675.95 1370 m 1,0,-1
 635.45 1425 l 2,1,2
 623.75 1441 623.75 1441 609.35 1451 c 128,-1,3
 594.95 1461 594.95 1461 580.55 1464 c 1,4,5
 545.45 1464 545.45 1464 522.5 1427.5 c 128,-1,6
 499.55 1391 499.55 1391 484.25 1309 c 1,7,-1
 371.75 1309 l 1,8,9
 398.75 1446 398.75 1446 456.8 1518.5 c 128,-1,10
 514.85 1591 514.85 1591 596.75 1591 c 0,11,12
 630.05 1591 630.05 1591 658.85 1575.5 c 128,-1,13
 687.65 1560 687.65 1560 711.05 1530 c 2,14,-1
 753.35 1475 l 1,15,16
 764.15 1459 764.15 1459 776.75 1450 c 128,-1,17
 789.35 1441 789.35 1441 806.45 1436 c 1,18,19
 840.65 1436 840.65 1436 862.7 1471.5 c 128,-1,20
 884.75 1507 884.75 1507 902.75 1591 c 1,21,-1
 1015.25 1591 l 1,22,23
 989.15 1454 989.15 1454 931.1 1381.5 c 128,-1,24
 873.05 1309 873.05 1309 790.25 1309 c 0,25,26
 756.05 1309 756.05 1309 726.35 1324.5 c 128,-1,27
 696.65 1340 696.65 1340 675.95 1370 c 1,0,-1
EndSplineSet
Ligature: 0 1 'liga' space tildecomb
EndChar
StartChar: hungarumlaut
Encoding: 733 733 222
Width: 998
Flags: HW
Fore
661.4 1638 m 1,0,-1
 814.4 1638 l 1,1,-1
 547.1 1262 l 1,2,-1
 423.8 1262 l 1,3,-1
 661.4 1638 l 1,0,-1
962 1638 m 1,4,-1
 1122.2 1638 l 1,5,-1
 833.3 1262 l 1,6,-1
 711.8 1262 l 1,7,-1
 962 1638 l 1,4,-1
EndSplineSet
Ligature: 0 1 'liga' space uni030B
EndChar
StartChar: uni0312
Encoding: 786 786 223
Width: 632
Flags: HW
TeX: 0 0 0 0
Fore
477.35 1001 m 1,0,-1
 287.45 1001 l 1,1,-1
 318.95 1174 l 1,2,-1
 521.45 1493 l 1,3,-1
 637.55 1493 l 1,4,-1
 508.85 1174 l 1,5,-1
 477.35 1001 l 1,0,-1
EndSplineSet
EndChar
StartChar: uni0326
Encoding: 806 806 223
Width: 961
Flags: HW
Fore
369.4 -132 m 1,5,-1
 560.2 -132 l 1,2,-1
 355.9 -452 l 1,3,-1
 239.8 -452 l 1,4,-1
 369.4 -132 l 1,5,-1
EndSplineSet
EndChar
StartChar: Omega
Encoding: 937 937 159
Width: 1486
Flags: HW
Fore
1416.55 178 m 1,0,-1
 1416.55 0 l 1,1,-1
 876.55 0 l 1,2,-1
 876.55 178 l 1,3,4
 1035.85 275 1035.85 275 1124.95 441 c 128,-1,5
 1214.05 607 1214.05 607 1214.05 809 c 0,6,7
 1214.05 1049 1214.05 1049 1095.25 1194 c 128,-1,8
 976.45 1339 976.45 1339 782.05 1339 c 0,9,10
 587.65 1339 587.65 1339 468.4 1193.5 c 128,-1,11
 349.15 1048 349.15 1048 349.15 809 c 0,12,13
 349.15 607 349.15 607 438.7 441 c 128,-1,14
 528.25 275 528.25 275 688.45 178 c 1,15,-1
 688.45 0 l 1,16,-1
 148.45 0 l 1,17,-1
 148.45 178 l 1,18,-1
 435.55 178 l 1,19,20
 293.35 317 293.35 317 228.1 466 c 128,-1,21
 162.85 615 162.85 615 162.85 799 c 0,22,23
 162.85 1117 162.85 1117 335.2 1314 c 128,-1,24
 507.55 1511 507.55 1511 782.05 1511 c 0,25,26
 1054.75 1511 1054.75 1511 1228 1314.5 c 128,-1,27
 1401.25 1118 1401.25 1118 1401.25 809 c 0,28,29
 1401.25 615 1401.25 615 1337.35 467 c 128,-1,30
 1273.45 319 1273.45 319 1128.55 178 c 1,31,-1
 1416.55 178 l 1,0,-1
EndSplineSet
EndChar
StartChar: pi
Encoding: 960 960 155
Width: 1143
Flags: HW
Fore
1101.25 913 m 1,0,-1
 937.45 913 l 1,1,-1
 842.95 426 l 1,2,3
 829.45 352 829.45 352 822.7 306 c 128,-1,4
 815.95 260 815.95 260 815.95 238 c 0,5,6
 815.95 180 815.95 180 837.1 155.5 c 128,-1,7
 858.25 131 858.25 131 907.75 131 c 0,8,9
 923.05 131 923.05 131 943.75 133.5 c 128,-1,10
 964.45 136 964.45 136 997.75 141 c 1,11,-1
 970.75 0 l 1,12,13
 943.75 -8 943.75 -8 919 -12 c 128,-1,14
 894.25 -16 894.25 -16 870.85 -16 c 0,15,16
 764.65 -16 764.65 -16 710.2 35 c 128,-1,17
 655.75 86 655.75 86 655.75 186 c 0,18,19
 655.75 232 655.75 232 665.2 304 c 128,-1,20
 674.65 376 674.65 376 705.25 537 c 2,21,-1
 777.25 913 l 1,22,-1
 483.85 913 l 1,23,-1
 309.25 0 l 1,24,-1
 146.35 0 l 1,25,-1
 321.85 913 l 1,26,-1
 284.95 913 l 2,27,28
 236.35 913 236.35 913 209.35 881 c 128,-1,29
 182.35 849 182.35 849 174.25 780 c 1,30,-1
 30.25 780 l 1,31,32
 55.4502 946 55.4502 946 119.8 1008.5 c 128,-1,33
 184.15 1071 184.15 1071 332.65 1071 c 2,34,-1
 1132.75 1071 l 1,35,-1
 1101.25 913 l 1,0,-1
EndSplineSet
EndChar
StartChar: afii10051
Encoding: 1026 1026 158
Width: 1528
Flags: HW
HStem: 0 21G<366.5 549.2> 711 170<703.1 1034.3> 1323 170<239.6 597.8 240.5 1257.5>
VStem: 1190 187.2<509 562>
Fore
1309.7 104 m 18,0,1
 1262 -166 1262 -166 1149.5 -288 c 128,-1,2
 1036.1 -410 1036.1 -410 830.9 -410 c 2,3,-1
 762.5 -410 l 1,4,-1
 792.2 -240 l 1,5,-1
 848 -240 l 2,6,7
 968.6 -240 968.6 -240 1032.5 -165 c 0,8,9
 1094.6 -90 1094.6 -90 1128.8 104 c 2,10,-1
 1179.2 394 l 2,11,12
 1190 458 1190 458 1190 509 c 0,0,0
 1190 585 1190 585 1165.7 632 c 128,-1,13
 1123.4 711 1123.4 711 1011.8 711 c 2,14,-1
 673.4 711 l 9,15,-1
 549.2 0 l 17,16,-1
 366.5 0 l 1,17,-1
 597.8 1323 l 1,18,-1
 210.8 1323 l 1,19,-1
 240.5 1493 l 1,20,-1
 1287.2 1493 l 1,21,-1
 1257.5 1323 l 1,22,-1
 780.5 1323 l 1,23,-1
 703.1 881 l 1,24,-1
 1078.4 881 l 2,25,26
 1245.8 881 1245.8 881 1326.8 762 c 0,27,28
 1377.2 688 1377.2 688 1377.2 562 c 0,0,0
 1377.2 493 1377.2 493 1362.8 410 c 10,29,-1
 1309.7 104 l 18,0,1
EndSplineSet
EndChar
StartChar: afii10053
Encoding: 1028 1028 160
Width: 1363
Flags: HW
HStem: -29 166<700.45 740.95> 711 170<402.55 993.85> 1354 166<929.95 982.15>
VStem: 160.45 192.6<530 564>
Fore
365.65 711 m 0,0,1
 353.05 627 353.05 627 353.05 555 c 0,0,0
 353.05 395 353.05 395 415.15 294 c 0,2,3
 510.55 137 510.55 137 740.95 137 c 0,4,5
 857.95 137 857.95 137 970.45 184 c 0,6,7
 1082.05 231 1082.05 231 1190.05 326 c 1,8,-1
 1153.15 115 l 1,9,10
 1045.15 43 1045.15 43 931.75 7 c 0,11,12
 819.25 -29 819.25 -29 700.45 -29 c 0,13,14
 395.35 -29 395.35 -29 256.75 178 c 0,15,16
 160.45 321 160.45 321 160.45 536 c 0,0,0
 160.45 633 160.45 633 180.25 745 c 0,17,18
 243.25 1105 243.25 1105 454.75 1312 c 0,19,20
 667.15 1520 667.15 1520 972.25 1520 c 0,21,22
 1092.85 1520 1092.85 1520 1192.75 1484 c 0,23,24
 1293.55 1449 1293.55 1449 1374.55 1378 c 1,25,-1
 1337.65 1165 l 1,26,27
 1262.05 1260 1262.05 1260 1166.65 1307 c 0,28,29
 1070.35 1354 1070.35 1354 953.35 1354 c 0,30,31
 722.95 1354 722.95 1354 573.55 1198 c 0,32,33
 460.15 1079 460.15 1079 402.55 881 c 0,34,-1
 1023.55 881 l 1,35,-1
 993.85 711 l 1,36,-1
 365.65 711 l 0,0,1
EndSplineSet
EndChar
StartChar: afii10058
Encoding: 1033 1033 165
Width: 2113
Flags: HW
HStem: 0 166<1203 1425.3> 713 166<1328.1 1526.1> 1323 170<636 1223.7>
VStem: 1747.5 195.3<514 551>
Fore
1223.7 1323 m 17,0,-1
 787.2 1323 l 1,1,2
 749.4 1110 l 2,3,4
 664.8 622 664.8 622 485.7 280 c 0,5,6
 353.4 27 353.4 27 13.2002 -29 c 9,7,-1
 42.9004 138 l 17,8,9
 240.9 184 240.9 184 330.9 352 c 0,10,11
 487.5 645 487.5 645 586.5 1210 c 2,12,-1
 636 1493 l 1,13,-1
 1435.2 1493 l 17,14,-1
 1328.1 879 l 1,15,-1
 1538.7 879 l 2,16,17
 1764.6 879 1764.6 879 1867.2 770 c 128,-1,18
 1942.8 691 1942.8 691 1942.8 551 c 0,0,0
 1942.8 499 1942.8 499 1932 439 c 8,19,20
 1893.3 218 1893.3 218 1752 109 c 128,-1,21
 1610.7 0 1610.7 0 1384.8 0 c 2,22,-1
 992.4 0 l 9,23,-1
 1223.7 1323 l 17,0,-1
1740.3 439 m 16,24,25
 1747.5 479 1747.5 479 1747.5 514 c 0,0,0
 1747.5 598 1747.5 598 1705.2 646 c 0,26,27
 1646.7 713 1646.7 713 1500 713 c 2,28,-1
 1298.4 713 l 1,29,-1
 1203 166 l 1,30,-1
 1404.6 166 l 2,31,32
 1549.5 166 1549.5 166 1633.2 234 c 0,33,34
 1716 301 1716 301 1740.3 439 c 16,24,25
EndSplineSet
EndChar
StartChar: afii10059
Encoding: 1034 1034 166
Width: 2026
Flags: HW
HStem: 0 166<1113.6 1332.3> 711 170<486.3 1027.2 1238.7 1433.1> 713 166<1410.6 1449.3>
VStem: 1658.1 195.3<514 552>
Fore
903 0 m 17,0,-1
 1027.2 711 l 1,1,-1
 456.6 711 l 1,2,-1
 332.4 0 l 1,3,-1
 150.6 0 l 1,4,-1
 411.6 1493 l 1,5,-1
 593.4 1493 l 1,6,-1
 486.3 881 l 1,7,-1
 1056.9 881 l 1,8,-1
 1164 1493 l 1,9,-1
 1345.8 1493 l 17,10,-1
 1238.7 879 l 1,11,-1
 1449.3 879 l 2,12,13
 1675.2 879 1675.2 879 1778.7 770 c 128,-1,14
 1853.4 691 1853.4 691 1853.4 552 c 0,0,0
 1853.4 500 1853.4 500 1842.6 439 c 8,15,16
 1803.9 218 1803.9 218 1662.6 109 c 128,-1,17
 1521.3 0 1521.3 0 1295.4 0 c 10,18,-1
 903 0 l 17,0,-1
1650.9 439 m 16,19,20
 1658.1 479 1658.1 479 1658.1 514 c 0,0,0
 1658.1 598 1658.1 598 1615.8 646 c 0,21,22
 1557.3 713 1557.3 713 1410.6 713 c 2,23,-1
 1209 713 l 1,24,-1
 1113.6 166 l 1,25,-1
 1315.2 166 l 2,26,27
 1460.1 166 1460.1 166 1543.8 234 c 0,28,29
 1626.6 301 1626.6 301 1650.9 439 c 16,19,20
EndSplineSet
EndChar
StartChar: afii10060
Encoding: 1035 1035 167
Width: 1524
Flags: HW
HStem: 0 21G<326.55 509.25 1070.85 1251.75> 711 170<663.15 992.55> 1323 170<199.65 557.85 200.55 1217.55>
VStem: 1150.05 188.1<509 560>
Fore
1038.45 881 m 2,0,1
 1205.85 881 1205.85 881 1286.85 762 c 0,2,3
 1338.15 687 1338.15 687 1338.15 560 c 0,0,0
 1338.15 492 1338.15 492 1323.75 410 c 2,4,-1
 1251.75 0 l 1,5,-1
 1070.85 0 l 1,6,-1
 1139.25 394 l 2,7,8
 1150.05 458 1150.05 458 1150.05 509 c 0,0,0
 1150.05 585 1150.05 585 1125.75 632 c 128,-1,9
 1083.45 711 1083.45 711 971.85 711 c 2,10,-1
 633.45 711 l 9,11,-1
 509.25 0 l 17,12,-1
 326.55 0 l 1,13,-1
 557.85 1323 l 1,14,-1
 170.85 1323 l 1,15,-1
 200.55 1493 l 1,16,-1
 1247.25 1493 l 1,17,-1
 1217.55 1323 l 1,18,-1
 740.55 1323 l 1,19,-1
 663.15 881 l 1,20,-1
 1038.45 881 l 2,0,1
EndSplineSet
EndChar
StartChar: afii10145
Encoding: 1039 1039 171
Width: 1467
Flags: HW
HStem: -426 21G<542.85 723.75> 0 170<379.95 617.55 379.95 1192.65> 1473 20G<430.35 612.15 1272.75 1454.55>
Fore
617.55 0 m 25,0,-1
 168.45 0 l 1,1,-1
 430.35 1493 l 1,2,-1
 612.15 1493 l 1,3,-1
 379.95 170 l 1,4,-1
 1040.55 170 l 1,5,-1
 1272.75 1493 l 1,6,-1
 1454.55 1493 l 1,7,-1
 1192.65 0 l 1,8,-1
 798.45 0 l 25,9,-1
 723.75 -426 l 1,10,-1
 542.85 -426 l 1,11,-1
 617.55 0 l 25,0,-1
EndSplineSet
EndChar
StartChar: afii10018
Encoding: 1041 1041 173
Width: 1327
Flags: HW
HStem: 0 166<324.4 633.1> 713 166<449.5 733.9> 1327 166<374.8 1107.4>
VStem: 958.9 195.3<514 552>
Fore
951.7 439 m 16,0,1
 958.9 479 958.9 479 958.9 514 c 0,0,0
 958.9 598 958.9 598 916.6 646 c 0,2,3
 858.1 713 858.1 713 711.4 713 c 2,4,-1
 419.8 713 l 1,5,-1
 324.4 166 l 1,6,-1
 616 166 l 2,7,8
 762.7 166 762.7 166 844.6 234 c 0,9,10
 927.4 301 927.4 301 951.7 439 c 16,0,1
1136.2 1493 m 25,11,-1
 1107.4 1327 l 25,12,-1
 527.8 1327 l 1,13,-1
 449.5 879 l 1,14,-1
 750.1 879 l 2,15,16
 976 879 976 879 1079.5 770 c 128,-1,17
 1154.2 691 1154.2 691 1154.2 552 c 0,0,0
 1154.2 500 1154.2 500 1143.4 439 c 8,18,19
 1104.7 218 1104.7 218 963.4 109 c 128,-1,20
 822.1 0 822.1 0 596.2 0 c 2,21,-1
 113.8 0 l 1,22,-1
 374.8 1493 l 1,23,-1
 1136.2 1493 l 25,11,-1
EndSplineSet
EndChar
StartChar: afii10020
Encoding: 1043 1043 175
Width: 1093
Flags: HW
Fore
116.95 0 m 1,0,-1
 377.95 1493 l 1,1,-1
 1214.05 1493 l 1,2,-1
 1184.35 1323 l 1,3,-1
 530.05 1323 l 1,4,-1
 298.75 0 l 1,5,-1
 116.95 0 l 1,0,-1
EndSplineSet
EndChar
StartChar: afii10021
Encoding: 1044 1044 176
Width: 1500
Flags: HW
HStem: -426 21G<-54.85 126.05 1105.25 1286.15> 0 170<415.85 1179.95> 1323 170<642.65 1229.45>
Fore
415.85 170 m 1,0,-1
 1027.85 170 l 17,1,-1
 1229.45 1323 l 1,2,-1
 792.95 1323 l 1,3,4
 756.05 1111 l 2,5,6
 669.65 616 669.65 616 492.35 281 c 0,7,8
 459.95 220 459.95 220 415.85 170 c 1,0,-1
141.35 170 m 1,9,10
 270.05 227 270.05 227 337.55 353 c 0,11,12
 494.15 646 494.15 646 593.15 1211 c 2,13,-1
 642.65 1493 l 1,14,-1
 1441.85 1493 l 17,15,-1
 1209.65 170 l 17,16,-1
 1390.55 170 l 1,17,-1
 1286.15 -426 l 1,18,-1
 1105.25 -426 l 1,19,-1
 1179.95 0 l 0,20,-1
 200.75 0 l 9,21,-1
 126.05 -426 l 1,22,-1
 -54.8496 -426 l 1,23,-1
 49.5498 170 l 1,24,-1
 141.35 170 l 1,9,10
EndSplineSet
EndChar
StartChar: afii10024
Encoding: 1046 1046 178
Width: 1677
Flags: HW
HStem: 0 21G<8.50002 203.8 660.1 841.9 1298.2 1493.5> 711 170<679 784.3 995.8 1101.1> 1473 20G<314.5 509.8 921.1 1102.9 1514.2 1709.5>
Fore
995.8 881 m 0,0,-1
 1129.9 881 l 9,1,-1
 1514.2 1493 l 17,2,-1
 1709.5 1493 l 1,3,-1
 1273 796 l 1,4,-1
 1493.5 0 l 1,5,-1
 1298.2 0 l 9,6,-1
 1101.1 711 l 17,7,-1
 966.1 711 l 0,8,-1
 841.9 0 l 1,9,-1
 660.1 0 l 1,10,-1
 784.3 711 l 0,11,-1
 649.3 711 l 9,12,-1
 203.8 0 l 17,13,-1
 8.5 0 l 1,14,-1
 508 796 l 1,15,-1
 314.5 1493 l 1,16,-1
 509.8 1493 l 9,17,-1
 679.9 881 l 17,18,-1
 814 881 l 0,19,-1
 921.1 1493 l 1,20,-1
 1102.9 1493 l 1,21,-1
 995.8 881 l 0,0,-1
EndSplineSet
EndChar
StartChar: afii10026
Encoding: 1048 1048 180
Width: 1455
Flags: HW
HStem: 0 21G<127 371.8 967.6 1144> 1473 20G<388 564.4 1160.2 1405>
Fore
1405 1493 m 1,0,-1
 1144 0 l 1,1,-1
 967.6 0 l 1,2,-1
 1186.3 1249 l 1,3,-1
 371.8 0 l 1,4,-1
 127 0 l 1,5,-1
 388 1493 l 1,6,-1
 564.4 1493 l 1,7,-1
 345.7 244 l 1,8,-1
 1160.2 1493 l 1,9,-1
 1405 1493 l 1,0,-1
EndSplineSet
EndChar
StartChar: afii10029
Encoding: 1051 1051 183
Width: 1455
Flags: HW
HStem: 0 21G<964.2 1146> 1323 170<758.1 1407>
Fore
-15 -28 m 17,0,1
 325.2 28 325.2 28 457.5 281 c 0,2,3
 636.6 623 636.6 623 722.1 1111 c 2,4,5
 759 1323 l 1,6,-1
 1195.5 1323 l 1,7,-1
 964.2 0 l 1,8,-1
 1146 0 l 9,9,-1
 1407 1493 l 9,10,-1
 607.8 1493 l 1,11,-1
 558.3 1211 l 2,12,13
 459.3 646 459.3 646 302.7 353 c 0,14,15
 212.7 185 212.7 185 14.7002 139 c 9,16,-1
 -15 -28 l 17,0,1
EndSplineSet
EndChar
StartChar: afii10033
Encoding: 1055 1055 187
Width: 1463
Flags: HW
Fore
1412.6 1493 m 17,0,-1
 1151.6 0 l 1,1,-1
 969.8 0 l 1,2,-1
 1201.1 1323 l 1,3,-1
 540.5 1323 l 1,4,-1
 309.2 0 l 1,5,-1
 127.4 0 l 1,6,-1
 388.4 1493 l 1,7,-1
 1412.6 1493 l 17,0,-1
EndSplineSet
EndChar
StartChar: afii10037
Encoding: 1059 1059 191
Width: 1193
Flags: HW
HStem: -29 21G<112.7 182> 1473 20G<235.1 430.4 1100 1295.3>
Fore
563.6 181 m 2,0,1
 534.8 130 534.8 130 500.6 93 c 0,2,3
 386.3 -29 386.3 -29 182 -29 c 2,4,-1
 112.7 -29 l 1,5,-1
 142.4 141 l 1,6,-1
 199.1 141 l 2,7,8
 325.1 141 325.1 141 382.7 216 c 0,9,10
 398.9 238 398.9 238 408.8 256 c 2,11,-1
 468.2 362 l 0,12,-1
 235.1 1493 l 1,13,-1
 430.4 1493 l 1,14,-1
 611.3 617 l 1,15,-1
 1100 1493 l 1,16,-1
 1295.3 1493 l 1,17,-1
 563.6 181 l 2,0,1
EndSplineSet
EndChar
StartChar: afii10038
Encoding: 1060 1060 192
Width: 1531
Flags: HW
HStem: 0 21G<585.5 767.3> 1473 20G<846.5 1028.3>
VStem: 172.4 194.4<616 648> 1245.2 194.4<842 874>
Fore
789.8 1166 m 0,0,1
 650.3 1145 650.3 1145 547.7 1058 c 0,2,3
 410 943 410 943 375.8 745 c 0,4,5
 366.8 693 366.8 693 366.8 646 c 0,0,0
 366.8 517 366.8 517 437.9 433 c 0,6,7
 510.8 346 510.8 346 642.2 325 c 0,8,-1
 789.8 1166 l 0,0,1
824 325 m 0,9,10
 962.6 346 962.6 346 1066.1 433 c 0,11,12
 1201.1 548 1201.1 548 1236.2 745 c 0,13,14
 1245.2 798 1245.2 798 1245.2 844 c 0,0,0
 1245.2 974 1245.2 974 1175.9 1058 c 0,15,16
 1102.1 1145 1102.1 1145 971.6 1166 c 0,17,-1
 824 325 l 0,9,10
613.4 158 m 0,18,19
 397.4 180 397.4 180 278.6 314 c 0,20,21
 172.4 434 172.4 434 172.4 616 c 0,0,0
 172.4 677 172.4 677 184.1 745 c 128,-1,22
 230.9 1016 230.9 1016 429.8 1177 c 0,23,24
 594.5 1312 594.5 1312 818.6 1334 c 0,25,-1
 846.5 1493 l 1,26,-1
 1028.3 1493 l 1,27,-1
 1000.4 1334 l 0,28,29
 1216.4 1311 1216.4 1311 1334.3 1177 c 0,30,31
 1439.6 1056 1439.6 1056 1439.6 874 c 0,0,0
 1439.6 813 1439.6 813 1427.9 745 c 0,32,33
 1380.2 475 1380.2 475 1183.1 314 c 0,34,35
 1018.4 180 1018.4 180 794.3 157 c 0,36,-1
 767.3 0 l 1,37,-1
 585.5 0 l 1,38,-1
 613.4 158 l 0,18,19
EndSplineSet
EndChar
StartChar: afii10040
Encoding: 1062 1062 194
Width: 1512
Flags: HW
HStem: -426 21G<1117.95 1298.85> 0 170<379.95 1192.65> 1473 20G<430.35 612.15 1272.75 1454.55>
Fore
1192.65 0 m 8,0,-1
 168.45 0 l 1,1,-1
 430.35 1493 l 1,2,-1
 612.15 1493 l 1,3,-1
 379.95 170 l 1,4,-1
 1040.55 170 l 1,5,-1
 1272.75 1493 l 1,6,-1
 1454.55 1493 l 1,7,-1
 1222.35 170 l 1,8,-1
 1403.25 170 l 1,9,-1
 1298.85 -426 l 1,10,-1
 1117.95 -426 l 1,11,-1
 1192.65 0 l 8,0,-1
EndSplineSet
EndChar
StartChar: afii10041
Encoding: 1063 1063 195
Width: 1343
Flags: HW
HStem: 0 21G<849.1 1031.8> 711 170<643.9 973.3> 1473 20G<367.6 548.5 1110.1 1292.8>
VStem: 299.2 187.2<1030 1084>
Fore
849.1 0 m 17,0,-1
 973.3 711 l 1,1,-1
 598 711 l 2,2,3
 430.6 711 430.6 711 349.6 830 c 0,4,5
 299.2 904 299.2 904 299.2 1030 c 0,0,0
 299.2 1099 299.2 1099 313.6 1182 c 2,6,-1
 367.6 1493 l 1,7,-1
 548.5 1493 l 1,8,-1
 497.2 1198 l 2,9,10
 486.4 1135 486.4 1135 486.4 1084 c 0,0,0
 486.4 1008 486.4 1008 511.6 960 c 128,-1,11
 553 881 553 881 664.6 881 c 2,12,-1
 1003 881 l 9,13,-1
 1110.1 1493 l 17,14,-1
 1292.8 1493 l 1,15,-1
 1031.8 0 l 9,16,-1
 849.1 0 l 17,0,-1
EndSplineSet
EndChar
StartChar: afii10042
Encoding: 1064 1064 196
Width: 1951
Flags: HW
HStem: 0 170<364.4 1636.1> 1473 20G<413.9 595.7 1715.3 1897.1>
Fore
1015.1 170 m 9,0,-1
 1484 170 l 1,1,-1
 1715.3 1493 l 1,2,-1
 1897.1 1493 l 1,3,-1
 1636.1 0 l 1,4,-1
 152.9 0 l 1,5,-1
 413.9 1493 l 1,6,-1
 595.7 1493 l 1,7,-1
 364.4 170 l 1,8,-1
 833.3 170 l 1,9,-1
 1051.1 1415 l 1,10,-1
 1232.9 1415 l 1,11,-1
 1015.1 170 l 9,0,-1
EndSplineSet
EndChar
StartChar: afii10043
Encoding: 1065 1065 197
Width: 1996
Flags: HW
HStem: -426 21G<1602.45 1783.35> 0 170<405.45 1677.15> 1473 20G<455.85 637.65 1757.25 1939.05>
Fore
1677.15 0 m 17,0,-1
 193.95 0 l 1,1,-1
 455.85 1493 l 1,2,-1
 637.65 1493 l 1,3,-1
 405.45 170 l 1,4,-1
 874.35 170 l 1,5,-1
 1092.15 1415 l 1,6,-1
 1273.95 1415 l 1,7,-1
 1056.15 170 l 9,8,-1
 1525.05 170 l 1,9,-1
 1757.25 1493 l 1,10,-1
 1939.05 1493 l 1,11,-1
 1706.85 170 l 17,12,-1
 1887.75 170 l 1,13,-1
 1783.35 -426 l 1,14,-1
 1602.45 -426 l 1,15,-1
 1677.15 0 l 17,0,-1
EndSplineSet
EndChar
StartChar: afii10044
Encoding: 1066 1066 198
Width: 1618
Flags: HW
HStem: 0 166<614.7 921.6> 713 166<739.8 1036.8> 1323 170<258.3 635.4>
VStem: 1249.2 195.3<514 552>
Fore
404.1 0 m 9,0,-1
 635.4 1323 l 25,1,-1
 229.5 1323 l 17,2,-1
 259.2 1493 l 1,3,-1
 846.9 1493 l 17,4,-1
 739.8 879 l 1,5,-1
 1040.4 879 l 2,6,7
 1266.3 879 1266.3 879 1369.8 770 c 128,-1,8
 1444.5 691 1444.5 691 1444.5 552 c 0,0,0
 1444.5 500 1444.5 500 1433.7 439 c 8,9,10
 1395 218 1395 218 1253.7 109 c 128,-1,11
 1112.4 0 1112.4 0 886.5 0 c 2,12,-1
 404.1 0 l 9,0,-1
1242 439 m 16,13,14
 1249.2 479 1249.2 479 1249.2 514 c 0,0,0
 1249.2 598 1249.2 598 1206.9 646 c 0,15,16
 1148.4 713 1148.4 713 1001.7 713 c 2,17,-1
 710.1 713 l 1,18,-1
 614.7 166 l 1,19,-1
 906.3 166 l 2,20,21
 1051.2 166 1051.2 166 1134.9 234 c 0,22,23
 1217.7 301 1217.7 301 1242 439 c 16,13,14
EndSplineSet
EndChar
StartChar: afii10046
Encoding: 1068 1068 200
Width: 1327
Flags: HW
HStem: 0 166<324.4 633.1> 713 166<449.5 733.9> 1473 20G<374.8 556.6>
VStem: 958.9 195.3<514 552>
Fore
951.7 439 m 16,0,1
 958.9 479 958.9 479 958.9 514 c 0,0,0
 958.9 598 958.9 598 916.6 646 c 0,2,3
 858.1 713 858.1 713 711.4 713 c 2,4,-1
 419.8 713 l 1,5,-1
 324.4 166 l 1,6,-1
 616 166 l 2,7,8
 762.7 166 762.7 166 844.6 234 c 0,9,10
 927.4 301 927.4 301 951.7 439 c 16,0,1
374.8 1493 m 9,11,-1
 556.6 1493 l 17,12,-1
 449.5 879 l 1,13,-1
 750.1 879 l 2,14,15
 976 879 976 879 1079.5 770 c 128,-1,16
 1154.2 691 1154.2 691 1154.2 552 c 0,0,0
 1154.2 500 1154.2 500 1143.4 439 c 8,17,18
 1104.7 218 1104.7 218 963.4 109 c 128,-1,19
 822.1 0 822.1 0 596.2 0 c 2,20,-1
 113.8 0 l 1,21,-1
 374.8 1493 l 9,11,-1
EndSplineSet
EndChar
StartChar: afii10047
Encoding: 1069 1069 201
Width: 1353
Flags: HW
HStem: -29 166<443.35 498.25> 711 170<452.35 1051.75> 1354 166<689.05 729.55>
VStem: 1076.05 193.5<914 964>
Fore
1051.75 711 m 0,0,-1
 423.55 711 l 1,1,-1
 453.25 881 l 1,2,-1
 1074.25 881 l 0,3,4
 1076.05 910 1076.05 910 1076.05 938 c 0,0,0
 1076.05 1097 1076.05 1097 1014.85 1198 c 0,5,6
 919.45 1354 919.45 1354 689.05 1354 c 0,7,8
 572.05 1354 572.05 1354 459.55 1307 c 0,9,10
 347.95 1260 347.95 1260 239.95 1165 c 1,11,-1
 276.85 1378 l 1,12,13
 383.05 1449 383.05 1449 496.45 1484 c 0,14,15
 608.95 1520 608.95 1520 729.55 1520 c 0,16,17
 1034.65 1520 1034.65 1520 1173.25 1312 c 0,18,19
 1269.55 1169 1269.55 1169 1269.55 954 c 0,0,0
 1269.55 857 1269.55 857 1249.75 745 c 0,20,21
 1186.75 386 1186.75 386 975.25 178 c 0,22,23
 762.85 -29 762.85 -29 457.75 -29 c 0,24,25
 338.95 -29 338.95 -29 239.05 7 c 0,26,27
 138.25 43 138.25 43 55.4502 115 c 1,28,-1
 92.3496 326 l 1,29,30
 167.95 231 167.95 231 263.35 184 c 0,31,32
 359.65 137 359.65 137 476.65 137 c 0,33,34
 707.05 137 707.05 137 856.45 294 c 0,35,36
 998.65 441 998.65 441 1051.75 711 c 0,0,-1
EndSplineSet
EndChar
StartChar: afii10048
Encoding: 1070 1070 202
Width: 2004
Flags: HW
HStem: -29 164<1141.9 1174.3> 1356 164<1384.9 1417.3>
VStem: 636.1 194.4<530 564> 1726.9 193.5<914 964>
Fore
1386.7 1356 m 0,0,1
 1188.7 1356 1188.7 1356 1042.9 1192 c 0,2,3
 898 1028 898 1028 848.5 745 c 0,4,5
 830.5 643 830.5 643 830.5 556 c 0,0,0
 830.5 404 830.5 404 886.3 299 c 0,6,7
 974.5 135 974.5 135 1172.5 135 c 128,-1,8
 1370.5 135 1370.5 135 1514.5 299 c 0,9,10
 1659.4 463 1659.4 463 1708.9 745 c 0,11,12
 1726.9 847 1726.9 847 1726.9 934 c 0,0,0
 1726.9 1087 1726.9 1087 1671.1 1192 c 0,13,14
 1584.7 1356 1584.7 1356 1386.7 1356 c 0,0,1
686.5 881 m 17,15,16
 759.4 1142 759.4 1142 925 1310 c 0,17,18
 1131.1 1520 1131.1 1520 1415.5 1520 c 0,19,20
 1698.1 1520 1698.1 1520 1830.4 1310 c 0,21,22
 1920.4 1166 1920.4 1166 1920.4 957 c 0,0,0
 1920.4 858 1920.4 858 1900.6 745 c 0,23,24
 1838.5 392 1838.5 392 1632.4 182 c 0,25,26
 1426.3 -29 1426.3 -29 1143.7 -29 c 0,27,28
 860.2 -29 860.2 -29 727 181 c 0,29,30
 636.1 325 636.1 325 636.1 535 c 0,0,0
 636.1 618 636.1 618 650.5 711 c 9,31,-1
 469.6 711 l 17,32,-1
 345.4 0 l 1,33,-1
 163.6 0 l 1,34,-1
 424.6 1493 l 1,35,-1
 606.4 1493 l 1,36,-1
 499.3 881 l 9,37,-1
 686.5 881 l 17,15,16
EndSplineSet
EndChar
StartChar: afii10049
Encoding: 1071 1071 203
Width: 1344
Flags: HW
HStem: 0 21G<-13.35 181.95 851.55 1033.35> 631 166<734.55 962.25> 1327 166<849.75 1083.75>
VStem: 343.05 193.5<966 992>
Fore
518.55 700 m 1,0,1
 412.35 736 412.35 736 370.05 829 c 128,-1,2
 343.05 888 343.05 888 343.05 966 c 0,0,0
 343.05 1011 343.05 1011 352.05 1063 c 0,3,4
 389.85 1279 389.85 1279 521.25 1386 c 128,-1,5
 653.55 1493 653.55 1493 883.95 1493 c 2,6,-1
 1294.35 1493 l 1,7,-1
 1033.35 0 l 1,8,-1
 851.55 0 l 1,9,-1
 962.25 631 l 1,10,-1
 764.25 631 l 2,11,12
 656.25 631 656.25 631 585.15 582 c 128,-1,13
 514.05 533 514.05 533 420.45 383 c 1,14,-1
 181.95 0 l 1,15,-1
 -13.3496 0 l 1,16,-1
 242.25 408 l 1,17,18
 320.55 534 320.55 534 388.05 606 c 128,-1,19
 456.45 678 456.45 678 518.55 700 c 1,0,1
1083.75 1327 m 1,20,-1
 855.15 1327 l 2,21,22
 723.75 1327 723.75 1327 644.55 1260 c 128,-1,23
 566.25 1194 566.25 1194 543.75 1063 c 128,-1,24
 536.55 1024 536.55 1024 536.55 990 c 0,0,0
 536.55 912 536.55 912 575.25 864 c 128,-1,25
 631.05 797 631.05 797 762.45 797 c 2,26,-1
 991.05 797 l 1,27,-1
 1083.75 1327 l 1,20,-1
EndSplineSet
EndChar
StartChar: afii10066
Encoding: 1073 1073 205
Width: 1190
Flags: HW
HStem: -29 156<519.4 550.9> 1367 153<775.9 836.2>
VStem: 144.1 177.3<386 420> 374.5 172.8<1204 1238> 919.9 179.1<674 711>
Fore
1090.9 1297 m 17,0,1
 1011.7 1367 1011.7 1367 796.6 1367 c 0,2,3
 568.9 1367 568.9 1367 548.2 1250 c 16,4,5
 547.3 1244 547.3 1244 547.3 1238 c 0,0,0
 547.3 1155 547.3 1155 761.5 1110 c 0,6,7
 941.5 1073 941.5 1073 1027.9 961 c 0,8,9
 1099 869 1099 869 1099 711 c 0,0,0
 1099 637 1099 637 1083.7 549 c 0,10,11
 1036.9 284 1036.9 284 886.6 128 c 0,12,13
 735.4 -29 735.4 -29 519.4 -29 c 0,14,15
 304.3 -29 304.3 -29 208 128 c 0,16,17
 144.1 232 144.1 232 144.1 389 c 0,0,0
 144.1 467 144.1 467 160.3 559 c 0,18,19
 195.4 763 195.4 763 347.5 928 c 0,20,21
 406.9 992 406.9 992 480.7 1028 c 1,22,23
 374.5 1094 374.5 1094 374.5 1204 c 0,0,0
 374.5 1225 374.5 1225 379 1248 c 8,24,25
 426.7 1520 426.7 1520 823.6 1520 c 0,26,27
 1022.5 1520 1022.5 1520 1117.9 1450 c 9,28,-1
 1090.9 1297 l 17,0,1
595.9 978 m 1,29,30
 530.2 949 530.2 949 467.2 876 c 0,31,32
 370 763 370 763 334.9 559 c 0,33,34
 321.4 481 321.4 481 321.4 416 c 0,0,0
 321.4 312 321.4 312 355.6 242 c 0,35,36
 413.2 127 413.2 127 547.3 127 c 0,37,38
 679.6 127 679.6 127 776.8 243 c 128,-1,39
 874.9 359 874.9 359 908.2 549 c 0,40,41
 919.9 618 919.9 618 919.9 675 c 0,0,0
 919.9 781 919.9 781 877.6 844 c 0,42,43
 808.3 947 808.3 947 696.7 958 c 0,44,45
 640 964 640 964 595.9 978 c 1,29,30
EndSplineSet
EndChar
StartChar: afii10067
Encoding: 1074 1074 206
Width: 1138
Flags: HW
HStem: 0 153<315.45 570.15> 514 159<406.35 642.15> 967 153<319.05 699.75>
VStem: 819.45 173.7<367 385> 865.35 172.8<851 898>
Fore
378.45 514 m 1,0,-1
 315.45 153 l 1,1,-1
 551.25 153 l 2,2,3
 667.35 153 667.35 153 734.85 199 c 0,4,5
 798.75 243 798.75 243 814.95 334 c 0,6,7
 819.45 357 819.45 357 819.45 377 c 0,0,0
 819.45 438 819.45 438 781.65 469 c 0,8,9
 727.65 514 727.65 514 614.25 514 c 2,10,-1
 378.45 514 l 1,0,-1
457.65 967 m 1,11,-1
 406.35 673 l 1,12,-1
 624.15 673 l 2,13,14
 729.45 673 729.45 673 790.65 711 c 0,15,16
 849.15 747 849.15 747 862.65 822 c 0,17,18
 865.35 838 865.35 838 865.35 851 c 0,0,0
 865.35 902 865.35 902 829.35 930 c 0,19,20
 780.75 967 780.75 967 675.45 967 c 2,21,-1
 457.65 967 l 1,11,-1
319.05 1120 m 1,22,-1
 713.25 1120 l 2,23,24
 890.55 1120 890.55 1120 973.35 1048 c 128,-1,25
 1038.15 992 1038.15 992 1038.15 898 c 0,0,0
 1038.15 872 1038.15 872 1032.75 843 c 0,26,27
 1014.75 740 1014.75 740 955.35 680 c 0,28,29
 895.95 619 895.95 619 797.85 604 c 1,30,31
 908.55 580 908.55 580 958.05 504 c 128,-1,32
 993.15 450 993.15 450 993.15 376 c 0,0,0
 993.15 347 993.15 347 987.75 314 c 0,33,34
 961.65 164 961.65 164 842.85 82 c 0,35,36
 724.95 0 724.95 0 532.35 0 c 2,37,-1
 122.85 0 l 1,38,-1
 319.05 1120 l 1,22,-1
EndSplineSet
EndChar
StartChar: afii10068
Encoding: 1075 1075 207
Width: 963
Flags: HW
HStem: 0 21G<122.4 288> 950 170<318.6 999.9>
Fore
122.4 0 m 1,0,-1
 318.6 1120 l 1,1,-1
 1029.6 1120 l 1,2,-1
 999.9 950 l 1,3,-1
 454.5 950 l 1,4,-1
 288 0 l 1,5,-1
 122.4 0 l 1,0,-1
EndSplineSet
EndChar
StartChar: afii10069
Encoding: 1076 1076 208
Width: 1293
Flags: HW
HStem: 0 153<359.15 980.15> 967 153<495.05 983.75>
Fore
359.15 153 m 0,0,-1
 841.55 153 l 17,1,-1
 983.75 967 l 1,2,-1
 633.65 967 l 1,3,4
 610.25 833 l 2,5,6
 540.05 430 540.05 430 394.25 207 c 0,7,8
 373.55 190 373.55 190 359.15 153 c 0,0,-1
119.75 153 m 0,9,10
 208.85 193 208.85 193 259.25 278 c 0,11,12
 384.35 489 384.35 489 458.15 908 c 2,13,-1
 495.05 1120 l 1,14,-1
 1176.35 1120 l 17,15,-1
 1007.15 153 l 17,16,-1
 1172.75 153 l 1,17,-1
 1071.05 -426 l 1,18,-1
 905.45 -426 l 1,19,-1
 980.15 0 l 0,20,-1
 162.95 0 l 9,21,-1
 88.25 -426 l 1,22,-1
 -77.3496 -426 l 1,23,-1
 24.3496 153 l 1,24,-1
 119.75 153 l 0,9,10
EndSplineSet
EndChar
StartChar: afii10072
Encoding: 1078 1078 210
Width: 1424
Flags: HW
HStem: 0 21G<14.9 192.2 563.9 728.6 1100.3 1277.6> 521 152<579.2 654.8 846.5 922.1> 1100 20G<249.8 426.2 760.1 924.8 1258.7 1435.1>
Fore
846.5 673 m 0,0,-1
 948.2 673 l 9,1,-1
 1258.7 1120 l 17,2,-1
 1435.1 1120 l 1,3,-1
 1076 597 l 1,4,-1
 1277.6 0 l 1,5,-1
 1100.3 0 l 9,6,-1
 922.1 521 l 17,7,-1
 819.5 521 l 0,8,-1
 728.6 0 l 1,9,-1
 563.9 0 l 1,10,-1
 654.8 521 l 0,11,-1
 552.2 521 l 9,12,-1
 192.2 0 l 17,13,-1
 14.9004 0 l 1,14,-1
 425.3 597 l 1,15,-1
 249.8 1120 l 1,16,-1
 426.2 1120 l 9,17,-1
 580.1 673 l 17,18,-1
 681.8 673 l 0,19,-1
 760.1 1120 l 1,20,-1
 924.8 1120 l 1,21,-1
 846.5 673 l 0,0,-1
EndSplineSet
EndChar
StartChar: afii10073
Encoding: 1079 1079 211
Width: 1047
Flags: HW
HStem: -29 153<354.25 404.65> 521 152<382.15 522.55> 988 160<571.15 612.55>
VStem: 716.95 164.7<360 383> 778.15 168.3<853 908>
Fore
689.05 604 m 1,0,1
 797.05 580 797.05 580 846.55 507 c 128,-1,2
 881.65 454 881.65 454 881.65 383 c 0,0,0
 881.65 356 881.65 356 876.25 326 c 0,3,4
 846.55 153 846.55 153 714.25 62 c 128,-1,5
 581.95 -29 581.95 -29 367.75 -29 c 0,6,7
 295.75 -29 295.75 -29 221.95 -15 c 0,8,9
 149.05 -1 149.05 -1 72.5498 27 c 1,10,-1
 103.15 198 l 1,11,12
 159.85 161 159.85 161 233.65 142 c 0,13,14
 306.55 124 306.55 124 390.25 124 c 0,15,16
 526.15 124 526.15 124 612.55 180 c 0,17,18
 698.05 236 698.05 236 713.35 326 c 0,19,20
 716.95 344 716.95 344 716.95 360 c 0,0,0
 716.95 425 716.95 425 668.35 470 c 0,21,22
 612.55 521 612.55 521 489.25 521 c 2,23,-1
 356.05 521 l 1,24,-1
 383.05 673 l 1,25,-1
 522.55 673 l 2,26,27
 626.95 673 626.95 673 694.45 717 c 0,28,29
 763.75 762 763.75 762 776.35 832 c 0,30,31
 778.15 843 778.15 843 778.15 853 c 0,0,0
 778.15 904 778.15 904 732.25 942 c 0,32,33
 678.25 988 678.25 988 571.15 988 c 0,34,35
 507.25 988 507.25 988 432.55 975 c 0,36,37
 357.85 962 357.85 962 265.15 933 c 1,38,-1
 294.85 1100 l 1,39,40
 387.55 1124 387.55 1124 465.85 1136 c 128,-1,41
 544.15 1148 544.15 1148 612.55 1148 c 0,42,43
 788.95 1148 788.95 1148 877.15 1070 c 0,44,45
 946.45 1008 946.45 1008 946.45 908 c 0,0,0
 946.45 881 946.45 881 941.05 850 c 0,46,47
 924.85 757 924.85 757 860.05 693 c 0,48,49
 794.35 628 794.35 628 689.05 604 c 1,0,1
EndSplineSet
EndChar
StartChar: afii10074
Encoding: 1080 1080 212
Width: 1277
Flags: HW
HStem: 0 21G<137.85 350.25 836.25 1000.95> 1100 20G<334.05 498.75 983.85 1197.15>
Fore
1197.15 1120 m 1,0,-1
 1000.95 0 l 1,1,-1
 836.25 0 l 1,2,-1
 993.75 899 l 1,3,-1
 350.25 0 l 1,4,-1
 137.85 0 l 1,5,-1
 334.05 1120 l 1,6,-1
 498.75 1120 l 1,7,-1
 341.25 223 l 1,8,-1
 983.85 1120 l 1,9,-1
 1197.15 1120 l 1,0,-1
EndSplineSet
EndChar
StartChar: afii10076
Encoding: 1082 1082 214
Width: 1180
Flags: HW
HStem: 0 21<238.95 405.45 917.55 1133.55> 1100 20<238.95 405.45 899.55 1111.05>
VStem: 238.95 166.5<0 547 0 1120>
Fore
332.55 1120 m 1,0,-1
 499.05 1120 l 1,1,-1
 414.45 637 l 1,2,-1
 993.15 1120 l 1,3,-1
 1204.65 1120 l 1,4,-1
 578.25 596 l 1,5,-1
 1030.95 0 l 1,6,-1
 814.95 0 l 1,7,-1
 398.25 547 l 1,8,-1
 302.85 0 l 1,9,-1
 136.35 0 l 1,10,-1
 332.55 1120 l 1,0,-1
EndSplineSet
EndChar
StartChar: afii10077
Encoding: 1083 1083 215
Width: 1236
Flags: HW
HStem: 0 21G<815.35 980.95> 967 153<633.55 1177.15>
Fore
-8.15039 -29 m 17,0,1
 274.45 0 274.45 0 395.05 207 c 0,2,3
 547.15 467 547.15 467 611.05 833 c 2,4,5
 634.45 967 l 1,6,-1
 984.55 967 l 1,7,-1
 815.35 0 l 1,8,-1
 980.95 0 l 9,9,-1
 1177.15 1120 l 9,10,-1
 495.85 1120 l 1,11,-1
 458.95 908 l 2,12,13
 384.25 485 384.25 485 260.05 278 c 0,14,15
 184.45 151 184.45 151 18.8496 124 c 9,16,-1
 -8.15039 -29 l 17,0,1
EndSplineSet
EndChar
StartChar: afii10078
Encoding: 1084 1084 216
Width: 1467
Flags: HW
HStem: 0 21G<147.85 308.05 1030.75 1190.95> 1100 20G<344.05 579.85 1153.15 1387.15>
Fore
344.05 1120 m 1,0,-1
 579.85 1120 l 1,1,-1
 734.65 370 l 1,2,-1
 1153.15 1120 l 1,3,-1
 1387.15 1120 l 1,4,-1
 1190.95 0 l 1,5,-1
 1030.75 0 l 1,6,-1
 1196.35 944 l 1,7,-1
 790.45 215 l 1,8,-1
 624.85 215 l 1,9,-1
 473.65 944 l 1,10,-1
 308.05 0 l 1,11,-1
 147.85 0 l 1,12,-1
 344.05 1120 l 1,0,-1
EndSplineSet
EndChar
StartChar: afii10079
Encoding: 1085 1085 217
Width: 1284
Flags: HW
HStem: 0 21G<138.25 303.85 842.95 1008.55> 516 143<419.05 932.95>
Fore
334.45 1120 m 1,0,-1
 500.05 1120 l 1,1,-1
 419.05 659 l 1,2,-1
 958.15 659 l 1,3,-1
 1039.15 1120 l 1,4,-1
 1204.75 1120 l 1,5,-1
 1008.55 0 l 1,6,-1
 842.95 0 l 1,7,-1
 932.95 516 l 1,8,-1
 393.85 516 l 1,9,-1
 303.85 0 l 1,10,-1
 138.25 0 l 1,11,-1
 334.45 1120 l 1,0,-1
EndSplineSet
EndChar
StartChar: afii10081
Encoding: 1087 1087 219
Width: 1283
Flags: HW
HStem: 0 21G<138.25 303.85 842.95 1008.55> 966 154<334.45 1012.15>
Fore
1204.75 1120 m 17,0,-1
 1008.55 0 l 1,1,-1
 842.95 0 l 1,2,-1
 1012.15 966 l 1,3,-1
 473.05 966 l 1,4,-1
 303.85 0 l 1,5,-1
 138.25 0 l 1,6,-1
 334.45 1120 l 1,7,-1
 1204.75 1120 l 17,0,-1
EndSplineSet
EndChar
StartChar: afii10084
Encoding: 1090 1090 222
Width: 1037
Flags: HW
HStem: 0 21G<366.2 529.1> 950 170<160.1 532.7 161 1097>
Fore
161 1120 m 1,0,-1
 1126.7 1120 l 1,1,-1
 1097 950 l 1,2,-1
 695.6 950 l 1,3,-1
 529.1 0 l 1,4,-1
 366.2 0 l 1,5,-1
 532.7 950 l 1,6,-1
 131.3 950 l 1,7,-1
 161 1120 l 1,0,-1
EndSplineSet
EndChar
StartChar: afii10086
Encoding: 1092 1092 224
Width: 1782
Flags: HW
HStem: -29 156<477.6 531.6 1164.3 1209.3> 991 156<660.3 705.3 1337.1 1388.4> 1473 20G<1013.1 1179.6>
VStem: 171.6 176.4<357 391> 1520.7 173.7<725 759>
Fore
366 559 m 0,0,1
 348 458 348 458 348 381 c 0,0,0
 348 294 348 294 370.5 236 c 0,2,3
 411.9 127 411.9 127 531.6 127 c 128,-1,4
 651.3 127 651.3 127 732.3 236 c 0,5,6
 812.4 346 812.4 346 850.2 559 c 128,-1,7
 867.3 659 867.3 659 867.3 737 c 0,0,0
 867.3 824 867.3 824 845.7 882 c 0,8,9
 802.5 991 802.5 991 682.8 991 c 128,-1,10
 563.1 991 563.1 991 483.9 882 c 0,11,12
 402.9 773 402.9 773 366 559 c 0,0,1
677.4 -426 m 17,13,-1
 777.3 143 l 1,14,15
 722.4 60 722.4 60 645 16 c 0,16,17
 568.5 -29 568.5 -29 477.6 -29 c 0,18,19
 296.7 -29 296.7 -29 220.2 126 c 0,20,21
 171.6 223 171.6 223 171.6 365 c 0,0,0
 171.6 451 171.6 451 189.6 555 c 0,22,23
 238.2 833 238.2 833 370.5 990 c 128,-1,24
 501.9 1147 501.9 1147 683.7 1147 c 0,25,26
 773.7 1147 773.7 1147 835.8 1104 c 0,27,28
 896.1 1060 896.1 1060 923.1 977 c 1,29,-1
 1013.1 1493 l 1,30,-1
 1179.6 1493 l 1,31,-1
 1089.6 977 l 1,32,33
 1145.4 1060 1145.4 1060 1222.8 1104 c 0,34,35
 1298.4 1147 1298.4 1147 1388.4 1147 c 0,36,37
 1571.1 1147 1571.1 1147 1647.6 990 c 0,38,39
 1694.4 894 1694.4 894 1694.4 752 c 0,0,0
 1694.4 663 1694.4 663 1675.5 555 c 0,40,41
 1627.8 282 1627.8 282 1496.4 126 c 0,42,43
 1364.1 -29 1364.1 -29 1182.3 -29 c 0,44,45
 1090.5 -29 1090.5 -29 1030.2 14 c 0,46,47
 968.1 58 968.1 58 943.8 141 c 1,48,-1
 843.9 -426 l 9,49,-1
 677.4 -426 l 17,13,-1
1502.7 559 m 0,50,51
 1520.7 661 1520.7 661 1520.7 739 c 0,0,0
 1520.7 825 1520.7 825 1499.1 882 c 0,52,53
 1456.8 991 1456.8 991 1337.1 991 c 0,54,55
 1216.5 991 1216.5 991 1135.5 882 c 0,56,57
 1053.6 772 1053.6 772 1016.7 559 c 0,58,59
 999.6 461 999.6 461 999.6 384 c 0,0,0
 999.6 296 999.6 296 1022.1 237 c 128,-1,60
 1065.3 127 1065.3 127 1185.9 127 c 0,61,62
 1305.6 127 1305.6 127 1385.7 236 c 0,63,64
 1464.9 345 1464.9 345 1502.7 559 c 0,50,51
EndSplineSet
EndChar
StartChar: afii10088
Encoding: 1094 1094 226
Width: 1321
Flags: HW
HStem: 0 153<330.85 1008.55> 1100 20G<334.45 500.05 1039.15 1204.75>
Fore
1008.55 0 m 8,0,-1
 138.25 0 l 1,1,-1
 334.45 1120 l 1,2,-1
 500.05 1120 l 1,3,-1
 330.85 153 l 1,4,-1
 869.95 153 l 1,5,-1
 1039.15 1120 l 1,6,-1
 1204.75 1120 l 1,7,-1
 1035.55 153 l 1,8,-1
 1201.15 153 l 1,9,-1
 1099.45 -426 l 1,10,-1
 933.85 -426 l 1,11,-1
 1008.55 0 l 8,0,-1
EndSplineSet
EndChar
StartChar: afii10089
Encoding: 1095 1095 227
Width: 1155
Flags: HW
HStem: 0 21G<719.65 885.25> 521 153<559.45 810.55> 1100 20G<294.85 460.45 915.85 1081.45>
VStem: 243.55 172.8<778 832>
Fore
719.65 0 m 17,0,-1
 810.55 521 l 1,1,-1
 501.85 521 l 2,2,3
 365.05 521 365.05 521 289.45 616 c 0,4,5
 243.55 674 243.55 674 243.55 778 c 0,0,0
 243.55 827 243.55 827 253.45 886 c 2,6,-1
 294.85 1120 l 1,7,-1
 460.45 1120 l 1,8,-1
 423.55 909 l 2,9,10
 416.35 867 416.35 867 416.35 832 c 0,0,0
 416.35 771 416.35 771 439.75 733 c 0,11,12
 476.65 674 476.65 674 570.25 674 c 2,13,-1
 837.55 674 l 9,14,-1
 915.85 1120 l 17,15,-1
 1081.45 1120 l 1,16,-1
 885.25 0 l 9,17,-1
 719.65 0 l 17,0,-1
EndSplineSet
EndChar
StartChar: afii10090
Encoding: 1096 1096 228
Width: 1697
Flags: HW
HStem: 0 153<352.55 1420.85> 1100 20G<356.15 521.75 1451.45 1617.05>
Fore
899.75 153 m 9,0,-1
 1282.25 153 l 1,1,-1
 1451.45 1120 l 1,2,-1
 1617.05 1120 l 1,3,-1
 1420.85 0 l 1,4,-1
 159.95 0 l 1,5,-1
 356.15 1120 l 1,6,-1
 521.75 1120 l 1,7,-1
 352.55 153 l 1,8,-1
 734.15 153 l 1,9,-1
 892.55 1061 l 1,10,-1
 1058.15 1061 l 1,11,-1
 899.75 153 l 9,0,-1
EndSplineSet
EndChar
StartChar: afii10091
Encoding: 1097 1097 229
Width: 1734
Flags: HW
HStem: 0 153<352.55 1420.85> 1100 20G<356.15 521.75 1451.45 1617.05>
Fore
1420.85 0 m 17,0,-1
 159.95 0 l 1,1,-1
 356.15 1120 l 1,2,-1
 521.75 1120 l 1,3,-1
 352.55 153 l 1,4,-1
 734.15 153 l 1,5,-1
 892.55 1061 l 1,6,-1
 1058.15 1061 l 1,7,-1
 899.75 153 l 9,8,-1
 1282.25 153 l 1,9,-1
 1451.45 1120 l 1,10,-1
 1617.05 1120 l 1,11,-1
 1447.85 153 l 17,12,-1
 1613.45 153 l 1,13,-1
 1511.75 -426 l 1,14,-1
 1346.15 -426 l 1,15,-1
 1420.85 0 l 17,0,-1
EndSplineSet
EndChar
StartChar: afii10092
Encoding: 1098 1098 230
Width: 1366
Flags: HW
HStem: 0 153<543.45 794.55> 514 153<633.45 866.55> 966 154<200.55 520.05>
VStem: 1046.55 180<376 409>
Fore
1042.95 332 m 16,0,1
 1046.55 356 1046.55 356 1046.55 376 c 0,0,0
 1046.55 436 1046.55 436 1010.55 468 c 0,2,3
 958.35 514 958.35 514 843.15 514 c 2,4,-1
 606.45 514 l 1,5,-1
 543.45 153 l 1,6,-1
 780.15 153 l 2,7,8
 896.25 153 896.25 153 963.75 199 c 0,9,10
 1026.75 242 1026.75 242 1042.95 332 c 16,0,1
520.05 966 m 25,11,-1
 174.45 966 l 17,12,-1
 201.45 1120 l 1,13,-1
 712.65 1120 l 17,14,-1
 633.45 667 l 1,15,-1
 877.35 667 l 2,16,17
 1064.55 667 1064.55 667 1158.15 582 c 0,18,19
 1226.55 520 1226.55 520 1226.55 409 c 0,0,0
 1226.55 373 1226.55 373 1219.35 332 c 8,20,21
 1189.65 164 1189.65 164 1070.85 82 c 0,22,23
 952.95 0 952.95 0 760.35 0 c 2,24,-1
 350.85 0 l 9,25,-1
 520.05 966 l 25,11,-1
EndSplineSet
EndChar
StartChar: afii10094
Encoding: 1100 1100 232
Width: 1142
Flags: HW
HStem: 0 153<320.25 574.95> 514 153<410.25 646.95> 1100 20G<323.85 489.45>
VStem: 823.35 180<376 409>
Fore
819.75 332 m 16,0,1
 823.35 356 823.35 356 823.35 376 c 0,0,0
 823.35 436 823.35 436 787.35 468 c 0,2,3
 735.15 514 735.15 514 619.95 514 c 2,4,-1
 383.25 514 l 1,5,-1
 320.25 153 l 1,6,-1
 556.95 153 l 2,7,8
 673.05 153 673.05 153 740.55 199 c 0,9,10
 803.55 242 803.55 242 819.75 332 c 16,0,1
323.85 1120 m 9,11,-1
 489.45 1120 l 17,12,-1
 410.25 667 l 1,13,-1
 654.15 667 l 2,14,15
 841.35 667 841.35 667 934.95 582 c 0,16,17
 1003.35 520 1003.35 520 1003.35 409 c 0,0,0
 1003.35 373 1003.35 373 996.15 332 c 8,18,19
 966.45 164 966.45 164 847.65 82 c 0,20,21
 729.75 0 729.75 0 537.15 0 c 2,22,-1
 127.65 0 l 1,23,-1
 323.85 1120 l 9,11,-1
EndSplineSet
EndChar
StartChar: afii10095
Encoding: 1101 1101 233
Width: 1194
Flags: HW
HStem: -29 156<441.95 494.15> 487 144<291.65 926.15> 991 156<629.15 667.85>
VStem: 927.95 174.6<682 715>
Fore
370.85 942 m 17,0,1
 406.85 955 406.85 955 441.95 965 c 0,2,3
 535.55 991 535.55 991 630.95 991 c 0,4,5
 795.65 991 795.65 991 869.45 892 c 0,6,7
 927.95 815 927.95 815 927.95 684 c 0,0,0
 927.95 658 927.95 658 926.15 631 c 0,8,-1
 316.85 631 l 1,9,-1
 291.65 487 l 1,10,-1
 900.95 487 l 0,11,12
 855.05 318 855.05 318 753.35 226 c 0,13,14
 644.45 127 644.45 127 479.75 127 c 0,15,16
 384.35 127 384.35 127 299.75 153 c 0,17,18
 214.25 179 214.25 179 135.05 231 c 1,19,-1
 104.45 57 l 1,20,21
 186.35 15 186.35 15 276.35 -7 c 128,-1,22
 365.45 -29 365.45 -29 461.75 -29 c 0,23,24
 702.95 -29 702.95 -29 871.25 127 c 0,25,26
 1039.55 283 1039.55 283 1088.15 559 c 128,-1,27
 1102.55 641 1102.55 641 1102.55 713 c 0,0,0
 1102.55 881 1102.55 881 1022.45 991 c 0,28,29
 909.05 1147 909.05 1147 667.85 1147 c 0,30,31
 571.55 1147 571.55 1147 474.35 1125 c 0,32,33
 436.55 1117 436.55 1117 399.65 1105 c 1,34,35
 385.25 1025 385.25 1025 370.85 942 c 17,0,1
EndSplineSet
EndChar
StartChar: afii10096
Encoding: 1102 1102 234
Width: 1579
Flags: HW
HStem: -29 156<908.4 938.1> 991 156<1085.7 1114.5>
VStem: 533.1 177.3<386 419> 1311.6 179.1<696 730>
Fore
1087.5 991 m 0,0,1
 954.3 991 954.3 991 856.2 876 c 0,2,3
 759 760 759 760 723.9 559 c 128,-1,4
 710.4 482 710.4 482 710.4 417 c 0,0,0
 710.4 313 710.4 313 744.6 242 c 0,5,6
 802.2 127 802.2 127 936.3 127 c 0,7,8
 1068.6 127 1068.6 127 1165.8 243 c 128,-1,9
 1263.9 359 1263.9 359 1299 559 c 0,10,11
 1311.6 634 1311.6 634 1311.6 698 c 0,0,0
 1311.6 802 1311.6 802 1276.5 874 c 0,12,13
 1219.8 991 1219.8 991 1087.5 991 c 0,0,1
574.5 673 m 1,14,15
 624.9 863 624.9 863 748.2 991 c 0,16,17
 898.5 1147 898.5 1147 1114.5 1147 c 0,18,19
 1330.5 1147 1330.5 1147 1426.8 991 c 128,-1,20
 1490.7 887 1490.7 887 1490.7 730 c 0,0,0
 1490.7 651 1490.7 651 1474.5 559 c 0,21,22
 1425.9 284 1425.9 284 1275.6 128 c 0,23,24
 1124.4 -29 1124.4 -29 908.4 -29 c 0,25,26
 691.5 -29 691.5 -29 597 128 c 0,27,28
 533.1 232 533.1 232 533.1 388 c 0,0,0
 533.1 451 533.1 451 543 521 c 0,29,-1
 409.8 521 l 1,30,-1
 318.9 0 l 1,31,-1
 153.3 0 l 1,32,-1
 349.5 1120 l 1,33,-1
 515.1 1120 l 1,34,-1
 436.8 673 l 1,35,-1
 574.5 673 l 1,14,15
EndSplineSet
EndChar
StartChar: afii10097
Encoding: 1103 1103 235
Width: 1162
Flags: HW
HStem: 0 21G<-3.64999 171.85 719.95 886.45> 473 155<629.05 802.75> 965 155<701.05 888.25>
VStem: 281.65 174.6<732 762>
Fore
436.45 525 m 1,0,1
 345.55 552 345.55 552 307.75 622 c 128,-1,2
 281.65 669 281.65 669 281.65 732 c 0,0,0
 281.65 763 281.65 763 287.95 797 c 0,3,4
 316.75 959 316.75 959 426.55 1040 c 0,5,6
 538.15 1120 538.15 1120 733.45 1120 c 2,7,-1
 1082.65 1120 l 1,8,-1
 886.45 0 l 1,9,-1
 719.95 0 l 1,10,-1
 802.75 473 l 1,11,-1
 650.65 473 l 2,12,13
 563.35 473 563.35 473 503.95 436 c 0,14,15
 444.55 400 444.55 400 368.05 287 c 1,16,-1
 171.85 0 l 1,17,-1
 -3.65039 0 l 1,18,-1
 206.95 306 l 1,19,20
 270.85 400 270.85 400 326.65 454 c 0,21,22
 384.25 508 384.25 508 436.45 525 c 1,0,1
889.15 965 m 1,23,-1
 710.95 965 l 2,24,25
 603.85 965 603.85 965 539.95 923 c 0,26,27
 474.25 881 474.25 881 459.85 797 c 0,28,29
 456.25 778 456.25 778 456.25 762 c 0,0,0
 456.25 704 456.25 704 495.85 671 c 0,30,31
 544.45 628 544.45 628 651.55 628 c 2,32,-1
 829.75 628 l 1,33,-1
 889.15 965 l 1,23,-1
EndSplineSet
EndChar
StartChar: afii10099
Encoding: 1106 1106 238
Width: 1248
Flags: HW
HStem: 0 21G<132.5 299> 900 160<745.4 810.2> 1284 125<240.5 357.5 545.6 817.4> 1284 272<405.2 817.4>
VStem: 924.5 171<697 753>
Fore
357.5 1284 m 1,0,-1
 219.8 1284 l 1,1,-1
 241.4 1409 l 1,2,-1
 379.1 1409 l 1,3,-1
 405.2 1556 l 1,4,-1
 571.7 1556 l 1,5,-1
 545.6 1409 l 1,6,-1
 839 1409 l 1,7,-1
 817.4 1284 l 1,8,-1
 524 1284 l 9,9,-1
 449.3 859 l 17,10,11
 526.7 960 526.7 960 614.9 1010 c 0,12,13
 704.9 1060 704.9 1060 810.2 1060 c 0,14,15
 976.7 1060 976.7 1060 1052.3 941 c 0,16,17
 1095.5 872 1095.5 872 1095.5 753 c 0,0,0
 1095.5 680 1095.5 680 1080.2 589 c 10,18,-1
 973.1 -20 l 18,19,20
 936.2 -234 936.2 -234 845.3 -330 c 0,21,22
 755.3 -426 755.3 -426 592.4 -426 c 2,23,-1
 529.4 -426 l 1,24,-1
 557.3 -270 l 1,25,-1
 601.4 -270 l 2,26,27
 700.4 -270 700.4 -270 738.2 -222 c 0,28,29
 782.3 -167 782.3 -167 807.5 -20 c 2,30,-1
 912.8 583 l 2,31,32
 924.5 646 924.5 646 924.5 697 c 0,0,0
 924.5 773 924.5 773 899.3 821 c 0,33,34
 857 900 857 900 745.4 900 c 0,35,36
 606.8 900 606.8 900 517.7 805 c 0,37,38
 422.3 704 422.3 704 394.4 546 c 2,39,-1
 299 0 l 1,40,-1
 132.5 0 l 1,41,-1
 357.5 1284 l 1,0,-1
EndSplineSet
EndChar
StartChar: afii10101
Encoding: 1108 1108 240
Width: 1192
Flags: HW
HStem: -29 156<663.65 723.05> 487 144<335.15 944.45> 991 156<663.65 723.05>
Fore
1006.55 942 m 17,0,1
 975.95 955 975.95 955 944.45 965 c 0,2,3
 859.85 991 859.85 991 764.45 991 c 0,4,5
 599.75 991 599.75 991 489.95 892 c 0,6,7
 389.15 800 389.15 800 343.25 631 c 0,8,-1
 952.55 631 l 1,9,-1
 927.35 487 l 1,10,-1
 318.05 487 l 0,11,12
 315.35 460 315.35 460 315.35 434 c 0,0,0
 315.35 303 315.35 303 373.85 226 c 0,13,14
 448.55 127 448.55 127 613.25 127 c 0,15,16
 708.65 127 708.65 127 802.25 153 c 0,17,18
 896.75 179 896.75 179 993.95 231 c 1,19,-1
 963.35 57 l 1,20,21
 867.05 15 867.05 15 769.85 -7 c 128,-1,22
 671.75 -29 671.75 -29 575.45 -29 c 0,23,24
 334.25 -29 334.25 -29 221.75 127 c 0,25,26
 141.65 237 141.65 237 141.65 405 c 0,0,0
 141.65 477 141.65 477 156.05 559 c 128,-1,27
 203.75 835 203.75 835 372.95 991 c 0,28,29
 540.35 1147 540.35 1147 781.55 1147 c 0,30,31
 877.85 1147 877.85 1147 967.85 1125 c 0,32,33
 1002.05 1117 1002.05 1117 1035.35 1105 c 1,34,35
 1020.95 1025 1020.95 1025 1006.55 942 c 17,0,1
EndSplineSet
EndChar
StartChar: afii10106
Encoding: 1113 1113 245
Width: 1736
Flags: HW
HStem: 0 153<1003.95 1173.15> 514 153<1093.95 1238.85> 967 153<517.95 980.55>
VStem: 1417.05 180<376 409>
Fore
980.55 967 m 9,0,-1
 656.55 967 l 17,1,2
 633.15 833 l 2,3,4
 569.25 467 569.25 467 417.15 207 c 0,5,6
 296.55 0 296.55 0 13.9502 -29 c 9,7,-1
 40.9502 124 l 17,8,9
 206.55 151 206.55 151 282.15 278 c 0,10,11
 406.35 485 406.35 485 481.05 908 c 2,12,-1
 517.95 1120 l 1,13,-1
 1173.15 1120 l 17,14,-1
 1093.95 667 l 1,15,-1
 1247.85 667 l 2,16,17
 1435.05 667 1435.05 667 1528.65 582 c 0,18,19
 1597.05 520 1597.05 520 1597.05 409 c 0,0,0
 1597.05 373 1597.05 373 1589.85 332 c 8,20,21
 1560.15 164 1560.15 164 1441.35 82 c 0,22,23
 1323.45 0 1323.45 0 1130.85 0 c 10,24,-1
 811.35 0 l 17,25,-1
 980.55 967 l 9,0,-1
1413.45 332 m 16,26,27
 1417.05 356 1417.05 356 1417.05 376 c 0,0,0
 1417.05 437 1417.05 437 1381.05 468 c 0,28,29
 1328.85 514 1328.85 514 1213.65 514 c 2,30,-1
 1066.95 514 l 1,31,-1
 1003.95 153 l 1,32,-1
 1150.65 153 l 2,33,34
 1266.75 153 1266.75 153 1334.25 199 c 0,35,36
 1397.25 242 1397.25 242 1413.45 332 c 16,26,27
EndSplineSet
EndChar
StartChar: afii10107
Encoding: 1114 1114 246
Width: 1731
Flags: HW
HStem: 0 153<1009.7 1178.9> 514 153<441.8 907.1 1099.7 1240.1>
VStem: 1422.8 180<377 409>
Fore
1419.2 332 m 16,0,1
 1422.8 356 1422.8 356 1422.8 377 c 0,0,0
 1422.8 437 1422.8 437 1386.8 469 c 0,2,3
 1335.5 514 1335.5 514 1219.4 514 c 2,4,-1
 1072.7 514 l 1,5,-1
 1009.7 153 l 1,6,-1
 1156.4 153 l 2,7,8
 1272.5 153 1272.5 153 1340 199 c 0,9,10
 1403 242 1403 242 1419.2 332 c 16,0,1
817.1 0 m 17,11,-1
 907.1 514 l 1,12,-1
 414.8 514 l 1,13,-1
 324.8 0 l 1,14,-1
 159.2 0 l 1,15,-1
 355.4 1120 l 1,16,-1
 521 1120 l 1,17,-1
 441.8 667 l 1,18,-1
 934.1 667 l 1,19,-1
 1013.3 1120 l 1,20,-1
 1178.9 1120 l 17,21,-1
 1099.7 667 l 1,22,-1
 1253.6 667 l 2,23,24
 1440.8 667 1440.8 667 1534.4 582 c 0,25,26
 1602.8 520 1602.8 520 1602.8 409 c 0,0,0
 1602.8 373 1602.8 373 1595.6 332 c 8,27,28
 1565.9 164 1565.9 164 1447.1 82 c 0,29,30
 1329.2 0 1329.2 0 1136.6 0 c 10,31,-1
 817.1 0 l 17,11,-1
EndSplineSet
EndChar
StartChar: afii10108
Encoding: 1115 1115 247
Width: 1235
Flags: HW
HStem: 0 21G<132.5 299 811.1 976.7> 900 160<745.4 810.2> 1284 125<240.5 357.5 545.6 817.4> 1284 272<405.2 817.4>
VStem: 924.5 171<697 750>
Fore
357.5 1284 m 1,0,-1
 219.8 1284 l 1,1,-1
 241.4 1409 l 1,2,-1
 379.1 1409 l 1,3,-1
 405.2 1556 l 1,4,-1
 571.7 1556 l 1,5,-1
 545.6 1409 l 1,6,-1
 839 1409 l 1,7,-1
 817.4 1284 l 1,8,-1
 524 1284 l 9,9,-1
 449.3 859 l 17,10,11
 526.7 960 526.7 960 614.9 1010 c 0,12,13
 704.9 1060 704.9 1060 810.2 1060 c 0,14,15
 981.2 1060 981.2 1060 1052.3 941 c 0,16,17
 1095.5 869 1095.5 869 1095.5 750 c 0,0,0
 1095.5 678 1095.5 678 1080.2 589 c 10,18,-1
 976.7 0 l 17,19,-1
 811.1 0 l 1,20,-1
 912.8 583 l 2,21,22
 924.5 646 924.5 646 924.5 697 c 0,0,0
 924.5 773 924.5 773 899.3 821 c 0,23,24
 857 900 857 900 745.4 900 c 0,25,26
 608.6 900 608.6 900 517.7 805 c 0,27,28
 423.2 707 423.2 707 394.4 546 c 2,29,-1
 299 0 l 1,30,-1
 132.5 0 l 1,31,-1
 357.5 1284 l 1,0,-1
EndSplineSet
EndChar
StartChar: afii10193
Encoding: 1119 1119 251
Width: 1287
Flags: HW
HStem: 0 154<138.25 869.95> 1100 20G<334.45 500.05 1039.15 1204.75>
Fore
654.85 0 m 25,0,-1
 1008.55 0 l 1,1,-1
 1204.75 1120 l 1,2,-1
 1039.15 1120 l 1,3,-1
 869.95 154 l 1,4,-1
 330.85 154 l 1,5,-1
 500.05 1120 l 1,6,-1
 334.45 1120 l 1,7,-1
 138.25 0 l 1,8,-1
 489.25 0 l 25,9,-1
 414.55 -426 l 25,10,-1
 580.15 -426 l 25,11,-1
 654.85 0 l 25,0,-1
EndSplineSet
EndChar
StartChar: uni2010
Encoding: 8208 8208 237
Width: 702
Flags: HW
Fore
150.3 643 m 1,0,-1
 635.4 643 l 1,1,-1
 607.5 479 l 1,2,-1
 120.6 479 l 1,3,-1
 150.3 643 l 1,0,-1
EndSplineSet
KernsSLIF: 356 -149 0 0 221 -149 0 0 376 -149 0 0 89 -149 0 0 88 -73 0 0 87 -36 0 0 86 -83 0 0 84 -149 0 0
EndChar
StartChar: figuredash
Encoding: 8210 8210 239
Width: 972
Flags: HW
Fore
63.7998 633 m 1,0,-1
 985.4 633 l 1,1,-1
 960.2 489 l 1,2,-1
 38.5996 489 l 1,3,-1
 63.7998 633 l 1,0,-1
EndSplineSet
EndChar
StartChar: endash
Encoding: 8211 8211 178
Width: 972
Flags: HW
Fore
63.7998 633 m 1,0,-1
 985.4 633 l 1,1,-1
 960.2 489 l 1,2,-1
 38.5996 489 l 1,3,-1
 63.7998 633 l 1,0,-1
EndSplineSet
EndChar
StartChar: emdash
Encoding: 8212 8212 179
Width: 1945
Flags: HW
Fore
115 633 m 1,0,-1
 1958.2 633 l 1,1,-1
 1933 489 l 1,2,-1
 89.7998 489 l 1,3,-1
 115 633 l 1,0,-1
EndSplineSet
EndChar
StartChar: afii00208
Encoding: 8213 8213 180
Width: 1945
Flags: HW
Fore
115 633 m 1,0,-1
 1958.2 633 l 1,1,-1
 1933 489 l 1,2,-1
 89.7998 489 l 1,3,-1
 115 633 l 1,0,-1
EndSplineSet
EndChar
StartChar: quoteleft
Encoding: 8216 8216 182
Width: 632
Flags: HW
Fore
477.35 1001 m 1,0,-1
 287.45 1001 l 1,1,-1
 318.95 1174 l 1,2,-1
 521.45 1493 l 1,3,-1
 637.55 1493 l 1,4,-1
 508.85 1174 l 1,5,-1
 477.35 1001 l 1,0,-1
EndSplineSet
KernsSLIF: 221 47 0 0 193 -243 0 0 194 -243 0 0 376 47 0 0 195 -243 0 0 192 -243 0 0 198 -301 0 0 196 -243 0 0 89 47 0 0 86 75 0 0 65 -243 0 0
EndChar
StartChar: quoteright
Encoding: 8217 8217 183
Width: 633
Flags: HW
Fore
456.6 1493 m 1,0,-1
 646.5 1493 l 1,1,-1
 616.8 1321 l 1,2,-1
 412.5 1001 l 1,3,-1
 295.5 1001 l 1,4,-1
 425.1 1321 l 1,5,-1
 456.6 1493 l 1,0,-1
EndSplineSet
EndChar
StartChar: quotesinglbase
Encoding: 8218 8218 196
Width: 605
Flags: HW
Fore
185.65 254 m 1,0,-1
 375.55 254 l 1,1,-1
 344.05 82 l 1,2,-1
 141.55 -238 l 1,3,-1
 25.4502 -238 l 1,4,-1
 155.05 82 l 1,5,-1
 185.65 254 l 1,0,-1
EndSplineSet
KernsSLIF: 356 -225 0 0 268 -73 0 0 262 -73 0 0 253 -92 0 0 221 -339 0 0 210 -73 0 0 212 -73 0 0 211 -73 0 0 64258 -73 0 0 64257 -73 0 0 376 -339 0 0 255 -92 0 0 338 -73 0 0 213 -73 0 0 216 -55 0 0 214 -73 0 0 199 -73 0 0 121 -92 0 0 119 -73 0 0 118 -112 0 0 102 -73 0 0 89 -339 0 0 87 -149 0 0 86 -264 0 0 84 -225 0 0 81 -73 0 0 79 -73 0 0 67 -73 0 0
EndChar
StartChar: quotedblleft
Encoding: 8220 8220 180
Width: 1021
Flags: HW
Fore
497.85 1001 m 1,0,-1
 307.95 1001 l 1,1,-1
 339.45 1174 l 1,2,-1
 541.95 1493 l 1,3,-1
 658.05 1493 l 1,4,-1
 529.35 1174 l 1,5,-1
 497.85 1001 l 1,0,-1
866.85 1001 m 1,6,-1
 676.95 1001 l 1,7,-1
 708.45 1174 l 1,8,-1
 910.95 1493 l 1,9,-1
 1027.05 1493 l 1,10,-1
 898.35 1174 l 1,11,-1
 866.85 1001 l 1,6,-1
EndSplineSet
KernsSLIF: 221 47 0 0 193 -243 0 0 194 -243 0 0 376 47 0 0 195 -243 0 0 192 -243 0 0 198 -301 0 0 196 -243 0 0 89 47 0 0 86 75 0 0 65 -243 0 0
EndChar
StartChar: quotedblright
Encoding: 8221 8221 181
Width: 1022
Flags: HW
Fore
477.05 1493 m 1,0,-1
 666.95 1493 l 1,1,-1
 635.45 1321 l 1,2,-1
 432.95 1001 l 1,3,-1
 315.95 1001 l 1,4,-1
 445.55 1321 l 1,5,-1
 477.05 1493 l 1,0,-1
845.15 1493 m 1,6,-1
 1035.05 1493 l 1,7,-1
 1003.55 1321 l 1,8,-1
 801.05 1001 l 1,9,-1
 684.95 1001 l 1,10,-1
 813.65 1321 l 1,11,-1
 845.15 1493 l 1,6,-1
EndSplineSet
EndChar
StartChar: quotedblbase
Encoding: 8222 8222 197
Width: 995
Flags: HW
Fore
206.15 254 m 1,0,-1
 396.05 254 l 1,1,-1
 364.55 82 l 1,2,-1
 162.05 -238 l 1,3,-1
 45.9502 -238 l 1,4,-1
 175.55 82 l 1,5,-1
 206.15 254 l 1,0,-1
575.15 254 m 1,6,-1
 765.05 254 l 1,7,-1
 733.55 82 l 1,8,-1
 531.05 -238 l 1,9,-1
 414.95 -238 l 1,10,-1
 543.65 82 l 1,11,-1
 575.15 254 l 1,6,-1
EndSplineSet
KernsSLIF: 356 -225 0 0 268 -73 0 0 262 -73 0 0 253 -112 0 0 221 -339 0 0 210 -73 0 0 212 -73 0 0 211 -73 0 0 64258 -73 0 0 64257 -73 0 0 376 -339 0 0 255 -112 0 0 338 -73 0 0 213 -73 0 0 216 -55 0 0 214 -73 0 0 199 -73 0 0 121 -112 0 0 119 -73 0 0 118 -149 0 0 102 -73 0 0 89 -339 0 0 87 -149 0 0 86 -264 0 0 84 -225 0 0 81 -73 0 0 79 -73 0 0 67 -73 0 0
EndChar
StartChar: dagger
Encoding: 8224 8224 130
Width: 977
Flags: HW
Fore
564.1 1493 m 1,0,-1
 720.7 1493 l 1,1,-1
 648.7 1073 l 1,2,-1
 979 1073 l 1,3,-1
 951.1 920 l 1,4,-1
 621.7 920 l 1,5,-1
 426.4 -197 l 1,6,-1
 268 -197 l 1,7,-1
 463.3 920 l 1,8,-1
 133 920 l 1,9,-1
 159.1 1073 l 1,10,-1
 490.3 1073 l 1,11,-1
 564.1 1493 l 1,0,-1
EndSplineSet
EndChar
StartChar: daggerdbl
Encoding: 8225 8225 194
Width: 971
Flags: HW
Fore
836.85 223 m 1,0,-1
 507.45 223 l 1,1,-1
 433.65 -197 l 1,2,-1
 275.25 -197 l 1,3,-1
 349.05 223 l 1,4,-1
 18.75 223 l 1,5,-1
 44.8496 377 l 1,6,-1
 374.25 377 l 1,7,-1
 470.55 920 l 1,8,-1
 140.25 920 l 1,9,-1
 166.35 1073 l 1,10,-1
 496.65 1073 l 1,11,-1
 570.45 1493 l 1,12,-1
 728.85 1493 l 1,13,-1
 655.05 1073 l 1,14,-1
 986.25 1073 l 1,15,-1
 959.25 920 l 1,16,-1
 628.95 920 l 1,17,-1
 533.55 377 l 1,18,-1
 862.95 377 l 1,19,-1
 836.85 223 l 1,0,-1
EndSplineSet
EndChar
StartChar: bullet
Encoding: 8226 8226 135
Width: 1147
Flags: HW
Fore
336.6 762 m 0,0,1
 336.6 885 336.6 885 414.9 971 c 128,-1,2
 493.2 1057 493.2 1057 603.9 1057 c 0,3,4
 713.7 1057 713.7 1057 791.55 970.5 c 128,-1,5
 869.4 884 869.4 884 869.4 762 c 0,6,7
 869.4 640 869.4 640 790.65 552.5 c 128,-1,8
 711.9 465 711.9 465 602.1 465 c 0,9,10
 491.4 465 491.4 465 414 552 c 128,-1,11
 336.6 639 336.6 639 336.6 762 c 0,0,1
EndSplineSet
EndChar
StartChar: ellipsis
Encoding: 8230 8230 171
Width: 1937
Flags: HW
Fore
258.4 254 m 1,0,-1
 448.3 254 l 1,1,-1
 404.2 0 l 1,2,-1
 214.3 0 l 1,3,-1
 258.4 254 l 1,0,-1
1487.8 254 m 1,4,-1
 1677.7 254 l 1,5,-1
 1633.6 0 l 1,6,-1
 1443.7 0 l 1,7,-1
 1487.8 254 l 1,4,-1
872.2 254 m 1,8,-1
 1062.1 254 l 1,9,-1
 1018 0 l 1,10,-1
 828.1 0 l 1,11,-1
 872.2 254 l 1,8,-1
EndSplineSet
Ligature: 0 1 'liga' period period period
EndChar
StartChar: perthousand
Encoding: 8240 8240 198
Width: 2626
Flags: HW
Fore
2084.9 -29 m 0,0,1
 1961.6 -29 1961.6 -29 1890.5 60 c 128,-1,2
 1819.4 149 1819.4 149 1819.4 301 c 0,3,4
 1819.4 517 1819.4 517 1923.35 650.5 c 128,-1,5
 2027.3 784 2027.3 784 2195.6 784 c 0,6,7
 2317.1 784 2317.1 784 2387.75 696 c 128,-1,8
 2458.4 608 2458.4 608 2458.4 455 c 0,9,10
 2458.4 240 2458.4 240 2354.45 105.5 c 128,-1,11
 2250.5 -29 2250.5 -29 2084.9 -29 c 0,0,1
2315.3 446 m 0,12,13
 2315.3 553 2315.3 553 2280.65 606 c 128,-1,14
 2246 659 2246 659 2176.7 659 c 0,15,16
 2076.8 659 2076.8 659 2020.1 561.5 c 128,-1,17
 1963.4 464 1963.4 464 1963.4 291 c 0,18,19
 1963.4 198 1963.4 198 1999.4 148 c 128,-1,20
 2035.4 98 2035.4 98 2102.9 98 c 0,21,22
 2199.2 98 2199.2 98 2257.25 193 c 128,-1,23
 2315.3 288 2315.3 288 2315.3 446 c 0,12,13
571.1 707 m 0,24,25
 448.7 707 448.7 707 377.15 795.5 c 128,-1,26
 305.6 884 305.6 884 305.6 1036 c 0,27,28
 305.6 1252 305.6 1252 410 1386 c 128,-1,29
 514.4 1520 514.4 1520 681.8 1520 c 0,30,31
 804.2 1520 804.2 1520 875.75 1430.5 c 128,-1,32
 947.3 1341 947.3 1341 947.3 1188 c 0,33,34
 947.3 974 947.3 974 842.9 840.5 c 128,-1,35
 738.5 707 738.5 707 571.1 707 c 0,24,25
803.3 1182 m 0,36,37
 803.3 1287 803.3 1287 768.2 1340 c 128,-1,38
 733.1 1393 733.1 1393 663.8 1393 c 0,39,40
 563 1393 563 1393 506.3 1296 c 128,-1,41
 449.6 1199 449.6 1199 449.6 1026 c 0,42,43
 449.6 934 449.6 934 486.05 884 c 128,-1,44
 522.5 834 522.5 834 590 834 c 0,45,46
 686.3 834 686.3 834 744.8 929 c 128,-1,47
 803.3 1024 803.3 1024 803.3 1182 c 0,36,37
1577.3 446 m 0,48,49
 1577.3 553 1577.3 553 1543.1 606 c 128,-1,50
 1508.9 659 1508.9 659 1439.6 659 c 0,51,52
 1339.7 659 1339.7 659 1282.55 561.5 c 128,-1,53
 1225.4 464 1225.4 464 1225.4 291 c 0,54,55
 1225.4 198 1225.4 198 1261.85 148 c 128,-1,56
 1298.3 98 1298.3 98 1365.8 98 c 0,57,58
 1462.1 98 1462.1 98 1519.7 193 c 128,-1,59
 1577.3 288 1577.3 288 1577.3 446 c 0,48,49
1346.9 -29 m 0,60,61
 1224.5 -29 1224.5 -29 1153.4 60 c 128,-1,62
 1082.3 149 1082.3 149 1082.3 301 c 0,63,64
 1082.3 517 1082.3 517 1186.25 650.5 c 128,-1,65
 1290.2 784 1290.2 784 1457.6 784 c 0,66,67
 1580 784 1580 784 1650.65 696 c 128,-1,68
 1721.3 608 1721.3 608 1721.3 455 c 0,69,70
 1721.3 240 1721.3 240 1617.35 105.5 c 128,-1,71
 1513.4 -29 1513.4 -29 1346.9 -29 c 0,60,61
1652.9 1520 m 1,72,-1
 542.3 -29 l 1,73,-1
 398.3 -29 l 1,74,-1
 1509.8 1520 l 1,75,-1
 1652.9 1520 l 1,72,-1
EndSplineSet
EndChar
StartChar: guilsinglleft
Encoding: 8249 8249 190
Width: 778
Flags: HW
Fore
663.75 1059 m 1,0,-1
 630.45 858 l 1,1,-1
 310.05 588 l 1,2,-1
 536.85 322 l 1,3,-1
 503.55 141 l 1,4,-1
 155.25 559 l 1,5,-1
 169.65 641 l 1,6,-1
 663.75 1059 l 1,0,-1
EndSplineSet
EndChar
StartChar: guilsinglright
Encoding: 8250 8250 191
Width: 778
Flags: HW
Fore
155.25 141 m 1,0,-1
 190.35 342 l 1,1,-1
 510.75 612 l 1,2,-1
 283.95 879 l 1,3,-1
 315.45 1059 l 1,4,-1
 663.75 641 l 1,5,-1
 651.15 559 l 1,6,-1
 155.25 141 l 1,0,-1
EndSplineSet
EndChar
StartChar: Euro
Encoding: 8364 8364 258
Width: 1232
Flags: HW
Fore
1178.9 1378 m 1,0,-1
 1149.2 1165 l 1,1,2
 1074.5 1266 1074.5 1266 999.35 1313 c 128,-1,3
 924.2 1360 924.2 1360 837.8 1360 c 0,4,5
 709.1 1360 709.1 1360 611.9 1262.5 c 128,-1,6
 514.7 1165 514.7 1165 450.8 973 c 1,7,-1
 918.8 973 l 1,8,-1
 871.1 850 l 1,9,-1
 417.5 850 l 1,10,11
 406.7 800 406.7 800 399.5 749 c 128,-1,12
 392.3 698 392.3 698 388.7 643 c 1,13,-1
 788.3 643 l 1,14,-1
 738.8 520 l 1,15,-1
 385.1 520 l 1,16,17
 393.2 325 393.2 325 464.75 228 c 128,-1,18
 536.3 131 536.3 131 672.2 131 c 0,19,20
 770.3 131 770.3 131 856.7 174 c 128,-1,21
 943.1 217 943.1 217 1034.9 313 c 1,22,-1
 999.8 74 l 1,23,24
 915.2 23 915.2 23 826.1 -3 c 128,-1,25
 737 -29 737 -29 649.7 -29 c 0,26,27
 449 -29 449 -29 330.65 117 c 128,-1,28
 212.3 263 212.3 263 203.3 520 c 1,29,-1
 25.0996 520 l 1,30,-1
 74.5996 643 l 1,31,-1
 205.1 643 l 1,32,33
 209.6 698 209.6 698 216.8 749.5 c 128,-1,34
 224 801 224 801 233.9 850 c 1,35,-1
 78.2002 850 l 1,36,-1
 128.6 973 l 1,37,-1
 264.5 973 l 1,38,39
 351.8 1249 351.8 1249 495.8 1384.5 c 128,-1,40
 639.8 1520 639.8 1520 845 1520 c 0,41,42
 937.7 1520 937.7 1520 1020.95 1484.5 c 128,-1,43
 1104.2 1449 1104.2 1449 1178.9 1378 c 1,0,-1
EndSplineSet
EndChar
StartChar: trademark
Encoding: 8482 8482 140
Width: 1938
Flags: HW
Fore
1083.25 1493 m 1,0,-1
 1239.85 1237 l 1,1,-1
 1387.45 1493 l 1,2,-1
 1540.45 1493 l 1,3,-1
 1540.45 915 l 1,4,-1
 1438.75 915 l 1,5,-1
 1438.75 1399 l 1,6,-1
 1263.25 1096 l 1,7,-1
 1213.75 1096 l 1,8,-1
 1031.05 1399 l 1,9,-1
 1031.05 915 l 1,10,-1
 928.45 915 l 1,11,-1
 928.45 1493 l 1,12,-1
 1083.25 1493 l 1,0,-1
826.75 1493 m 1,13,-1
 826.75 1399 l 1,14,-1
 644.05 1399 l 1,15,-1
 644.05 915 l 1,16,-1
 541.45 915 l 1,17,-1
 541.45 1399 l 1,18,-1
 360.55 1399 l 1,19,-1
 360.55 1493 l 1,20,-1
 826.75 1493 l 1,13,-1
EndSplineSet
Ligature: 0 1 'liga' T M
EndChar
StartChar: partialdiff
Encoding: 8706 8706 152
Width: 1006
Flags: HW
Fore
733.65 621 m 1,0,1
 747.15 708 747.15 708 753.9 789.5 c 128,-1,2
 760.65 871 760.65 871 760.65 946 c 0,3,4
 760.65 1075 760.65 1075 727.8 1140.5 c 128,-1,5
 694.95 1206 694.95 1206 630.15 1206 c 0,6,7
 580.65 1206 580.65 1206 515.85 1148 c 128,-1,8
 451.05 1090 451.05 1090 418.65 1090 c 0,9,10
 386.25 1090 386.25 1090 364.65 1112 c 128,-1,11
 343.05 1134 343.05 1134 343.05 1165 c 0,12,13
 343.05 1227 343.05 1227 407.85 1276 c 128,-1,14
 472.65 1325 472.65 1325 563.55 1325 c 0,15,16
 725.55 1325 725.55 1325 821.85 1170 c 128,-1,17
 918.15 1015 918.15 1015 918.15 752 c 0,18,19
 918.15 417 918.15 417 788.1 196 c 128,-1,20
 658.05 -25 658.05 -25 466.35 -25 c 0,21,22
 329.55 -25 329.55 -25 238.2 83 c 128,-1,23
 146.85 191 146.85 191 146.85 354 c 0,24,25
 146.85 552 146.85 552 246.3 680.5 c 128,-1,26
 345.75 809 345.75 809 491.55 809 c 0,27,28
 582.45 809 582.45 809 640.95 763.5 c 128,-1,29
 699.45 718 699.45 718 733.65 621 c 1,0,1
689.55 494 m 0,30,31
 689.55 610 689.55 610 650.4 672.5 c 128,-1,32
 611.25 735 611.25 735 540.15 735 c 0,33,34
 442.05 735 442.05 735 378.6 606 c 128,-1,35
 315.15 477 315.15 477 315.15 270 c 0,36,37
 315.15 154 315.15 154 353.85 92.5 c 128,-1,38
 392.55 31 392.55 31 464.55 31 c 0,39,40
 562.65 31 562.65 31 626.1 161 c 128,-1,41
 689.55 291 689.55 291 689.55 494 c 0,30,31
EndSplineSet
EndChar
StartChar: Delta
Encoding: 8710 8710 168
Width: 1301
Flags: HW
Fore
684.1 1262 m 1,0,-1
 307.9 178 l 1,1,-1
 1060.3 178 l 1,2,-1
 684.1 1262 l 1,0,-1
584.2 1473 m 1,3,-1
 785.8 1473 l 1,4,-1
 1306.9 0 l 1,5,-1
 63.0996 0 l 1,6,-1
 584.2 1473 l 1,3,-1
EndSplineSet
EndChar
StartChar: product
Encoding: 8719 8719 154
Width: 1472
Flags: HW
Fore
217.85 1473 m 1,0,-1
 1331.15 1473 l 1,1,-1
 1331.15 -393 l 1,2,-1
 1115.15 -393 l 1,3,-1
 1115.15 1268 l 1,4,-1
 432.95 1268 l 1,5,-1
 432.95 -393 l 1,6,-1
 217.85 -393 l 1,7,-1
 217.85 1473 l 1,0,-1
EndSplineSet
EndChar
StartChar: summation
Encoding: 8721 8721 153
Width: 1310
Flags: HW
Fore
117.7 1473 m 1,0,-1
 1249.9 1473 l 1,1,-1
 1249.9 1280 l 1,2,-1
 386.8 1280 l 1,3,-1
 991.6 563 l 1,4,-1
 367 -201 l 1,5,-1
 1273.3 -201 l 1,6,-1
 1273.3 -393 l 1,7,-1
 90.7002 -393 l 1,8,-1
 90.7002 -244 l 1,9,-1
 743.2 557 l 1,10,-1
 117.7 1296 l 1,11,-1
 117.7 1473 l 1,0,-1
EndSplineSet
EndChar
StartChar: minus
Encoding: 8722 8722 238
Width: 1630
Flags: HW
Fore
281.1 727 m 1,0,-1
 1434.9 727 l 1,1,-1
 1434.9 557 l 1,2,-1
 281.1 557 l 1,3,-1
 281.1 727 l 1,0,-1
EndSplineSet
EndChar
StartChar: fraction
Encoding: 8725 8725 188
Width: 324
Flags: HW
Fore
645.2 1520 m 1,0,-1
 806.3 1520 l 1,1,-1
 -303.4 -29 l 1,2,-1
 -466.3 -29 l 1,3,-1
 645.2 1520 l 1,0,-1
EndSplineSet
EndChar
StartChar: periodcentered
Encoding: 8729 8729 257
Width: 622
Flags: HW
Fore
291.05 838 m 1,0,-1
 480.95 838 l 1,1,-1
 435.95 584 l 1,2,-1
 246.05 584 l 1,3,-1
 291.05 838 l 1,0,-1
EndSplineSet
EndChar
StartChar: radical
Encoding: 8730 8730 165
Width: 1242
Flags: HW
Fore
1072.7 1661 m 1,0,-1
 1242.8 1661 l 1,1,-1
 1242.8 1565 l 1,2,-1
 1139.3 1565 l 1,3,-1
 604.7 -41 l 1,4,-1
 545.3 -41 l 1,5,-1
 258.2 842 l 1,6,-1
 145.7 797 l 1,7,-1
 123.2 877 l 1,8,-1
 377.9 975 l 1,9,-1
 608.3 266 l 1,10,-1
 1072.7 1661 l 1,0,-1
EndSplineSet
EndChar
StartChar: infinity
Encoding: 8734 8734 146
Width: 1620
Flags: HW
Fore
908.9 559 m 1,0,1
 953 471 953 471 1013.3 426 c 128,-1,2
 1073.6 381 1073.6 381 1149.2 381 c 0,3,4
 1240.1 381 1240.1 381 1297.7 448.5 c 128,-1,5
 1355.3 516 1355.3 516 1355.3 621 c 0,6,7
 1355.3 722 1355.3 722 1302.2 789 c 128,-1,8
 1249.1 856 1249.1 856 1169 856 c 0,9,10
 1095.2 856 1095.2 856 1035.35 788.5 c 128,-1,11
 975.5 721 975.5 721 908.9 559 c 1,0,1
799.1 666 m 1,12,13
 755 754 755 754 695.15 798 c 128,-1,14
 635.3 842 635.3 842 558.8 842 c 0,15,16
 467 842 467 842 409.85 776 c 128,-1,17
 352.7 710 352.7 710 352.7 604 c 0,18,19
 352.7 503 352.7 503 405.8 436 c 128,-1,20
 458.9 369 458.9 369 539 369 c 0,21,22
 612.8 369 612.8 369 673.1 437 c 128,-1,23
 733.4 505 733.4 505 799.1 666 c 1,12,13
863 483 m 1,24,25
 800 348 800 348 729.35 284.5 c 128,-1,26
 658.7 221 658.7 221 574.1 221 c 0,27,28
 451.7 221 451.7 221 368 332.5 c 128,-1,29
 284.3 444 284.3 444 284.3 610 c 0,30,31
 284.3 785 284.3 785 359.45 893 c 128,-1,32
 434.6 1001 434.6 1001 555.2 1001 c 0,33,34
 640.7 1001 640.7 1001 709.55 938 c 128,-1,35
 778.4 875 778.4 875 843.2 737 c 1,36,37
 904.4 875 904.4 875 975.5 940.5 c 128,-1,38
 1046.6 1006 1046.6 1006 1133.9 1006 c 0,39,40
 1254.5 1006 1254.5 1006 1339.1 893.5 c 128,-1,41
 1423.7 781 1423.7 781 1423.7 614 c 0,42,43
 1423.7 439 1423.7 439 1348.55 332 c 128,-1,44
 1273.4 225 1273.4 225 1152.8 225 c 0,45,46
 1068.2 225 1068.2 225 1001.15 284.5 c 128,-1,47
 934.1 344 934.1 344 863 483 c 1,24,25
EndSplineSet
EndChar
StartChar: integral
Encoding: 8747 8747 156
Width: 1013
Flags: HW
Fore
333.15 -262 m 0,0,1
 428.55 -262 428.55 -262 441.15 426 c 0,2,3
 442.95 534 442.95 534 443.85 591 c 0,4,5
 454.65 1106 454.65 1106 540.15 1328 c 128,-1,6
 625.65 1550 625.65 1550 807.45 1550 c 0,7,8
 879.45 1550 879.45 1550 924.45 1508 c 128,-1,9
 969.45 1466 969.45 1466 969.45 1401 c 0,10,11
 969.45 1347 969.45 1347 940.65 1315.5 c 128,-1,12
 911.85 1284 911.85 1284 862.35 1284 c 0,13,14
 824.55 1284 824.55 1284 799.35 1303 c 128,-1,15
 774.15 1322 774.15 1322 763.35 1357 c 0,16,17
 757.95 1372 757.95 1372 753.9 1408 c 128,-1,18
 749.85 1444 749.85 1444 735.45 1444 c 0,19,20
 639.15 1444 639.15 1444 626.55 825 c 0,21,22
 622.95 632 622.95 632 619.35 522 c 0,23,24
 604.05 43 604.05 43 519 -164 c 128,-1,25
 433.95 -371 433.95 -371 257.55 -371 c 0,26,27
 186.45 -371 186.45 -371 141 -329.5 c 128,-1,28
 95.5498 -288 95.5498 -288 95.5498 -223 c 0,29,30
 95.5498 -167 95.5498 -167 126.15 -135.5 c 128,-1,31
 156.75 -104 156.75 -104 211.65 -104 c 0,32,33
 241.35 -104 241.35 -104 262.95 -118.5 c 128,-1,34
 284.55 -133 284.55 -133 298.05 -161 c 0,35,36
 307.05 -179 307.05 -179 311.55 -220.5 c 128,-1,37
 316.05 -262 316.05 -262 333.15 -262 c 0,0,1
EndSplineSet
EndChar
StartChar: approxequal
Encoding: 8776 8776 167
Width: 1630
Flags: HW
Fore
1434.9 623 m 1,0,-1
 1434.9 444 l 1,1,2
 1340.4 366 1340.4 366 1259.85 331.5 c 128,-1,3
 1179.3 297 1179.3 297 1092 297 c 0,4,5
 993 297 993 297 861.6 356 c 0,6,7
 852.6 360 852.6 360 846.3 363 c 0,8,9
 840.9 365 840.9 365 827.4 371 c 0,10,11
 687.9 432 687.9 432 603.3 432 c 0,12,13
 524.1 432 524.1 432 446.7 394 c 128,-1,14
 369.3 356 369.3 356 281.1 272 c 1,15,-1
 281.1 451 l 1,16,17
 375.6 529 375.6 529 456.15 563.5 c 128,-1,18
 536.7 598 536.7 598 624 598 c 0,19,20
 723 598 723 598 855.3 539 c 0,21,22
 865.2 534 865.2 534 869.7 532 c 0,23,24
 875.1 530 875.1 530 888.6 524 c 0,25,26
 1028.1 463 1028.1 463 1112.7 463 c 0,27,28
 1190.1 463 1190.1 463 1266.15 500.5 c 128,-1,29
 1342.2 538 1342.2 538 1434.9 623 c 1,0,-1
1434.9 1012 m 1,30,-1
 1434.9 834 l 1,31,32
 1340.4 755 1340.4 755 1259.85 720.5 c 128,-1,33
 1179.3 686 1179.3 686 1092 686 c 0,34,35
 993 686 993 686 861.6 745 c 0,36,37
 852.6 749 852.6 749 846.3 752 c 0,38,39
 840.9 754 840.9 754 827.4 760 c 0,40,41
 687.9 821 687.9 821 603.3 821 c 0,42,43
 524.1 821 524.1 821 446.7 783 c 128,-1,44
 369.3 745 369.3 745 281.1 662 c 1,45,-1
 281.1 840 l 1,46,47
 375.6 918 375.6 918 456.15 952.5 c 128,-1,48
 536.7 987 536.7 987 624 987 c 0,49,50
 723 987 723 987 855.3 928 c 0,51,52
 864.3 924 864.3 924 868.8 922 c 0,53,54
 875.1 919 875.1 919 888.6 913 c 0,55,56
 1028.1 852 1028.1 852 1112.7 852 c 0,57,58
 1190.1 852 1190.1 852 1266.15 889.5 c 128,-1,59
 1342.2 927 1342.2 927 1434.9 1012 c 1,30,-1
EndSplineSet
EndChar
StartChar: notequal
Encoding: 8800 8800 143
Width: 1630
Flags: HW
Fore
281.1 930 m 1,0,-1
 975.9 930 l 1,1,-1
 1206.3 1245 l 1,2,-1
 1318.8 1143 l 1,3,-1
 1162.2 930 l 1,4,-1
 1434.9 930 l 1,5,-1
 1434.9 762 l 1,6,-1
 1038.9 762 l 1,7,-1
 863.4 522 l 1,8,-1
 1434.9 522 l 1,9,-1
 1434.9 352 l 1,10,-1
 738.3 352 l 1,11,-1
 506.1 39 l 1,12,-1
 393.6 141 l 1,13,-1
 550.2 352 l 1,14,-1
 281.1 352 l 1,15,-1
 281.1 522 l 1,16,-1
 675.3 522 l 1,17,-1
 850.8 762 l 1,18,-1
 281.1 762 l 1,19,-1
 281.1 930 l 1,0,-1
EndSplineSet
Ligature: 0 1 'liga' equal uni0338
EndChar
StartChar: lessequal
Encoding: 8804 8804 148
Width: 1630
Flags: HW
Fore
1434.9 1016 m 1,0,-1
 570.9 739 l 1,1,-1
 1434.9 465 l 1,2,-1
 1434.9 287 l 1,3,-1
 281.1 655 l 1,4,-1
 281.1 825 l 1,5,-1
 1434.9 1192 l 1,6,-1
 1434.9 1016 l 1,0,-1
281.1 170 m 1,7,-1
 1434.9 170 l 1,8,-1
 1434.9 0 l 1,9,-1
 281.1 0 l 1,10,-1
 281.1 170 l 1,7,-1
EndSplineSet
EndChar
StartChar: greaterequal
Encoding: 8805 8805 149
Width: 1630
Flags: HW
Fore
281.1 1016 m 1,0,-1
 281.1 1192 l 1,1,-1
 1434.9 825 l 1,2,-1
 1434.9 655 l 1,3,-1
 281.1 287 l 1,4,-1
 281.1 465 l 1,5,-1
 1146 739 l 1,6,-1
 281.1 1016 l 1,0,-1
1434.9 170 m 1,7,-1
 1434.9 0 l 1,8,-1
 281.1 0 l 1,9,-1
 281.1 170 l 1,10,-1
 1434.9 170 l 1,7,-1
EndSplineSet
EndChar
StartChar: uni2423
Encoding: 9251 9251 150
Width: 1232
Flags: HMW
HStem: -466 170<291.552 896.352>
Fore
291.552 -296 m 1,1,-1
 896.352 -296 l 1,4,-1
 984.529 208 l 1,3,-1
 1135.73 208 l 1,2,-1
 1017.81 -466 l 1,1,-1
 110.612 -466 l 1,0,-1
 228.522 208 l 1,3,-1
 379.723 208 l 1,2,-1
 291.552 -296 l 1,1,-1
EndSplineSet
EndChar
StartChar: lozenge
Encoding: 9674 9674 185
Width: 961
Flags: HW
Fore
506 1409 m 1,0,-1
 159.5 592 l 1,1,-1
 506 -233 l 1,2,-1
 852.5 592 l 1,3,-1
 506 1409 l 1,0,-1
506 1653 m 1,4,-1
 956 592 l 1,5,-1
 506 -477 l 1,6,-1
 56 592 l 1,7,-1
 506 1653 l 1,4,-1
EndSplineSet
EndChar
StartChar: fi
Encoding: 64257 64257 192
Width: 1263
Flags: HW
Fore
1010.4 1120 m 1,0,-1
 1178.7 1120 l 1,1,-1
 981.6 0 l 1,2,-1
 815.1 0 l 1,3,-1
 1010.4 1120 l 1,0,-1
1087.8 1556 m 1,4,-1
 1254.3 1556 l 1,5,-1
 1213.8 1323 l 1,6,-1
 1047.3 1323 l 1,7,-1
 1087.8 1556 l 1,4,-1
953.7 1556 m 1,8,-1
 927.6 1403 l 1,9,-1
 769.2 1403 l 2,10,11
 679.2 1403 679.2 1403 638.25 1363.5 c 128,-1,12
 597.3 1324 597.3 1324 577.5 1219 c 1,13,-1
 559.5 1120 l 1,14,-1
 832.2 1120 l 1,15,-1
 807.9 977 l 1,16,-1
 535.2 977 l 1,17,-1
 364.2 0 l 1,18,-1
 197.7 0 l 1,19,-1
 369.6 977 l 1,20,-1
 211.2 977 l 1,21,-1
 234.6 1120 l 1,22,-1
 393 1120 l 1,23,-1
 406.5 1198 l 2,24,25
 440.7 1396 440.7 1396 526.65 1476 c 128,-1,26
 612.6 1556 612.6 1556 797.1 1556 c 2,27,-1
 953.7 1556 l 1,8,-1
EndSplineSet
Ligature: 0 0 'liga' f i
EndChar
StartChar: fl
Encoding: 64258 64258 193
Width: 1263
Flags: HW
Fore
797.1 1556 m 2,0,-1
 1254.3 1556 l 1,1,-1
 981.6 0 l 1,2,-1
 815.1 0 l 1,3,-1
 1066.2 1403 l 1,4,-1
 769.2 1403 l 2,5,6
 679.2 1403 679.2 1403 638.25 1363.5 c 128,-1,7
 597.3 1324 597.3 1324 577.5 1219 c 1,8,-1
 559.5 1120 l 1,9,-1
 832.2 1120 l 1,10,-1
 807.9 977 l 1,11,-1
 535.2 977 l 1,12,-1
 364.2 0 l 1,13,-1
 197.7 0 l 1,14,-1
 369.6 977 l 1,15,-1
 211.2 977 l 1,16,-1
 234.6 1120 l 1,17,-1
 393 1120 l 1,18,-1
 406.5 1198 l 2,19,20
 440.7 1397 440.7 1397 526.2 1476.5 c 128,-1,21
 611.7 1556 611.7 1556 797.1 1556 c 2,0,-1
EndSplineSet
Ligature: 0 0 'liga' f l
EndChar
StartChar: dlLtcaron
Encoding: 65537 -1 194
Width: 989
Flags: HW
Fore
648.5 1638 m 1,0,-1
 827.6 1638 l 1,1,-1
 671 1262 l 1,2,-1
 532.4 1262 l 1,3,-1
 648.5 1638 l 1,0,-1
EndSplineSet
EndChar
StartChar: Dieresis
Encoding: 65538 -1 259
Width: 989
Flags: HW
Fore
433.7 1497 m 1,0,-1
 617.3 1497 l 1,1,-1
 580.4 1294 l 1,2,-1
 398.6 1294 l 1,3,-1
 433.7 1497 l 1,0,-1
785.6 1497 m 1,4,-1
 967.4 1497 l 1,5,-1
 933.2 1294 l 1,6,-1
 750.5 1294 l 1,7,-1
 785.6 1497 l 1,4,-1
EndSplineSet
EndChar
StartChar: Acute
Encoding: 65539 -1 260
Width: 996
Flags: HW
Fore
771.45 1526 m 1,0,-1
 957.75 1526 l 1,1,-1
 681.45 1262 l 1,2,-1
 539.25 1262 l 1,3,-1
 771.45 1526 l 1,0,-1
EndSplineSet
EndChar
StartChar: Tilde
Encoding: 65540 -1 261
Width: 990
Flags: HW
Fore
680.95 1337 m 2,0,-1
 649.45 1362 l 1,1,-1
 648.55 1363 l 2,2,3
 609.85 1395 609.85 1395 575.65 1395 c 0,4,5
 545.05 1395 545.05 1395 520.75 1369.5 c 128,-1,6
 496.45 1344 496.45 1344 480.25 1294 c 1,7,-1
 367.75 1294 l 1,8,9
 399.25 1403 399.25 1403 454.6 1458 c 128,-1,10
 509.95 1513 509.95 1513 586.45 1513 c 0,11,12
 617.95 1513 617.95 1513 645.4 1502 c 128,-1,13
 672.85 1491 672.85 1491 705.25 1466 c 1,14,-1
 734.05 1440 l 2,15,16
 750.25 1426 750.25 1426 767.35 1419.5 c 128,-1,17
 784.45 1413 784.45 1413 802.45 1413 c 0,18,19
 837.55 1413 837.55 1413 863.2 1440 c 128,-1,20
 888.85 1467 888.85 1467 898.75 1513 c 1,21,-1
 1011.25 1513 l 1,22,23
 981.55 1404 981.55 1404 925.3 1349 c 128,-1,24
 869.05 1294 869.05 1294 786.25 1294 c 0,25,26
 758.35 1294 758.35 1294 733.6 1304.5 c 128,-1,27
 708.85 1315 708.85 1315 680.95 1337 c 2,0,-1
EndSplineSet
EndChar
StartChar: Grave
Encoding: 65541 -1 262
Width: 984
Flags: HW
Fore
645.3 1526 m 1,0,-1
 778.5 1262 l 1,1,-1
 652.5 1262 l 1,2,-1
 481.5 1526 l 1,3,-1
 645.3 1526 l 1,0,-1
EndSplineSet
EndChar
StartChar: Circumflex
Encoding: 65542 -1 263
Width: 987
Flags: HW
Fore
605.55 1528 m 1,0,-1
 799.05 1528 l 1,1,-1
 941.25 1262 l 1,2,-1
 819.75 1262 l 1,3,-1
 693.75 1440 l 1,4,-1
 505.65 1262 l 1,5,-1
 369.75 1262 l 1,6,-1
 605.55 1528 l 1,0,-1
EndSplineSet
KernsSLIF: 536 38 0 0 348 38 0 0 346 38 0 0 350 38 0 0 352 38 0 0 8217 -45 0 0 8221 -45 0 0 83 38 0 0
EndChar
StartChar: Caron
Encoding: 65543 -1 264
Width: 993
Flags: HW
Fore
766.55 1262 m 1,0,-1
 574.85 1262 l 1,1,-1
 432.65 1528 l 1,2,-1
 553.25 1528 l 1,3,-1
 678.35 1350 l 1,4,-1
 866.45 1528 l 1,5,-1
 1002.35 1528 l 1,6,-1
 766.55 1262 l 1,0,-1
EndSplineSet
EndChar
StartChar: foursuperior
Encoding: 65544 -1 265
Width: 783
Flags: HW
Fore
585.95 1378 m 1,0,-1
 232.25 963 l 1,1,-1
 512.15 963 l 1,2,-1
 585.95 1378 l 1,0,-1
585.95 1503 m 1,3,-1
 735.35 1503 l 1,4,-1
 639.95 963 l 1,5,-1
 763.25 963 l 1,6,-1
 744.35 854 l 1,7,-1
 621.05 854 l 1,8,-1
 587.75 668 l 1,9,-1
 460.85 668 l 1,10,-1
 494.15 854 l 1,11,-1
 119.75 854 l 1,12,-1
 142.25 985 l 1,13,-1
 585.95 1503 l 1,3,-1
EndSplineSet
EndChar
StartChar: Breve
Encoding: 65545 -1 266
Width: 991
Flags: HW
Fore
420.35 1528 m 1,0,-1
 527.45 1528 l 1,1,2
 538.25 1467 538.25 1467 573.35 1440 c 128,-1,3
 608.45 1413 608.45 1413 676.85 1413 c 0,4,5
 754.25 1413 754.25 1413 802.85 1440.5 c 128,-1,6
 851.45 1468 851.45 1468 877.55 1528 c 1,7,-1
 984.65 1528 l 1,8,9
 954.05 1415 954.05 1415 871.25 1350.5 c 128,-1,10
 788.45 1286 788.45 1286 673.25 1286 c 0,11,12
 564.35 1286 564.35 1286 501.35 1346.5 c 128,-1,13
 438.35 1407 438.35 1407 420.35 1528 c 1,0,-1
EndSplineSet
EndChar
StartChar: Dotaccent
Encoding: 65546 -1 267
Width: 989
Flags: HW
Fore
610.1 1499 m 1,0,-1
 792.8 1499 l 1,1,-1
 757.7 1294 l 1,2,-1
 573.2 1294 l 1,3,-1
 610.1 1499 l 1,0,-1
EndSplineSet
EndChar
StartChar: Hungarumlaut
Encoding: 65547 -1 268
Width: 1006
Flags: HW
Fore
1018.65 1526 m 1,0,-1
 1204.95 1526 l 1,1,-1
 928.65 1262 l 1,2,-1
 786.45 1262 l 1,3,-1
 1018.65 1526 l 1,0,-1
734.25 1526 m 1,0,-1
 920.55 1526 l 1,1,-1
 644.25 1262 l 1,2,-1
 502.05 1262 l 1,3,-1
 734.25 1526 l 1,0,-1
EndSplineSet
EndChar
StartChar: Doublegrave
Encoding: 65548 -1 269
Width: 984
Flags: HW
Fore
771.3 1526 m 1,0,-1
 904.5 1262 l 1,1,-1
 778.5 1262 l 1,2,-1
 607.5 1526 l 1,3,-1
 771.3 1526 l 1,0,-1
519.3 1526 m 1,0,-1
 652.5 1262 l 1,1,-1
 526.5 1262 l 1,2,-1
 355.5 1526 l 1,3,-1
 519.3 1526 l 1,0,-1
EndSplineSet
EndChar
